<?xml version="1.0" encoding="UTF-8"?>
<svg width="80px" height="82px" viewBox="0 0 80 82" version="1.1" xmlns="http://www.w3.org/2000/svg" xmlns:xlink="http://www.w3.org/1999/xlink">
    <title>暂无记录</title>
    <g id="页面-1" stroke="none" stroke-width="1" fill="none" fill-rule="evenodd">
        <g id="02-2搜索" transform="translate(-148.000000, -328.000000)" fill="#DDDDDD" fill-rule="nonzero">
            <path d="M213.423552,328.000004 C216.966776,327.996368 219.182858,330.305 219.182858,333.75673 L219.182039,337.484843 C219.182016,337.588402 219.181993,337.694118 219.181969,337.801991 L219.181014,342.144983 L219.180962,342.379608 L219.180103,346.28733 C219.180061,346.477188 219.180019,346.669203 219.179977,346.863376 L219.17901,351.258147 L219.178936,351.596331 L219.178071,355.529943 L219.177988,355.906961 L219.177029,360.267752 L219.176938,360.683605 L219.176083,364.57191 L219.175984,365.020125 L219.175065,369.199688 L219.17496,369.680265 L219.1742,373.134918 C219.174126,373.471484 219.174052,373.810207 219.173977,374.151087 L219.173,375.735 L217.018,373.714 L217.018362,334.478054 C217.018362,331.76845 215.350818,330.167451 213.433691,330.167451 L153.749826,330.167451 C151.797052,330.167451 150.14378,332.355494 150.14378,334.478054 L150.14378,403.523144 C150.14378,404.786314 151.896422,407.825189 155.87232,407.825189 C162.151306,407.825189 162.467149,402.122042 161.193785,398.68284 C160.605852,397.094904 159.504962,396.327402 159.504962,396.327402 L217.018362,396.327402 L217.018,391.544 L219.169,393.583 L219.169101,396.326436 L222.063389,396.327402 C225.898669,396.857514 227.816309,399.015141 227.816309,402.800285 C227.816309,406.585429 225.889182,408.980666 222.034927,409.985998 L156.275081,409.986281 C156.147715,409.990258 156.018329,409.992274 155.886891,409.992274 C150.460902,409.992274 148,404.94473 148,403.512523 L148,333.75673 C148,329.455509 151.184286,328.000004 153.708833,328.000004 L213.423552,328.000004 Z M222.082503,398.484679 L163.066065,398.484679 C163.592616,399.417025 163.783872,400.920195 163.639832,402.994189 C163.495792,405.068182 162.828409,406.677594 161.637683,407.822424 L222.035892,407.822424 C224.466315,407.147588 225.681526,405.592347 225.681526,403.1567 C225.681526,400.721054 224.481852,399.163713 222.082503,398.484679 Z M199.752426,348.853913 C208.886637,348.853913 216.291377,356.258653 216.291377,365.392864 C216.291377,369.626916 214.70034,373.489361 212.083519,376.414948 L214.441475,378.771913 L216.478422,376.736115 L226.371034,386.628727 C227.82583,388.083523 227.82583,390.556676 226.371034,392.011472 C225.643636,392.73887 224.625279,393.029829 223.606922,393.029829 C222.588565,393.029829 221.715688,392.593391 220.98829,391.865993 L211.095678,382.11886 L213.131475,380.081913 L210.774511,377.723957 C207.848924,380.340778 203.986478,381.931815 199.752426,381.931815 C190.618216,381.931815 183.213475,374.527074 183.213475,365.392864 C183.213475,356.258653 190.618216,348.853913 199.752426,348.853913 Z M216.546112,379.339704 L213.666612,382.224294 L222.438534,390.706195 C222.438534,390.706195 223.811747,391.753046 225.053643,390.706195 C226.29554,389.659343 225.681526,388.456597 225.352677,387.942037 L216.546112,379.339704 Z M184.327433,383.864615 L184.327433,386.774207 L156.97727,386.774207 L156.97727,383.864615 L184.327433,383.864615 Z M199.752426,351.011167 C191.809634,351.011167 185.37073,357.450072 185.37073,365.392864 C185.37073,373.335656 191.809634,379.77456 199.752426,379.77456 C207.695218,379.77456 214.134123,373.335656 214.134123,365.392864 C214.134123,357.450072 207.695218,351.011167 199.752426,351.011167 Z M173.270984,375.13584 L173.270984,378.045432 L156.97727,378.045432 L156.97727,375.13584 L173.270984,375.13584 Z M199.626702,370.210751 C200.699457,370.210751 201.571979,371.065375 201.571979,372.115757 C201.571979,373.117186 200.782605,373.940043 199.777842,374.016139 L199.626702,374.021882 C198.552829,374.021882 197.680307,373.167258 197.680307,372.115757 C197.680307,371.064256 198.550592,370.210751 199.626702,370.210751 Z M179.987985,366.407064 L179.987985,369.316656 L156.97727,369.316656 L156.97727,366.407064 L179.987985,366.407064 Z M199.687107,356.763846 C201.438863,356.763846 202.829305,357.221361 203.865145,358.13639 C204.900985,359.051419 205.416668,360.115225 205.416668,361.330044 C205.41691,362.007736 205.219845,362.670839 204.849529,363.238406 C204.46808,363.837985 203.659319,364.653457 202.416535,365.68706 C201.774448,366.219522 201.375102,366.65019 201.219614,366.977945 C201.065245,367.302344 200.992534,367.884026 201.007077,368.722989 L198.238497,368.722989 C198.232904,368.32588 198.227311,368.08314 198.227311,367.995888 C198.227311,367.098756 198.374969,366.362706 198.671402,365.783262 C198.968955,365.204936 199.562941,364.552782 200.450005,363.832392 C201.338187,363.108646 201.87065,362.635471 202.044035,362.411747 C202.311385,362.057145 202.446738,361.665629 202.446738,361.241673 C202.446738,360.651043 202.208472,360.145428 201.735297,359.720353 C201.262121,359.299753 200.620035,359.087215 199.816867,359.087215 C199.041665,359.087215 198.392867,359.308701 197.871591,359.7472 C197.351433,360.186816 196.902868,361.156658 196.796599,361.757356 C196.695923,362.323377 193.966496,362.562761 194.000054,361.415059 C194.033613,360.266238 194.629836,359.021217 195.65449,358.118492 C196.678025,357.214649 198.023723,356.763846 199.687107,356.763846 Z M173.270984,357.678289 L173.270984,360.587881 L156.97727,360.587881 L156.97727,357.678289 L173.270984,357.678289 Z M184.97727,340.220738 L184.97727,351.859105 L156.97727,351.859105 L156.97727,340.220738 L184.97727,340.220738 Z" id="暂无记录"></path>
        </g>
    </g>
</svg>