<?xml version="1.0" encoding="UTF-8"?>
<svg width="12px" height="12px" viewBox="0 0 12 12" version="1.1" xmlns="http://www.w3.org/2000/svg" xmlns:xlink="http://www.w3.org/1999/xlink">
    <title>复制</title>
    <g id="金融机构端" stroke="none" stroke-width="1" fill="none" fill-rule="evenodd">
        <g id="04清单管理-清单对接-去反馈" transform="translate(-1264.000000, -467.000000)" fill="#0797F3" fill-rule="nonzero">
            <g id="2" transform="translate(854.000000, 369.000000)">
                <path d="M418.923858,99.8883249 C419.581726,99.8883249 420.111675,100.418274 420.111675,101.076142 L420.111675,101.076142 L420.111675,108.812183 C420.111675,109.470051 419.581726,110 418.923858,110 L418.923858,110 L411.187817,110 C410.529949,110 410,109.470051 410,108.812183 L410,108.812183 L410,101.076142 C410,100.418274 410.529949,99.8883249 411.187817,99.8883249 L411.187817,99.8883249 Z M418.923858,100.80203 L411.187817,100.80203 C411.035533,100.80203 410.913706,100.923858 410.913706,101.076142 L410.913706,101.076142 L410.913706,108.812183 C410.913706,108.964467 411.035533,109.086294 411.187817,109.086294 L411.187817,109.086294 L418.923858,109.086294 C419.076142,109.086294 419.19797,108.964467 419.19797,108.812183 L419.19797,108.812183 L419.19797,101.076142 C419.19797,100.923858 419.076142,100.80203 418.923858,100.80203 L418.923858,100.80203 Z M420.812183,98 C421.470051,98 422,98.5299492 422,99.1878173 L422,99.1878173 L422,106.923858 C422,107.173604 421.792893,107.380711 421.543147,107.380711 C421.293401,107.380711 421.086294,107.173604 421.086294,106.923858 L421.086294,106.923858 L421.086294,99.1878173 C421.086294,99.035533 420.964467,98.9137056 420.812183,98.9137056 L420.812183,98.9137056 L413.076142,98.9137056 C412.826396,98.9137056 412.619289,98.706599 412.619289,98.4568528 C412.619289,98.2071066 412.826396,98 413.076142,98 L413.076142,98 Z" id="复制"></path>
            </g>
        </g>
    </g>
</svg>