<?xml version="1.0" encoding="UTF-8"?>
<svg width="24px" height="24px" viewBox="0 0 24 24" version="1.1" xmlns="http://www.w3.org/2000/svg" xmlns:xlink="http://www.w3.org/1999/xlink">
    <title>对接失败</title>
    <g id="金融机构端" stroke="none" stroke-width="1" fill="none" fill-rule="evenodd">
        <g id="02清单管理-清单跟踪-弹窗" transform="translate(-1653.000000, -96.000000)" fill="#FF2E2E" fill-rule="nonzero">
            <g id="对接失败" transform="translate(1630.000000, 33.000000)">
                <path d="M34.9999758,87 C28.3726291,87 23,81.6273224 23,74.9999278 C23,68.3725811 28.3726291,63 34.9999758,63 C41.6273704,63 47,68.3725811 47,74.9999278 C47,81.6273224 41.6273704,87 34.9999758,87 Z M34.9999758,64.500045 C29.2010595,64.500045 24.499997,69.2010595 24.499997,74.9999758 C24.499997,80.79894 29.2010115,85.4999546 34.9999758,85.4999546 C40.798988,85.4999546 45.499997,80.79894 45.499997,74.9999758 C45.499997,69.2010115 40.79894,64.500045 34.9999758,64.500045 Z M36.0648536,75.0041997 L39.2425912,78.1818893 C39.5354866,78.4748327 39.5354866,78.9496478 39.2425912,79.2425912 C38.9496958,79.5355346 38.4748327,79.5355346 38.1819373,79.2425912 L35.0041517,76.0648056 L31.8047662,79.2641911 C31.5095188,79.5592946 31.0309598,79.5592946 30.7357604,79.2641911 C30.440561,78.9689917 30.440561,78.4904327 30.7357604,78.1952333 L33.9351939,74.9957998 L30.7574083,71.8180142 C30.4644649,71.5251188 30.4644649,71.0502557 30.7574083,70.7574083 C31.0503037,70.4644169 31.5251188,70.4644169 31.8180622,70.7574083 L34.9958958,73.9351939 L38.2188973,70.7121924 C38.5140487,70.416945 38.9927037,70.416945 39.2879031,70.7121924 C39.5830545,71.0073438 39.5830545,71.4859988 39.2879031,71.7811023 L36.0648536,75.0041997 Z"></path>
            </g>
        </g>
    </g>
</svg>