<?xml version="1.0" encoding="UTF-8"?>
<svg width="27px" height="28px" viewBox="0 0 27 28" version="1.1" xmlns="http://www.w3.org/2000/svg" xmlns:xlink="http://www.w3.org/1999/xlink">
    <title>农专社</title>
    <g id="页面-1" stroke="none" stroke-width="1" fill="none" fill-rule="evenodd">
        <g id="iPhone-11-Pro" transform="translate(-29.000000, -301.000000)" fill="#01E6E8" fill-rule="nonzero">
            <g id="农专社" transform="translate(29.000000, 301.000000)">
                <path d="M25.9096847,0.924843418 C27.070898,2.62119413 25.1541965,5.28463966 22.6761254,7.03695245 C21.1371681,8.13345958 19.330642,8.88894773 17.9175993,8.88894773 L17.9158505,8.88894773 C17.5597162,8.88894773 17.2262457,8.84015747 16.927191,8.73616677 L17.1586136,8.5619193 C16.261751,9.22840843 15.4327231,9.91170319 14.666438,10.6044997 C15.4941627,10.5256027 16.40014,10.5457826 17.3282486,10.6692416 C20.323969,11.0679715 23.2217558,12.5492179 22.9559359,14.6005781 C22.7530733,16.2133355 20.7444522,16.9583482 18.4228874,17.0062238 L18.1818555,17.0082381 L17.7707808,17.0010182 C17.3562297,16.9858527 16.936514,16.9487997 16.5167984,16.8950236 C15.0198126,16.6956587 13.6330021,16.2392179 12.6256846,15.6271326 C11.8840653,15.180616 11.4451369,14.7170368 11.192223,14.2908137 C10.4834355,15.1774265 9.86057106,16.0587224 9.31295901,16.9202027 C9.34260794,17.2845504 9.31261868,17.6259579 9.21550465,17.933069 C9.33570452,17.9017627 9.4652129,17.8741886 9.60198315,17.8498767 C10.7631964,17.6365212 12.2199595,17.7064739 13.6889642,18.0632322 C16.6444619,18.7452701 19.3866041,20.4993317 18.9249169,22.5087203 C18.6153766,23.9182654 16.9505045,24.5023696 14.977841,24.5023696 C14.0762812,24.4974906 13.1783497,24.3877434 12.3021538,24.1753412 C10.8331491,23.8325734 9.50404952,23.2484692 8.53870352,22.5506919 C7.76549105,21.9799671 7.36668998,21.4263559 7.1759004,20.9445092 C5.68604637,24.387648 5.40641595,26.9232838 5.37908608,27.1770493 L5.37684569,27.1972938 L5.37684569,27.1972938 C5.36110635,27.6537346 4.94313952,28 4.46571297,28 L4.39051394,28 C3.88335754,27.9580284 3.49512056,27.5575498 3.52485041,27.0731279 C3.53884092,26.9612038 3.7644381,24.1788388 5.42056607,20.3296966 C5.60133581,19.9106678 5.80397732,19.4688559 6.03073844,19.0081398 C4.79111703,18.5551444 3.44530822,17.5256153 2.35664187,16.2934312 C1.37205893,15.18818 0.637556555,13.9745023 0.275551828,12.8832416 C-0.324291789,11.0802132 0.287793516,10.2058056 0.702262723,9.85079607 C2.21673668,8.55492403 5.00609687,10.1236112 6.97701159,12.3481042 C7.62811948,13.0823322 8.195779,13.8939119 8.60974812,14.6983895 C8.99791292,14.1526094 9.41854682,13.5982992 9.87312978,13.0399481 C9.5550368,12.7662658 9.2289565,12.3668395 8.92169406,11.7902321 C8.38131016,10.7671752 8.02105423,9.4013506 7.89513955,7.92884821 C7.77097366,6.46683871 7.90913006,5.04854963 8.28512532,3.95728895 C8.8797225,2.15600932 9.89403529,1.81324153 10.4501585,1.77126996 C11.0045329,1.73104723 12.0590685,1.90942637 12.9492154,3.58828892 C13.4913481,4.61134581 13.851604,5.97717045 13.9757699,7.44967284 C14.0119073,7.89884662 14.0236655,8.35088854 14.0104927,8.79498632 C14.5354781,8.34082649 15.0895675,7.89076877 15.6719467,7.44721848 C15.5069335,6.87945616 15.5259102,6.01393054 16.264969,4.81420838 C16.8945425,3.78765387 17.9315899,2.74885764 19.1627557,1.87969649 C20.3939216,1.01053534 21.72477,0.382710699 22.8719927,0.141374215 C24.7764524,-0.271346168 25.6001444,0.456160934 25.9096847,0.924843418 Z" id="形状结合"></path>
            </g>
        </g>
    </g>
</svg>