<?xml version="1.0" encoding="UTF-8"?>
<svg width="27px" height="28px" viewBox="0 0 27 28" version="1.1" xmlns="http://www.w3.org/2000/svg" xmlns:xlink="http://www.w3.org/1999/xlink">
    <title>个体</title>
    <g id="页面-1" stroke="none" stroke-width="1" fill="none" fill-rule="evenodd">
        <g id="iPhone-11-Pro" transform="translate(-65.000000, -301.000000)" fill="#01E6E8" fill-rule="nonzero">
            <g id="个体" transform="translate(65.000000, 301.000000)">
                <path d="M26.5,6.6425 C26.5,6.17648484 26.1956112,5.76513463 25.75,5.62875 L25.75,1.25 C25.75,0.559644063 25.1903559,0 24.5,0 L2,0 C1.30964406,0 0.75,0.559644063 0.75,1.25 L0.75,5.62875 C0.30438877,5.76513463 0,6.17648484 0,6.6425 L0,10.8103125 C0,12.178125 0.286875,13.2625 0.75,14.1165625 L0.75,26.75 C0.75,27.4403559 1.30964406,28 2,28 L10.8959375,28 L10.8959375,21.75 L15.6040625,21.75 L15.6040625,28 L24.5,28 C25.1903559,28 25.75,27.4403559 25.75,26.75 L25.75,14.1165625 C26.2134375,13.2625 26.5,12.1790625 26.5,10.8103125 L26.5,6.6425 Z M23.25,2.5 L23.25,5.5825 L3.25,5.5825 L3.25,2.5 L23.25,2.5 Z M18.1040625,25.5 L18.1040625,20.5 C18.1040625,19.8096441 17.5444184,19.25 16.8540625,19.25 L9.6459375,19.25 C8.95558156,19.25 8.3959375,19.8096441 8.3959375,20.5 L8.3959375,25.5 L3.25,25.5 L3.25,16.40625 C4.203125,16.838125 5.210625,17 6.038125,17 C7.694375,17 8.5521875,16.53125 8.9865625,16.114375 C9.21268807,15.9019414 9.56579375,15.904555 9.78875,16.1203125 C11.7291227,17.9611236 14.7708773,17.9611236 16.71125,16.1203125 C16.9342494,15.9048415 17.2871247,15.9023661 17.513125,16.1146875 C17.9475,16.5303125 18.805,17.000625 20.461875,17.000625 C21.289375,17.000625 22.296875,16.8396875 23.25,16.406875 L23.25,25.5 L18.1040625,25.5 Z" id="形状"></path>
            </g>
        </g>
    </g>
</svg>