<?xml version="1.0" encoding="UTF-8"?>
<svg width="24px" height="28px" viewBox="0 0 24 28" version="1.1" xmlns="http://www.w3.org/2000/svg" xmlns:xlink="http://www.w3.org/1999/xlink">
    <title>市场主体</title>
    <g id="页面-1" stroke="none" stroke-width="1" fill="none" fill-rule="evenodd">
        <g id="iPhone-11-Pro" transform="translate(-117.000000, -301.000000)" fill="#01E6E8" fill-rule="nonzero">
            <g id="市场主体" transform="translate(117.000000, 301.000000)">
                <path d="M21.4520028,22.6654006 L23.1536602,26.1460635 L21.2199586,26.3007597 L19.9823895,27.847721 L18.280732,24.367058 C17.9713398,24.367058 17.5845994,24.5217541 17.043163,24.5217541 C16.7337707,24.5217541 16.3470304,24.5217541 15.8055939,24.367058 L14.1039365,27.847721 L13.0210635,26.4554558 L11.0873619,26.3007597 L12.7890193,22.8200967 C11.7834945,21.7372238 11.0873619,20.1902624 11.0873619,18.6433011 C11.0873619,15.3173343 13.7171961,12.5328039 16.9658149,12.5328039 C20.2917818,12.5328039 22.844268,15.3173343 22.844268,18.6433011 C22.9989641,20.1902624 22.5348757,21.5825276 21.4520028,22.6654006 L21.4520028,22.6654006 Z M20.2917818,16.5549033 C20.1370856,16.4002072 19.5956492,16.4002072 19.440953,16.5549033 L16.3470304,19.726174 L14.8000691,18.1792127 C14.6453729,18.0245166 14.1039365,18.0245166 13.9492403,18.1792127 C13.7945442,18.3339088 13.7945442,18.8753453 13.9492403,19.0300414 L16.0376381,21.1184392 C16.1923343,21.2731354 16.7337707,21.2731354 16.8884669,21.1184392 L20.3691298,17.4830801 C20.4464779,17.2510359 20.4464779,16.8642956 20.2917818,16.5549033 L20.2917818,16.5549033 Z M17.9713398,9.74827348 L17.2752072,9.74827348 L17.2752072,1.78142265 L6.9105663,5.26208564 L6.9105663,4.17921271 L18.3580801,0.00241712707 L21.8387431,2.94164365 L21.8387431,10.5991022 C21.684047,10.5991022 21.684047,10.4444061 21.5293508,10.4444061 C20.2917818,9.90296961 19.2089088,9.74827348 17.9713398,9.74827348 L17.9713398,9.74827348 Z M14.5680249,6.65435083 L14.5680249,10.4444061 C13.5625,10.9858425 12.6343232,11.527279 11.7834945,12.3781077 C11.0873619,13.0742403 10.5459254,13.7703729 10.2365331,14.6212017 L10.2365331,6.80904696 L1.57354972,9.59357735 L1.57354972,25.7593232 L0.0265883978,25.7593232 L0.0265883978,8.74274862 L11.6287983,4.72064917 L14.5680249,6.65435083 L14.5680249,6.65435083 Z M8.68957182,11.9913674 L3.12051105,13.5383287 L3.12051105,10.9858425 L8.45752762,9.28418508 L8.45752762,12.0687155 L8.68957182,12.0687155 L8.68957182,11.9913674 Z M8.68957182,16.5549033 L3.27520718,17.5604282 L3.27520718,15.3173343 L8.61222376,13.9250691 L8.61222376,16.5549033 L8.68957182,16.5549033 Z M8.68957182,21.2731354 L3.27520718,21.7372238 L3.27520718,19.4941298 L8.61222376,18.6433011 L8.61222376,21.2731354 L8.68957182,21.2731354 Z M8.68957182,25.7593232 L3.12051105,25.7593232 L3.12051105,23.3615331 L8.45752762,22.9747928 L8.45752762,25.7593232 L8.68957182,25.7593232 L8.68957182,25.7593232 Z" id="形状"></path>
            </g>
        </g>
    </g>
</svg>