<?xml version="1.0" encoding="UTF-8"?>
<svg width="20px" height="20px" viewBox="0 0 20 20" version="1.1" xmlns="http://www.w3.org/2000/svg" xmlns:xlink="http://www.w3.org/1999/xlink">
    <title>形状</title>
    <g id="页面-1" stroke="none" stroke-width="1" fill="none" fill-rule="evenodd">
        <g id="Apple-TV" transform="translate(-236.000000, -34.000000)" fill="#2AA6FF" fill-rule="nonzero">
            <path d="M246.0035,54.0005715 C240.480643,54.0005715 236.0035,49.5227143 236.0035,43.9998572 C236.0035,38.4770001 240.480643,33.9998572 246.0035,33.9998572 C251.526357,33.9998572 256.0035,38.4770001 256.0035,43.9998572 C256.0035,49.5227143 251.526357,54.0005715 246.0035,54.0005715 Z M246.0035,35.4291429 C241.269928,35.4291429 237.432071,39.2670001 237.432071,44.0005715 C237.432071,48.7341429 241.269928,52.5720001 246.0035,52.5720001 C250.737071,52.5720001 254.574928,48.7341429 254.574928,44.0005715 C254.574928,39.2670001 250.737071,35.4291429 246.0035,35.4291429 Z M249.217786,44.7148572 L245.646357,44.7148572 C245.449214,44.7148572 245.289214,44.5548572 245.289214,44.3577143 L245.289214,43.6434286 L245.289214,43.6427144 L245.289214,37.9291429 C245.289214,37.7320001 245.449214,37.5720001 245.646357,37.5720001 L246.360643,37.5720001 C246.557786,37.5720001 246.717786,37.7320001 246.717786,37.9291429 L246.717786,43.2855715 L249.217786,43.2855715 C249.414928,43.2855715 249.574928,43.4455715 249.574928,43.6427144 L249.574928,44.3577143 C249.574928,44.5548572 249.414928,44.7148572 249.217786,44.7148572 Z" id="形状"></path>
        </g>
    </g>
</svg>