<?xml version="1.0" encoding="UTF-8"?>
<svg width="24px" height="24px" viewBox="0 0 24 24" version="1.1" xmlns="http://www.w3.org/2000/svg" xmlns:xlink="http://www.w3.org/1999/xlink">
    <title>放贷成功</title>
    <g id="金融机构端" stroke="none" stroke-width="1" fill="none" fill-rule="evenodd">
        <g id="02清单管理-清单跟踪-弹窗" transform="translate(-2448.000000, -74.000000)" fill="#70C067" fill-rule="nonzero">
            <g id="放贷成功" transform="translate(2425.000000, 11.000000)">
                <path d="M34.9998153,63.0003387 C41.6269636,63.0003387 46.9996305,68.3723898 46.9996305,74.999846 C46.9996305,81.6273023 41.6269636,87 34.9998153,87 C28.372667,87 23,81.6269328 23,74.9998153 C23,68.3726977 28.3743297,63 34.9998153,63 Z M34.9998153,64.5003156 C29.2006641,64.5003156 24.4999461,69.2010643 24.4999461,75.0001847 C24.4999461,80.7993052 29.2010028,85.5000231 34.9998153,85.5000231 C40.7986278,85.5000231 45.4996844,80.7986585 45.4996844,74.999846 C45.4996844,69.2010335 40.7986278,64.5003156 34.9998153,64.5003156 Z M39.9497544,71.4900263 C40.2413841,71.2041918 40.7080933,71.2041918 40.9997229,71.4900263 C41.1417426,71.6308564 41.2216293,71.8225783 41.2216293,72.0225851 C41.2216293,72.2225919 41.1417426,72.4143138 40.9997229,72.5551439 L40.9997229,72.5551439 L33.5449162,79.9649035 L32.4797678,78.9001247 L28.9999076,75.4515172 C28.8123433,75.255906 28.7433841,74.9750895 28.8190062,74.7148485 C28.8946283,74.4546074 29.1033429,74.2544787 29.3665293,74.1898489 C29.6297157,74.125219 29.9073896,74.2059068 30.0949539,74.401518 L30.0949539,74.401518 L33.4998076,77.8350072 Z"></path>
            </g>
        </g>
    </g>
</svg>