<?xml version="1.0" encoding="UTF-8"?>
<svg width="23px" height="24px" viewBox="0 0 23 24" version="1.1" xmlns="http://www.w3.org/2000/svg" xmlns:xlink="http://www.w3.org/1999/xlink">
    <title>等待反馈</title>
    <g id="金融机构端" stroke="none" stroke-width="1" fill="none" fill-rule="evenodd">
        <g id="04清单管理-清单对接-去反馈" transform="translate(-64.000000, -98.000000)" fill="#F4B649" fill-rule="nonzero">
            <g id="等待认领" transform="translate(42.000000, 35.000000)">
                <path d="M25.9131757,85.6962561 C23.6978727,85.6962561 22,84.5508604 22,81.8338682 L22,66.8931588 C22,65.1782939 23.2291385,63 25.9131757,63 L40.1957348,63 C42.8852275,63 44.0542916,64.906316 44.0542916,66.8931588 L44.0542916,72.0813345 C44.0542916,72.4735642 43.8217694,72.7308383 43.4272593,72.7308383 C43.0327492,72.7308383 42.7554899,72.4758446 42.7554899,72.0813345 L42.7554899,66.8931588 C42.7554899,64.9857739 41.6700802,64.2986236 40.1957348,64.2986236 L25.9131757,64.2986236 C24.1846284,64.2986236 23.3016522,65.814527 23.3016522,66.8931588 L23.3016522,81.8338682 C23.3016522,84.3036582 25.8584459,84.4202518 25.9131757,84.4202518 C25.9496622,84.4202518 27.2438833,84.4202518 29.7958391,84.4202518 C30.1880688,84.4202518 30.4344911,84.6559214 30.4344911,85.0504315 C30.4344911,85.4449417 30.1903492,85.6962561 29.7958391,85.6962561 C28.6842655,85.6962561 27.3900443,85.6962561 25.9131757,85.6962561 Z M27.1891892,66.8918919 L38.8648649,66.8918919 C39.2231036,66.8918919 39.5135135,67.1823018 39.5135135,67.5405405 C39.5135135,67.8987793 39.2231036,68.1891892 38.8648649,68.1891892 L27.1891892,68.1891892 C26.8309504,68.1891892 26.5405405,67.8987793 26.5405405,67.5405405 C26.5405405,67.1823018 26.8309504,66.8918919 27.1891892,66.8918919 Z M27.1891892,72.0810811 L38.8648649,72.0810811 C39.2231036,72.0810811 39.5135135,72.371491 39.5135135,72.7297297 C39.5135135,73.0879685 39.2231036,73.3783784 38.8648649,73.3783784 L27.1891892,73.3783784 C26.8309504,73.3783784 26.5405405,73.0879685 26.5405405,72.7297297 C26.5405405,72.371491 26.8309504,72.0810811 27.1891892,72.0810811 Z M38.8652005,75.3243243 C42.0892182,75.3245097 44.7027027,77.9381444 44.7027027,81.1621622 C44.7027027,84.3861799 42.0892182,86.9998146 38.8652005,87 C36.779462,87.0001199 34.8521088,85.8874605 33.8092049,84.081178 C32.7663011,82.2748954 32.7663011,80.0494289 33.8092049,78.2431464 C34.8521088,76.4368638 36.779462,75.3242044 38.8652005,75.3243243 Z M38.8648649,76.6216216 C36.3571936,76.6216216 34.3243243,78.6544909 34.3243243,81.1621622 C34.3243243,83.6698335 36.3571936,85.7027027 38.8648649,85.7027027 C41.3725362,85.7027027 43.4054054,83.6698335 43.4054054,81.1621622 C43.4054054,78.6544909 41.3725362,76.6216216 38.8648649,76.6216216 Z M38.7165105,77.9189189 C38.9571039,77.9189189 39.1574412,78.1025876 39.1989903,78.3446837 L39.2068965,78.4379639 L39.2068965,80.4016308 L41.2172669,82.3016113 C41.3607263,82.426824 41.4269895,82.6187449 41.3913434,82.8057961 C41.3601082,82.9909235 41.2295922,83.1438719 41.051682,83.2038367 C40.9066184,83.250717 40.750498,83.2224119 40.6287762,83.1318208 L40.5602346,83.070095 L38.3736649,80.9928538 C38.2684256,80.8892475 38.2123969,80.7473757 38.2164186,80.6023315 L38.2261245,80.5152051 L38.2261245,78.4390253 C38.2221248,78.3050096 38.2715566,78.1748995 38.363534,78.0773477 C38.4555115,77.9797959 38.5824914,77.9228026 38.7165105,77.9189189 Z M29.7837838,77.2702703 C30.1420225,77.2702703 30.4324324,77.5606802 30.4324324,77.9189189 C30.4324324,78.2771577 30.1420225,78.5675676 29.7837838,78.5675676 L27.1891892,78.5675676 C26.8309504,78.5675676 26.5405405,78.2771577 26.5405405,77.9189189 C26.5405405,77.5606802 26.8309504,77.2702703 27.1891892,77.2702703 L29.7837838,77.2702703 Z" id="等待反馈"></path>
            </g>
        </g>
    </g>
</svg>