<?xml version="1.0" encoding="UTF-8"?>
<svg width="20px" height="15px" viewBox="0 0 20 15" version="1.1" xmlns="http://www.w3.org/2000/svg" xmlns:xlink="http://www.w3.org/1999/xlink">
    <title>密码</title>
    <g id="金融机构端" stroke="none" stroke-width="1" fill="none" fill-rule="evenodd">
        <g id="05账号绑定" transform="translate(-531.000000, -529.000000)" fill="#A6A6A6" fill-rule="nonzero">
            <g id="编组-5" transform="translate(521.000000, 444.000000)">
                <path d="M27.0833333,85 C28.7083333,85 30,86.2916667 30,87.9166667 L30,97.0833333 C30,98.7083333 28.7083333,100 27.0833333,100 L12.9166667,100 C11.2916667,100 10,98.7083333 10,97.0833333 L10,87.9166667 C10,86.2916667 11.2916667,85 12.9166667,85 L27.0833333,85 Z M27.0833333,85.9902344 L13.1044922,85.9902344 C12.0175781,85.9902344 11.0469971,86.8540039 11.0469971,88.0760498 L11.0469971,97.0833333 C11.0469971,97.7916667 11.8928223,99.0439453 13.1044922,99.0439453 L27.0833333,99.0439453 C28.0136719,99.0439453 28.9810791,98.1519775 28.9810791,97.0833333 L28.9810791,88.0760498 C28.9810791,86.902832 28.03125,85.9902344 27.0833333,85.9902344 Z M15.2916667,90.7916667 C16.1666667,90.7916667 16.875,91.5 16.875,92.375 L16.875,92.5833333 C16.875,93.4583333 16.1666667,94.1666667 15.2916667,94.1666667 L15.0833333,94.1666667 C14.2083333,94.1666667 13.5,93.4583333 13.5,92.5833333 L13.5,92.375 C13.5,91.5 14.2083333,90.7916667 15.0833333,90.7916667 L15.2916667,90.7916667 Z M20,90.8333333 C20.9166667,90.8333333 21.6666667,91.5833333 21.6666667,92.5 C21.6666667,93.4166667 20.9166667,94.1666667 20,94.1666667 C19.0833333,94.1666667 18.3333333,93.4166667 18.3333333,92.5 C18.3333333,91.5833333 19.0833333,90.8333333 20,90.8333333 Z M24.7916667,90.8333333 C25.7083333,90.8333333 26.4583333,91.5833333 26.4583333,92.5 C26.4583333,93.4166667 25.7083333,94.1666667 24.7916667,94.1666667 C23.875,94.1666667 23.125,93.4166667 23.125,92.5 C23.125,91.5833333 23.875,90.8333333 24.7916667,90.8333333 Z" id="密码"></path>
            </g>
        </g>
    </g>
</svg>