<?xml version="1.0" encoding="UTF-8"?>
<svg width="20px" height="20px" viewBox="0 0 20 20" version="1.1" xmlns="http://www.w3.org/2000/svg" xmlns:xlink="http://www.w3.org/1999/xlink">
    <title>账号</title>
    <g id="金融机构端" stroke="none" stroke-width="1" fill="none" fill-rule="evenodd">
        <g id="05账号绑定" transform="translate(-531.000000, -458.000000)" fill="#A6A6A6" fill-rule="nonzero">
            <g id="编组-5" transform="translate(521.000000, 444.000000)">
                <path d="M19.8824206,14 C25.3315693,14 29.7648412,18.485734 29.7648412,24 C29.7648412,29.514266 25.3315693,34 19.8824206,34 C14.433272,34 10,29.514266 10,24 C10,18.485734 14.433272,14 19.8824206,14 Z M20.1536379,27.3446575 L20.1163472,27.348039 C20.0560522,27.3514632 19.9953187,27.3531983 19.9341924,27.3531983 L19.7758859,27.3531983 C19.7082712,27.3531983 19.6411373,27.3510749 19.5745458,27.3468906 C17.4357079,27.4697159 15.598944,28.9104151 14.8824503,31.0324987 C16.2900112,32.0605975 18.0175463,32.6668201 19.8824206,32.6668201 C21.7420107,32.6668201 23.4650388,32.0640281 24.870735,31.0414056 C24.1600537,28.9384814 22.2774451,27.4638197 20.1536379,27.3446575 Z M19.8824206,15.3331799 C15.1596871,15.3331799 11.3177635,19.2211229 11.3177635,24 C11.3177635,26.3846114 12.2743676,28.5473883 13.8196753,30.1159705 C14.5445881,28.387721 15.8946555,27.0782115 17.5439749,26.4381315 C16.9384441,25.847769 16.5609756,25.0175664 16.5609756,24.0998619 L16.5609756,22.161988 C16.5609756,20.3681546 18.0032214,18.9086516 19.7758859,18.9086516 L19.9341924,18.9086516 C21.7068569,18.9086516 23.1491026,20.3681546 23.1491026,22.161988 L23.1491026,24.0998619 C23.1491026,25.01667 22.7724678,25.8460492 22.1675726,26.4379364 C23.827056,27.0825117 25.2060295,28.4084868 25.9336362,30.1260715 C27.485984,28.5575258 28.4470778,26.3902007 28.4470778,24 C28.4470778,19.2211229 24.6051542,15.3331799 19.8824206,15.3331799 Z M19.9341924,20.2420617 L19.7758859,20.2420617 C18.7296364,20.2420617 17.878509,21.1033134 17.878509,22.161988 L17.878509,24.0998619 C17.878509,25.0956072 18.6314588,25.9167022 19.5915194,26.0107985 C19.6853762,26.0055163 19.7801261,26.0034514 19.8752876,26.0034514 C19.960034,26.0034514 20.0445264,26.0051739 20.1287281,26.0085904 C21.0838683,25.9109662 21.8315693,25.0921304 21.8315693,24.0998619 L21.8315693,22.161988 C21.8315693,21.1033134 20.9804418,20.2420617 19.9341924,20.2420617 Z" id="账号"></path>
            </g>
        </g>
    </g>
</svg>