<?xml version="1.0" encoding="UTF-8"?>
<svg width="348px" height="228px" viewBox="0 0 348 228" version="1.1" xmlns="http://www.w3.org/2000/svg" xmlns:xlink="http://www.w3.org/1999/xlink">
    <title>403</title>
    <defs>
        <linearGradient x1="50%" y1="0%" x2="50%" y2="92.1298574%" id="linearGradient-1">
            <stop stop-color="#DBE7FC" offset="0%"></stop>
            <stop stop-color="#FFFFFF" stop-opacity="0" offset="100%"></stop>
        </linearGradient>
        <linearGradient x1="50%" y1="1.8054826e-07%" x2="50%" y2="50%" id="linearGradient-2">
            <stop stop-color="#EBF3FF" offset="0%"></stop>
            <stop stop-color="#C8DBFF" offset="100%"></stop>
        </linearGradient>
        <linearGradient x1="50%" y1="0%" x2="50%" y2="100%" id="linearGradient-3">
            <stop stop-color="#E2ECFF" offset="0%"></stop>
            <stop stop-color="#B4CDFF" offset="100%"></stop>
        </linearGradient>
        <linearGradient x1="75.5565043%" y1="86.9662266%" x2="31.2523793%" y2="1.65021303%" id="linearGradient-4">
            <stop stop-color="#7AA7FF" offset="0%"></stop>
            <stop stop-color="#B8D0FF" offset="100%"></stop>
        </linearGradient>
        <linearGradient x1="50%" y1="100%" x2="50%" y2="7.10542736e-13%" id="linearGradient-5">
            <stop stop-color="#AEC9FF" offset="0%"></stop>
            <stop stop-color="#E6EFFF" offset="100%"></stop>
        </linearGradient>
    </defs>
    <g id="组件库" stroke="none" stroke-width="1" fill="none" fill-rule="evenodd">
        <g id="05缺省页面" transform="translate(-1175.000000, -1605.000000)">
            <g id="2" transform="translate(629.000000, 1248.000000)">
                <g id="403" transform="translate(546.000000, 357.000000)">
                    <path d="M348,192 C348,144.779654 270.097546,106.5 174,106.5 C77.9024535,106.5 0,144.779654 0,192 C0,239.220346 348,239.220346 348,192 Z" id="椭圆形备份" fill="url(#linearGradient-1)" fill-rule="nonzero"></path>
                    <g id="树1" transform="translate(28.000000, 103.000000)">
                        <line x1="15.5" y1="37.625" x2="15.5" y2="56.375" id="直线" stroke="#D0E1FF" stroke-width="4" stroke-linecap="round"></line>
                        <path d="M14.9944839,0 C3.62375849,11.9375359 -1.2799189,21.0162125 0.283451695,27.2360296 C2.62850759,36.5657553 11.9609773,38.0001359 14.2676596,38.0001359 C16.5743418,38.0001359 30,38.1771222 30,25.7417656 C30,17.4515279 24.9981613,8.87093935 14.9944839,0 Z" id="路径-15" fill="#E2ECFF" fill-rule="nonzero"></path>
                    </g>
                    <g id="树2" transform="translate(283.000000, 110.000000)">
                        <line x1="10.5" y1="26.4375" x2="10.5" y2="39.5625" id="直线" stroke="#D0E1FF" stroke-width="4" stroke-linecap="round"></line>
                        <path d="M10.4961387,0 C2.53663095,8.48193342 -0.895943231,14.932572 0.198416187,19.3519158 C1.83995531,25.9809314 8.37268411,27.0000965 9.98736169,27.0000965 C11.6020393,27.0000965 21,27.12585 21,18.2902019 C21,12.3997698 17.4987129,6.30303586 10.4961387,0 Z" id="路径-15" fill="#E2ECFF" fill-rule="nonzero"></path>
                    </g>
                    <g id="树3" transform="translate(318.000000, 135.000000)">
                        <line x1="7.5" y1="19.34375" x2="7.5" y2="29.65625" id="直线" stroke="#D0E1FF" stroke-width="4" stroke-linecap="round"></line>
                        <path d="M7.99705807,0 C1.9326712,6.28291365 -0.682623414,11.0611645 0.151174238,14.3347524 C1.40187071,19.2451344 6.3791879,20.0000715 7.60941843,20.0000715 C8.83964897,20.0000715 16,20.0932222 16,13.5482977 C16,9.18501468 13.3323527,4.66891545 7.99705807,0 Z" id="路径-15" fill="#E2ECFF" fill-rule="nonzero"></path>
                    </g>
                    <g id="图" transform="translate(71.000000, 22.000000)">
                        <path d="M19.4975248,0 L184.502475,0 C189.195529,0 193,3.81708963 193,8.52570826 L193,121.474291 C193,126.18291 189.195529,130 184.502475,130 L19.4975248,130 C14.8044712,130 11,126.18291 11,121.474291 L11,8.49160551 C11.018719,3.79631029 14.8177127,0 19.4975248,0 L19.4975248,0 Z" id="路径" fill="url(#linearGradient-2)" fill-rule="nonzero"></path>
                        <path d="M25.3506962,10 L181.581019,10 C183.46927,10 185,11.5283588 185,13.4136847 L185,124 L22,124 L22,13.4307531 C21.9903788,11.5651366 23.482533,10.0372876 25.3506962,10 Z" id="路径" fill="#F2F6FF" fill-rule="nonzero"></path>
                        <path d="M0,121 L206,121 C205.902601,123.758872 204.770587,126.363253 202.853969,128.237948 C200.93735,130.112644 198.393818,131.103416 195.785123,130.991444 L10.2148755,130.991444 C4.7851311,131.214528 0.212128704,126.741551 0,121 L0,121 Z" id="路径" fill="url(#linearGradient-3)" fill-rule="nonzero"></path>
                        <path d="M69,123 L131,123 C131,125.751479 129.089684,128 126.752957,128 L73.2470426,128 C70.9103163,127.926036 69,125.677514 69,123 Z" id="路径" fill="#9DBEFF" fill-rule="nonzero"></path>
                        <path d="M169.210858,18.665496 C172.342313,18.665496 174.880858,21.2040414 174.880858,24.335496 L174.880858,51.1335334 C174.880858,54.264988 172.342313,56.8035334 169.210858,56.8035334 L39.5550533,56.8035334 C36.4235988,56.8035334 33.8850533,54.264988 33.8850533,51.1335334 L33.8850533,24.335496 C33.8850533,21.2040414 36.4235988,18.665496 39.5550533,18.665496 L169.210858,18.665496 Z M132.819871,40.8998864 L81.4606041,40.8998864 C80.4996286,40.8998864 79.7206041,41.678911 79.7206041,42.6398864 L79.7206041,42.6398864 L79.7206041,45.183478 C79.7206041,46.1444535 80.4996286,46.923478 81.4606041,46.923478 L81.4606041,46.923478 L132.819871,46.923478 C133.780846,46.923478 134.559871,46.1444535 134.559871,45.183478 L134.559871,45.183478 L134.559871,42.6398864 C134.559871,41.678911 133.780846,40.8998864 132.819871,40.8998864 L132.819871,40.8998864 Z M160.818193,30.6614872 L80.5755508,30.6614872 C79.6145753,30.6614872 78.8355508,31.4405117 78.8355508,32.4014872 L78.8355508,32.4014872 L78.8355508,34.9450788 C78.8355508,35.9060542 79.6145753,36.6850788 80.5755508,36.6850788 L80.5755508,36.6850788 L160.818193,36.6850788 C161.779168,36.6850788 162.558193,35.9060542 162.558193,34.9450788 L162.558193,34.9450788 L162.558193,32.4014872 C162.558193,31.4405117 161.779168,30.6614872 160.818193,30.6614872 L160.818193,30.6614872 Z" id="形状结合" fill="#E2EBFF" fill-rule="nonzero"></path>
                        <text id="403" font-family="Consolas-Bold, Consolas" font-size="60" font-weight="bold" letter-spacing="3.33333333" fill="#CDDEFF">
                            <tspan x="33.0175781" y="107">403</tspan>
                        </text>
                        <g id="编组" transform="translate(138.000000, 44.000000)" fill-rule="nonzero">
                            <path d="M83.0301278,14.4822398 C81.7776542,13.4216187 80.1835883,12.8443405 78.5388185,12.855749 L78.0660485,12.855749 C78.0660485,12.855749 76.9235224,12.855749 75.2885276,12.855749 C70.8990865,12.8698346 66.5207337,12.4165385 62.2282733,11.5036055 C55.7276943,10.0730771 48.2027803,3.33195649 45.9965232,1.97981299 C44.8958482,1.34210067 43.6456966,1.00415164 42.3719588,1 C41.0999381,1.0165697 39.8529031,1.35367649 38.7473931,1.97981299 C38.4716106,2.17577672 30.6512168,9.81832537 22.9884129,11.5036055 C18.6619752,12.4121969 14.2514457,12.8654064 9.8296635,12.855749 C8.11587508,12.855749 7.052144,12.855749 6.973349,12.855749 L6.579374,12.855749 C4.93763158,12.8273681 3.34389433,13.4070695 2.10776342,14.4822398 C0.794682,15.526657 0.0212131667,17.1015032 0,18.7738251 L0,33.6865933 C0,88.5561772 39.5944379,95.6892224 41.209734,95.963571 C41.5890762,96.011115 41.9729164,96.011115 42.3522601,95.963571 C42.7381289,96.0121416 43.1286147,96.0121416 43.5144849,95.963571 C45.2282733,95.6892224 85,88.6149666 85,33.6865933 L85,18.7738251 C84.974483,17.1324406 84.260262,15.5764299 83.0301278,14.4822398 L83.0301278,14.4822398 Z" id="路径" fill="#7DA6F6"></path>
                            <path d="M87.0301278,13.4822398 C85.7776542,12.4216187 84.1835883,11.8443405 82.5388185,11.855749 L82.0660485,11.855749 C82.0660485,11.855749 80.9235224,11.855749 79.2885276,11.855749 C74.8990865,11.8698346 70.5207337,11.4165385 66.2282733,10.5036055 C59.7276943,9.07307709 52.2027803,2.33195649 49.9965232,0.979812985 C48.8958482,0.342100672 47.6456966,0.00415164179 46.3719588,0 C45.0999381,0.0165697015 43.8529031,0.353676493 42.7473931,0.979812985 C42.4716106,1.17577672 34.6512168,8.81832537 26.9884129,10.5036055 C22.6619752,11.4121969 18.2514457,11.8654064 13.8296635,11.855749 C12.1158751,11.855749 11.052144,11.855749 10.973349,11.855749 L10.579374,11.855749 C8.93763158,11.8273681 7.34389433,12.4070695 6.10776342,13.4822398 C4.794682,14.526657 4.02121317,16.1015032 4,17.7738251 L4,32.6865933 C4,87.5561772 43.5944379,94.6892224 45.209734,94.963571 C45.5890762,95.011115 45.9729164,95.011115 46.3522601,94.963571 C46.7381289,95.0121416 47.1286147,95.0121416 47.5144849,94.963571 C49.2282733,94.6892224 89,87.6149666 89,32.6865933 L89,17.7738251 C88.974483,16.1324406 88.260262,14.5764299 87.0301278,13.4822398 L87.0301278,13.4822398 Z" id="路径" fill="url(#linearGradient-4)"></path>
                            <path d="M62.1207627,36.2187883 L59.3676991,36.2187883 L59.3676991,32.2036927 C59.1138607,25.8790166 54.0531761,20.8860137 47.8966048,20.8860137 C41.7400336,20.8860137 36.6793489,25.8790166 36.4255106,32.2036927 L36.4255106,36.2187883 L33.672447,36.2187883 C30.9702318,36.2297913 28.7823063,38.47937 28.7716048,41.2577329 L28.7716048,62.6381139 C28.7823063,65.4164754 30.9702318,67.6660555 33.672447,67.6770585 L62.1207627,67.6770585 C64.8229778,67.6660555 67.0109033,65.4164754 67.0216048,62.6381139 L67.0216048,41.2778077 C67.0216048,38.4916094 64.8305782,36.2298437 62.1207627,36.2187883 L62.1207627,36.2187883 Z M49.8427407,52.8115549 L49.8427407,57.2370604 C49.8427407,58.3043699 48.9925778,59.1695958 47.9438478,59.1695958 C46.8951178,59.1695958 46.0449535,58.3043699 46.0449535,57.2370604 L46.0449535,52.8115549 C44.9964785,52.1638038 44.3558817,51.0064188 44.3549382,49.7581486 C44.4908971,47.8698052 46.0359279,46.4084018 47.8963753,46.4084018 C49.7568213,46.4084018 51.3018536,47.8698052 51.4378111,49.7581486 C51.4573186,50.9873564 50.8549037,52.1405472 49.8427407,52.8115549 L49.8427407,52.8115549 Z M55.6782953,36.4830287 L40.1149143,36.4830287 L40.1149143,32.3112908 C39.9696182,29.2953244 41.4202041,26.440858 43.8877314,24.8871301 C46.3552602,23.3334023 49.4379495,23.3334023 51.9054782,24.8871301 C54.3730056,26.440858 55.8235915,29.2953244 55.6782953,32.3112908 L55.6782953,36.4830287 Z" id="形状" fill="url(#linearGradient-5)"></path>
                            <path d="M60.1207627,36.2187883 L57.3676991,36.2187883 L57.3676991,32.2036927 C57.1138607,25.8790166 52.0531761,20.8860137 45.8966048,20.8860137 C39.7400336,20.8860137 34.6793489,25.8790166 34.4255106,32.2036927 L34.4255106,36.2187883 L31.672447,36.2187883 C28.9702318,36.2297913 26.7823063,38.47937 26.7716048,41.2577329 L26.7716048,62.6381139 C26.7823063,65.4164754 28.9702318,67.6660555 31.672447,67.6770585 L60.1207627,67.6770585 C62.8229778,67.6660555 65.0109033,65.4164754 65.0216048,62.6381139 L65.0216048,41.2778077 C65.0216048,38.4916094 62.8305782,36.2298437 60.1207627,36.2187883 L60.1207627,36.2187883 Z M47.8427407,52.8115549 L47.8427407,57.2370604 C47.8427407,58.3043699 46.9925778,59.1695958 45.9438478,59.1695958 C44.8951178,59.1695958 44.0449535,58.3043699 44.0449535,57.2370604 L44.0449535,52.8115549 C42.9964785,52.1638038 42.3558817,51.0064188 42.3549382,49.7581486 C42.4908971,47.8698052 44.0359279,46.4084018 45.8963753,46.4084018 C47.7568213,46.4084018 49.3018536,47.8698052 49.4378111,49.7581486 C49.4573186,50.9873564 48.8549037,52.1405472 47.8427407,52.8115549 L47.8427407,52.8115549 Z M53.6782953,36.4830287 L38.1149143,36.4830287 L38.1149143,32.3112908 C37.9696182,29.2953244 39.4202041,26.440858 41.8877314,24.8871301 C44.3552602,23.3334023 47.4379495,23.3334023 49.9054782,24.8871301 C52.3730056,26.440858 53.8235915,29.2953244 53.6782953,32.3112908 L53.6782953,36.4830287 Z" id="形状" fill="#FFFFFF"></path>
                        </g>
                    </g>
                </g>
            </g>
        </g>
    </g>
</svg>