<?xml version="1.0" encoding="UTF-8"?>
<svg width="348px" height="263px" viewBox="0 0 348 263" version="1.1" xmlns="http://www.w3.org/2000/svg" xmlns:xlink="http://www.w3.org/1999/xlink">
    <title>404</title>
    <defs>
        <linearGradient x1="50%" y1="0%" x2="50%" y2="92.1298574%" id="linearGradient-1">
            <stop stop-color="#DBE7FC" offset="0%"></stop>
            <stop stop-color="#FFFFFF" stop-opacity="0" offset="100%"></stop>
        </linearGradient>
        <linearGradient x1="50%" y1="0%" x2="50%" y2="100%" id="linearGradient-2">
            <stop stop-color="#B4CDFF" offset="0%"></stop>
            <stop stop-color="#E2ECFF" offset="100%"></stop>
        </linearGradient>
        <linearGradient x1="50%" y1="1.8054826e-07%" x2="50%" y2="50%" id="linearGradient-3">
            <stop stop-color="#EBF3FF" offset="0%"></stop>
            <stop stop-color="#C8DBFF" offset="100%"></stop>
        </linearGradient>
        <linearGradient x1="50%" y1="0%" x2="50%" y2="100%" id="linearGradient-4">
            <stop stop-color="#B4CDFF" offset="0%"></stop>
            <stop stop-color="#E2ECFF" offset="100%"></stop>
        </linearGradient>
        <linearGradient x1="50%" y1="48.5135162%" x2="47.6845985%" y2="54.2217289%" id="linearGradient-5">
            <stop stop-color="#FFFFFF" offset="0%"></stop>
            <stop stop-color="#F7F7F7" offset="100%"></stop>
        </linearGradient>
        <linearGradient x1="50%" y1="35.8220106%" x2="45.5572901%" y2="59.0487823%" id="linearGradient-6">
            <stop stop-color="#DFE9FF" offset="0%"></stop>
            <stop stop-color="#DCE8FF" stop-opacity="0" offset="100%"></stop>
        </linearGradient>
    </defs>
    <g id="组件库" stroke="none" stroke-width="1" fill="none" fill-rule="evenodd">
        <g id="05缺省页面" transform="translate(-1175.000000, -388.000000)">
            <g id="1" transform="translate(629.000000, 66.000000)">
                <g id="404" transform="translate(546.000000, 322.000000)">
                    <path d="M348,227 C348,179.779654 270.097546,141.5 174,141.5 C77.9024535,141.5 0,179.779654 0,227 C0,274.220346 348,274.220346 348,227 Z" id="椭圆形备份" fill="url(#linearGradient-1)" fill-rule="nonzero"></path>
                    <g id="树1" transform="translate(28.000000, 138.000000)">
                        <line x1="15.5" y1="37.625" x2="15.5" y2="56.375" id="直线" stroke="#D0E1FF" stroke-width="4" stroke-linecap="round"></line>
                        <path d="M14.9944839,0 C3.62375849,11.9375359 -1.2799189,21.0162125 0.283451695,27.2360296 C2.62850759,36.5657553 11.9609773,38.0001359 14.2676596,38.0001359 C16.5743418,38.0001359 30,38.1771222 30,25.7417656 C30,17.4515279 24.9981613,8.87093935 14.9944839,0 Z" id="路径-15" fill="#E2ECFF" fill-rule="nonzero"></path>
                    </g>
                    <g id="树2" transform="translate(283.000000, 145.000000)">
                        <line x1="10.5" y1="26.4375" x2="10.5" y2="39.5625" id="直线" stroke="#D0E1FF" stroke-width="4" stroke-linecap="round"></line>
                        <path d="M10.4961387,0 C2.53663095,8.48193342 -0.895943231,14.932572 0.198416187,19.3519158 C1.83995531,25.9809314 8.37268411,27.0000965 9.98736169,27.0000965 C11.6020393,27.0000965 21,27.12585 21,18.2902019 C21,12.3997698 17.4987129,6.30303586 10.4961387,0 Z" id="路径-15" fill="#E2ECFF" fill-rule="nonzero"></path>
                    </g>
                    <g id="树3" transform="translate(318.000000, 170.000000)">
                        <line x1="7.5" y1="19.34375" x2="7.5" y2="29.65625" id="直线" stroke="#D0E1FF" stroke-width="4" stroke-linecap="round"></line>
                        <path d="M7.99705807,0 C1.9326712,6.28291365 -0.682623414,11.0611645 0.151174238,14.3347524 C1.40187071,19.2451344 6.3791879,20.0000715 7.60941843,20.0000715 C8.83964897,20.0000715 16,20.0932222 16,13.5482977 C16,9.18501468 13.3323527,4.66891545 7.99705807,0 Z" id="路径-15" fill="#E2ECFF" fill-rule="nonzero"></path>
                    </g>
                    <g id="编组-3" transform="translate(159.031906, 121.429114) rotate(-15.000000) translate(-159.031906, -121.429114) translate(50.031906, 25.429114)" fill-rule="nonzero">
                        <path d="M123.314138,0.0694423309 C126.260092,0.0694423309 128.64826,2.46347053 128.64826,5.41665398 C128.64826,8.00334231 126.816063,10.161048 124.381662,10.6567597 L124.380963,18.2499619 L122.247314,18.2499619 L122.247231,10.6568852 C119.812523,10.1614122 117.980017,8.00356066 117.980017,5.41665398 C117.980017,2.46347053 120.368185,0.0694423309 123.314138,0.0694423309 Z" id="形状结合" fill="url(#linearGradient-2)"></path>
                        <ellipse id="椭圆形" fill="url(#linearGradient-3)" cx="123.314138" cy="51.4026742" rx="44.8066179" ry="37.4304816"></ellipse>
                        <ellipse id="椭圆形" fill="url(#linearGradient-4)" cx="123.314138" cy="75.9998478" rx="91.7468844" ry="32.0832699"></ellipse>
                        <path d="M191.326396,81.5382931 C191.418938,79.7688131 194.069578,78.4697418 197.246852,78.6366025 C200.424125,78.8034632 202.924849,80.3732922 202.832308,82.1427722 C202.739767,83.9122521 200.089126,85.2113234 196.911852,85.0444627 C193.734579,84.8776019 191.233855,83.307773 191.326396,81.5382931 Z M56.3005063,76.3216048 C59.458421,75.9329101 62.1929649,77.0435305 62.4084563,78.8022233 C62.6239477,80.5609162 60.2385001,82.3017354 57.0805854,82.6904301 C53.9226707,83.0791248 51.1881268,81.9685043 50.9726355,80.2098116 C50.7571441,78.4511187 53.1425917,76.7102995 56.3005063,76.3216048 Z M144.663782,65.8711343 C144.818018,62.9220011 149.235753,60.7568821 154.531208,61.0349834 C159.826662,61.3130845 163.994537,63.9294662 163.840301,66.8785994 C163.686064,69.8277326 159.26833,71.9928516 153.972875,71.7147503 C148.67742,71.4366491 144.509545,68.8202675 144.663782,65.8711343 Z M98.4980146,58.8960987 C103.79347,58.6179974 108.211204,60.7831164 108.365441,63.7322496 C108.519677,66.6813828 104.351802,69.2977644 99.0563472,69.5758656 C93.7608923,69.8539669 89.3431573,67.688848 89.1889212,64.7397147 C89.034685,61.7905815 93.2025596,59.1741999 98.4980146,58.8960987 Z" id="形状结合" fill="url(#linearGradient-5)"></path>
                        <ellipse id="椭圆形复制-6" fill="#FFFFFF" cx="123.314138" cy="85.6248287" rx="48.9316717" ry="11.7638657"></ellipse>
                        <path d="M83.0490022,81.771058 L0.899556847,158.369982 C55.2614123,173.203314 158.994835,198.73927 217.065963,189.054935 C217.341576,189.109979 198.16435,142.097012 164.655625,81.8880581 C148.62009,78.089157 134.94202,76.1538654 123.621418,76.0821831 C112.300815,76.0105007 98.7766762,77.9067924 83.0490022,81.771058 Z" id="路径-2" fill="url(#linearGradient-6)"></path>
                    </g>
                    <path d="M139.167969,212 L139.167969,200.310547 L147.869141,200.310547 L147.869141,190.862305 L139.167969,190.862305 L139.167969,154.563477 L124.402344,154.563477 L101.990234,191.125977 L101.990234,200.310547 L128.708984,200.310547 L128.708984,212 L139.167969,212 Z M128.84082,190.862305 L112.493164,190.862305 L128.84082,164.93457 L128.84082,190.862305 Z M178.884766,213.010742 C182.546875,213.010742 185.798828,212.336914 188.640625,210.989258 C191.482422,209.641602 193.89209,207.686035 195.869629,205.122559 C197.847168,202.559082 199.348633,199.416992 200.374023,195.696289 C201.399414,191.975586 201.912109,187.756836 201.912109,183.040039 C201.912109,177.825195 201.370117,173.357422 200.286133,169.636719 C199.202148,165.916016 197.700684,162.869141 195.781738,160.496094 C193.862793,158.123047 191.570312,156.379883 188.904297,155.266602 C186.238281,154.15332 183.323242,153.59668 180.15918,153.59668 C176.526367,153.59668 173.274414,154.270508 170.40332,155.618164 C167.532227,156.96582 165.115234,158.921387 163.152344,161.484863 C161.189453,164.04834 159.687988,167.19043 158.647949,170.911133 C157.60791,174.631836 157.087891,178.850586 157.087891,183.567383 C157.087891,188.75293 157.629883,193.206055 158.713867,196.926758 C159.797852,200.647461 161.306641,203.70166 163.240234,206.089355 C165.173828,208.477051 167.473633,210.227539 170.139648,211.34082 C172.805664,212.454102 175.720703,213.010742 178.884766,213.010742 Z M167.986328,186.423828 C167.927734,185.896484 167.898438,185.376465 167.898438,184.86377 L167.898438,184.86377 L167.898438,183.21582 C167.898438,179.641602 168.19873,176.550781 168.799316,173.943359 C169.399902,171.335938 170.220215,169.167969 171.260254,167.439453 C172.300293,165.710938 173.523438,164.429199 174.929688,163.594238 C176.335938,162.759277 177.859375,162.341797 179.5,162.341797 C181.785156,162.341797 183.77002,163.037598 185.45459,164.429199 C187.13916,165.820801 188.494141,167.966797 189.519531,170.867188 L189.519531,170.867188 L167.986328,186.423828 Z M179.5,204.265625 C177.244141,204.265625 175.266602,203.577148 173.567383,202.200195 C171.868164,200.823242 170.549805,198.713867 169.612305,195.87207 L169.612305,195.87207 L191.013672,180.40332 C191.013672,180.87207 191.02832,181.362793 191.057617,181.875488 C191.086914,182.388184 191.101562,182.893555 191.101562,183.391602 C191.101562,186.936523 190.808594,190.02002 190.222656,192.64209 C189.636719,195.26416 188.82373,197.432129 187.783691,199.145996 C186.743652,200.859863 185.513184,202.141602 184.092285,202.991211 C182.671387,203.84082 181.140625,204.265625 179.5,204.265625 Z M248.132812,212 L248.132812,200.310547 L256.833984,200.310547 L256.833984,190.862305 L248.132812,190.862305 L248.132812,154.563477 L233.367188,154.563477 L210.955078,191.125977 L210.955078,200.310547 L237.673828,200.310547 L237.673828,212 L248.132812,212 Z M237.805664,190.862305 L221.458008,190.862305 L237.805664,164.93457 L237.805664,190.862305 Z" fill="#799BDE" fill-rule="nonzero"></path>
                    <path d="M144.167969,212 L144.167969,200.310547 L152.869141,200.310547 L152.869141,190.862305 L144.167969,190.862305 L144.167969,154.563477 L129.402344,154.563477 L106.990234,191.125977 L106.990234,200.310547 L133.708984,200.310547 L133.708984,212 L144.167969,212 Z M133.84082,190.862305 L117.493164,190.862305 L133.84082,164.93457 L133.84082,190.862305 Z M183.884766,213.010742 C187.546875,213.010742 190.798828,212.336914 193.640625,210.989258 C196.482422,209.641602 198.89209,207.686035 200.869629,205.122559 C202.847168,202.559082 204.348633,199.416992 205.374023,195.696289 C206.399414,191.975586 206.912109,187.756836 206.912109,183.040039 C206.912109,177.825195 206.370117,173.357422 205.286133,169.636719 C204.202148,165.916016 202.700684,162.869141 200.781738,160.496094 C198.862793,158.123047 196.570312,156.379883 193.904297,155.266602 C191.238281,154.15332 188.323242,153.59668 185.15918,153.59668 C181.526367,153.59668 178.274414,154.270508 175.40332,155.618164 C172.532227,156.96582 170.115234,158.921387 168.152344,161.484863 C166.189453,164.04834 164.687988,167.19043 163.647949,170.911133 C162.60791,174.631836 162.087891,178.850586 162.087891,183.567383 C162.087891,188.75293 162.629883,193.206055 163.713867,196.926758 C164.797852,200.647461 166.306641,203.70166 168.240234,206.089355 C170.173828,208.477051 172.473633,210.227539 175.139648,211.34082 C177.805664,212.454102 180.720703,213.010742 183.884766,213.010742 Z M172.986328,186.423828 C172.927734,185.896484 172.898438,185.376465 172.898438,184.86377 L172.898438,184.86377 L172.898438,183.21582 C172.898438,179.641602 173.19873,176.550781 173.799316,173.943359 C174.399902,171.335938 175.220215,169.167969 176.260254,167.439453 C177.300293,165.710938 178.523438,164.429199 179.929688,163.594238 C181.335938,162.759277 182.859375,162.341797 184.5,162.341797 C186.785156,162.341797 188.77002,163.037598 190.45459,164.429199 C192.13916,165.820801 193.494141,167.966797 194.519531,170.867188 L194.519531,170.867188 L172.986328,186.423828 Z M184.5,204.265625 C182.244141,204.265625 180.266602,203.577148 178.567383,202.200195 C176.868164,200.823242 175.549805,198.713867 174.612305,195.87207 L174.612305,195.87207 L196.013672,180.40332 C196.013672,180.87207 196.02832,181.362793 196.057617,181.875488 C196.086914,182.388184 196.101562,182.893555 196.101562,183.391602 C196.101562,186.936523 195.808594,190.02002 195.222656,192.64209 C194.636719,195.26416 193.82373,197.432129 192.783691,199.145996 C191.743652,200.859863 190.513184,202.141602 189.092285,202.991211 C187.671387,203.84082 186.140625,204.265625 184.5,204.265625 Z M253.132812,212 L253.132812,200.310547 L261.833984,200.310547 L261.833984,190.862305 L253.132812,190.862305 L253.132812,154.563477 L238.367188,154.563477 L215.955078,191.125977 L215.955078,200.310547 L242.673828,200.310547 L242.673828,212 L253.132812,212 Z M242.805664,190.862305 L226.458008,190.862305 L242.805664,164.93457 L242.805664,190.862305 Z" fill="#9DBEFF" fill-rule="nonzero"></path>
                </g>
            </g>
        </g>
    </g>
</svg>