<?xml version="1.0" encoding="UTF-8"?>
<svg width="348px" height="228px" viewBox="0 0 348 228" version="1.1" xmlns="http://www.w3.org/2000/svg" xmlns:xlink="http://www.w3.org/1999/xlink">
    <title>500</title>
    <defs>
        <linearGradient x1="50%" y1="0%" x2="50%" y2="92.1298574%" id="linearGradient-1">
            <stop stop-color="#DBE7FC" offset="0%"></stop>
            <stop stop-color="#FFFFFF" stop-opacity="0" offset="100%"></stop>
        </linearGradient>
        <linearGradient x1="50%" y1="0%" x2="50%" y2="100%" id="linearGradient-2">
            <stop stop-color="#E2EBFF" offset="0%"></stop>
            <stop stop-color="#E2ECFF" offset="100%"></stop>
        </linearGradient>
        <linearGradient x1="81.9235219%" y1="71.9172758%" x2="26.5816923%" y2="21.3334113%" id="linearGradient-3">
            <stop stop-color="#7AA7FF" offset="0%"></stop>
            <stop stop-color="#B8D0FF" offset="100%"></stop>
        </linearGradient>
        <linearGradient x1="50%" y1="100%" x2="50%" y2="7.10542736e-13%" id="linearGradient-4">
            <stop stop-color="#AEC9FF" offset="0%"></stop>
            <stop stop-color="#E6EFFF" offset="100%"></stop>
        </linearGradient>
    </defs>
    <g id="组件库" stroke="none" stroke-width="1" fill="none" fill-rule="evenodd">
        <g id="05缺省页面" transform="translate(-1175.000000, -2787.000000)">
            <g id="3" transform="translate(629.000000, 2430.000000)">
                <g id="500" transform="translate(546.000000, 357.000000)">
                    <path d="M348,192 C348,144.779654 270.097546,106.5 174,106.5 C77.9024535,106.5 0,144.779654 0,192 C0,239.220346 348,239.220346 348,192 Z" id="椭圆形备份" fill="url(#linearGradient-1)" fill-rule="nonzero"></path>
                    <g id="树1" transform="translate(28.000000, 103.000000)">
                        <line x1="15.5" y1="37.625" x2="15.5" y2="56.375" id="直线" stroke="#D0E1FF" stroke-width="4" stroke-linecap="round"></line>
                        <path d="M14.9944839,0 C3.62375849,11.9375359 -1.2799189,21.0162125 0.283451695,27.2360296 C2.62850759,36.5657553 11.9609773,38.0001359 14.2676596,38.0001359 C16.5743418,38.0001359 30,38.1771222 30,25.7417656 C30,17.4515279 24.9981613,8.87093935 14.9944839,0 Z" id="路径-15" fill="#E2ECFF" fill-rule="nonzero"></path>
                    </g>
                    <g id="树2" transform="translate(283.000000, 110.000000)">
                        <line x1="10.5" y1="26.4375" x2="10.5" y2="39.5625" id="直线" stroke="#D0E1FF" stroke-width="4" stroke-linecap="round"></line>
                        <path d="M10.4961387,0 C2.53663095,8.48193342 -0.895943231,14.932572 0.198416187,19.3519158 C1.83995531,25.9809314 8.37268411,27.0000965 9.98736169,27.0000965 C11.6020393,27.0000965 21,27.12585 21,18.2902019 C21,12.3997698 17.4987129,6.30303586 10.4961387,0 Z" id="路径-15" fill="#E2ECFF" fill-rule="nonzero"></path>
                    </g>
                    <g id="树3" transform="translate(318.000000, 135.000000)">
                        <line x1="7.5" y1="19.34375" x2="7.5" y2="29.65625" id="直线" stroke="#D0E1FF" stroke-width="4" stroke-linecap="round"></line>
                        <path d="M7.99705807,0 C1.9326712,6.28291365 -0.682623414,11.0611645 0.151174238,14.3347524 C1.40187071,19.2451344 6.3791879,20.0000715 7.60941843,20.0000715 C8.83964897,20.0000715 16,20.0932222 16,13.5482977 C16,9.18501468 13.3323527,4.66891545 7.99705807,0 Z" id="路径-15" fill="#E2ECFF" fill-rule="nonzero"></path>
                    </g>
                    <g id="编组-2" transform="translate(98.000000, 0.000000)" fill-rule="nonzero">
                        <rect id="矩形" fill="#9DBEFF" opacity="0.65" x="17" y="150" width="8" height="4"></rect>
                        <path d="M141,117 L141,140.711749 C141,145.841508 136.803932,150 131.627821,150 L9.37217909,150 C4.19606752,150 0,145.841508 0,140.711749 L0,117 L141,117 Z M141,78 L141,111 L0,111 L0,78 L141,78 Z M141,39 L141,72 L0,72 L0,39 L141,39 Z M131.628976,1.50546242e-12 C136.80445,1.50546242e-12 141,4.15851941 141,9.28827363 L141,33 L0,33 L0,9.28827363 C0,6.82189012 0.989682468,4.45677428 2.75085279,2.7143948 C4.51202311,0.972015464 6.90004861,-0.00454397128 9.38840851,1.50546242e-12 L131.628976,1.50546242e-12 Z" id="形状结合" fill="url(#linearGradient-2)"></path>
                        <path d="M132,111 L132,116 L6,116 L6,111 L132,111 Z M132,72 L132,77 L6,77 L6,72 L132,72 Z M132,34 L132,39 L6,39 L6,34 L132,34 Z" id="形状结合" fill="#BBD2FF"></path>
                        <path d="M22.5,127 C26.0898509,127 29,129.910149 29,133.5 C29,137.089851 26.0898509,140 22.5,140 C18.9101491,140 16,137.089851 16,133.5 C16,129.910149 18.9101491,127 22.5,127 Z M22.5,88 C26.0898509,88 29,90.9101491 29,94.5 C29,98.0898509 26.0898509,101 22.5,101 C18.9101491,101 16,98.0898509 16,94.5 C16,90.9101491 18.9101491,88 22.5,88 Z M22.5,49 C26.0898509,49 29,51.9101491 29,55.5 C29,59.0898509 26.0898509,62 22.5,62 C18.9101491,62 16,59.0898509 16,55.5 C16,51.9101491 18.9101491,49 22.5,49 Z M22.5,10 C26.0898509,10 29,12.9101491 29,16.5 C29,20.0898509 26.0898509,23 22.5,23 C18.9101491,23 16,20.0898509 16,16.5 C16,12.9101491 18.9101491,10 22.5,10 Z" id="形状结合" fill="#FFFFFF"></path>
                        <path d="M60.5,129 C62.4329966,129 64,130.567003 64,132.5 C64,134.432997 62.4329966,136 60.5,136 C58.5670034,136 57,134.432997 57,132.5 C57,130.567003 58.5670034,129 60.5,129 Z M60.5,92 C62.4329966,92 64,93.5670034 64,95.5 C64,97.4329966 62.4329966,99 60.5,99 C58.5670034,99 57,97.4329966 57,95.5 C57,93.5670034 58.5670034,92 60.5,92 Z M60.5,53 C62.4329966,53 64,54.5670034 64,56.5 C64,58.4329966 62.4329966,60 60.5,60 C58.5670034,60 57,58.4329966 57,56.5 C57,54.5670034 58.5670034,53 60.5,53 Z M60.5,14 C62.4329966,14 64,15.5670034 64,17.5 C64,19.4329966 62.4329966,21 60.5,21 C58.5670034,21 57,19.4329966 57,17.5 C57,15.5670034 58.5670034,14 60.5,14 Z" id="形状结合" fill="#FFFFFF"></path>
                        <path d="M71.5,129 C73.4329966,129 75,130.567003 75,132.5 C75,134.432997 73.4329966,136 71.5,136 C69.5670034,136 68,134.432997 68,132.5 C68,130.567003 69.5670034,129 71.5,129 Z M71.5,92 C73.4329966,92 75,93.5670034 75,95.5 C75,97.4329966 73.4329966,99 71.5,99 C69.5670034,99 68,97.4329966 68,95.5 C68,93.5670034 69.5670034,92 71.5,92 Z M71.5,53 C73.4329966,53 75,54.5670034 75,56.5 C75,58.4329966 73.4329966,60 71.5,60 C69.5670034,60 68,58.4329966 68,56.5 C68,54.5670034 69.5670034,53 71.5,53 Z M71.5,14 C73.4329966,14 75,15.5670034 75,17.5 C75,19.4329966 73.4329966,21 71.5,21 C69.5670034,21 68,19.4329966 68,17.5 C68,15.5670034 69.5670034,14 71.5,14 Z" id="形状结合" fill="#FFFFFF"></path>
                        <path d="M129.26,129 C130.220975,129 131,129.779025 131,130.74 L131,134.26 C131,135.220975 130.220975,136 129.26,136 L82.74,136 C81.7790245,136 81,135.220975 81,134.26 L81,130.74 C81,129.779025 81.7790245,129 82.74,129 L129.26,129 Z M129.26,92 C130.220975,92 131,92.7790245 131,93.74 L131,97.26 C131,98.2209755 130.220975,99 129.26,99 L82.74,99 C81.7790245,99 81,98.2209755 81,97.26 L81,93.74 C81,92.7790245 81.7790245,92 82.74,92 L129.26,92 Z M129.26,53 C130.220975,53 131,53.7790245 131,54.74 L131,58.26 C131,59.2209755 130.220975,60 129.26,60 L82.74,60 C81.7790245,60 81,59.2209755 81,58.26 L81,54.74 C81,53.7790245 81.7790245,53 82.74,53 L129.26,53 Z M129.26,14 C130.220975,14 131,14.7790245 131,15.74 L131,19.26 C131,20.2209755 130.220975,21 129.26,21 L82.74,21 C81.7790245,21 81,20.2209755 81,19.26 L81,15.74 C81,14.7790245 81.7790245,14 82.74,14 L129.26,14 Z" id="形状结合" fill="#FFFFFF"></path>
                    </g>
                    <g id="警告" transform="translate(169.000000, 87.000000)" fill-rule="nonzero">
                        <path d="M57.4395894,3.8915784 L98.367446,62.7018287 C101.234183,66.8211145 100.227138,72.4902283 96.1181483,75.3641483 C94.5956376,76.4290266 92.7838942,77 90.9274615,77 L9.07174758,77 C4.06155974,77 0,72.9282631 0,67.9055219 C0,66.044437 0.569546021,64.2281544 1.63176284,62.7018287 L42.5596197,3.8915784 C45.4263568,-0.227707333 51.0813013,-1.23727551 55.1902917,1.63664478 C56.0666834,2.24961293 56.8281529,3.0129907 57.4395894,3.8915784 Z" id="形状结合备份-2" fill="#7DA6F6"></path>
                        <path d="M61.4395894,3.8915784 L102.367446,62.7018287 C105.234183,66.8211145 104.227138,72.4902283 100.118148,75.3641483 C98.5956376,76.4290266 96.7838942,77 94.9274615,77 L13.0717476,77 C8.06156006,77 4,72.9282631 4,67.9055219 C4,66.044437 4.56954602,64.2281544 5.63176284,62.7018287 L46.5596197,3.8915784 C49.4263568,-0.227707333 55.0813013,-1.23727551 59.1902917,1.63664478 C60.0666834,2.24961293 60.8281529,3.0129907 61.4395894,3.8915784 Z" id="形状结合" fill="url(#linearGradient-3)"></path>
                        <g id="编组-14" transform="translate(47.000000, 21.000000)">
                            <path d="M6.5,36.1052632 C10.0898509,36.1052632 13,38.9918483 13,42.5526316 C13,46.1134148 10.0898509,49 6.5,49 C2.91014913,49 0,46.1134148 0,42.5526316 C0,38.9918483 2.91014913,36.1052632 6.5,36.1052632 Z M6.5,1.27149753e-14 C10.0898509,1.20555304e-14 13,2.91014913 13,6.5 L13,24.4473684 C13,28.0372193 10.0898509,30.9473684 6.5,30.9473684 C2.91014913,30.9473684 3.99234362e-15,28.0372193 0,24.4473684 L0,6.5 C-4.39629938e-16,2.91014913 2.91014913,1.33744202e-14 6.5,1.27149753e-14 Z" id="形状结合" fill="url(#linearGradient-4)"></path>
                            <path d="M5.2,37.3947368 C8.0718807,37.3947368 10.4,39.704005 10.4,42.5526316 C10.4,45.4012582 8.0718807,47.7105263 5.2,47.7105263 C2.3281193,47.7105263 0,45.4012582 0,42.5526316 C0,39.704005 2.3281193,37.3947368 5.2,37.3947368 Z M5.2,1.28947368 C8.0718807,1.28947368 10.4,3.61759299 10.4,6.48947368 L10.4,24.4578947 C10.4,27.3297754 8.0718807,29.6578947 5.2,29.6578947 C2.3281193,29.6578947 4.79259605e-15,27.3297754 0,24.4578947 L0,6.48947368 C-3.51703951e-16,3.61759299 2.3281193,1.28947368 5.2,1.28947368 Z" id="形状结合" fill="#FFFFFF"></path>
                        </g>
                    </g>
                </g>
            </g>
        </g>
    </g>
</svg>