<?xml version="1.0" encoding="UTF-8"?>
<svg width="39px" height="31px" viewBox="0 0 39 31" version="1.1" xmlns="http://www.w3.org/2000/svg" xmlns:xlink="http://www.w3.org/1999/xlink">
    <title>返回</title>
    <g id="页面-1" stroke="none" stroke-width="1" fill="none" fill-rule="evenodd">
        <path d="M33.0302754,14.4591234 C30.7605507,12.1510731 27.8052242,10.5030741 24.2452056,9.55771025 C22.009548,8.96579328 20.0804948,8.79971586 18.973312,8.7613903 L18.973312,1.03240251 C18.973312,0.69598927 18.7859426,0.389384796 18.4835965,0.236082559 C18.1855088,0.0827803218 17.8235452,0.11258909 17.5510079,0.308475282 L0.385415726,12.8111244 C0.15546237,12.9814602 0.0149353192,13.2497391 0.0190996027,13.5350516 C0.0190996027,13.8203641 0.15546237,14.088643 0.389674121,14.2589789 L17.5552663,26.7020104 C17.8278036,26.8978966 18.1897672,26.9277054 18.4878549,26.7744032 C18.7859426,26.6211009 18.9775704,26.3144965 18.9775704,25.9780832 L18.9775704,18.7004853 C25.1565022,18.8623044 30.0834658,20.7061896 33.2687456,24.0532885 C35.7684237,26.6849769 36.3560823,29.3592492 36.3688575,29.4188668 C36.4540254,29.8361895 36.8202474,30.1385356 37.246087,30.1385356 C37.7358024,30.1385356 38.1360916,29.7467632 38.14035,29.2570477 C38.2425515,22.9844312 36.5221597,18.0063669 33.0302754,14.4591234 Z" id="返回" fill="#FFFFFF" fill-rule="nonzero"></path>
    </g>
</svg>