<?xml version="1.0" encoding="UTF-8"?>
<svg width="52px" height="52px" viewBox="0 0 52 52" version="1.1" xmlns="http://www.w3.org/2000/svg" xmlns:xlink="http://www.w3.org/1999/xlink">
    <title>非诉执行</title>
    <g id="页面-1" stroke="none" stroke-width="1" fill="none" fill-rule="evenodd">
        <g id="Apple-TV" transform="translate(-709.000000, -125.000000)" fill="#FFFFFF" fill-rule="nonzero" stroke="#FFFFFF">
            <path d="M753.790738,150.512156 C754.50348,150.512156 755.109592,151.017249 755.238671,151.718766 L755.261119,151.982537 L755.261119,156.780917 L752.965754,155.231966 C751.327009,154.126375 749.396432,153.5371 747.426571,153.542712 C741.977182,153.531488 737.554815,157.937018 737.537979,163.386407 C737.549203,168.835795 741.977182,173.241326 747.426571,173.230102 C752.875959,173.241326 757.298326,168.835795 757.315163,163.386407 C757.315163,162.572646 757.971783,161.916026 758.785544,161.916026 C759.599304,161.916026 760.255925,162.572646 760.255925,163.386407 C760.255925,170.44648 754.509092,176.170881 747.432183,176.170881 C744.036838,176.176476 740.776184,174.835174 738.368576,172.43879 C735.955355,170.048018 734.602829,166.792976 734.597217,163.392019 C734.597217,156.331946 740.344049,150.607562 747.426571,150.607562 C748.986746,150.607562 750.502024,150.888169 751.921896,151.415711 L752.376479,151.600911 L752.410152,151.471832 C752.58974,150.983576 753.016263,150.630011 753.526968,150.534604 L753.790738,150.512156 Z M734.058452,172.169407 C734.911497,172.175019 735.618627,172.826028 735.697197,173.673461 C735.775767,174.520894 735.192104,175.289757 734.355895,175.446897 L734.086512,175.469346 L711.671622,175.660159 C710.812965,175.660159 710.100223,175.003538 710.021653,174.150493 C709.943083,173.297447 710.532357,172.528584 711.374179,172.371444 L711.637949,172.348996 L734.058452,172.169407 Z M748.902564,158.082934 C749.609694,158.082934 750.221417,158.593639 750.344884,159.289544 L750.372945,159.553315 L750.372945,164.144046 L745.09192,168.302642 C744.491421,168.76845 743.643988,168.701104 743.122059,168.151114 C742.60013,167.601125 742.583293,166.748079 743.082774,166.175641 L743.273587,165.996052 L747.432183,162.718562 L747.432183,159.558927 C747.432183,158.846185 747.937276,158.240074 748.638793,158.110995 L748.902564,158.082934 Z M714.960337,164.082312 L729.83251,164.087924 C730.685555,164.099149 731.387073,164.761381 731.454418,165.608815 C731.521764,166.456248 730.938101,167.219499 730.09628,167.371027 L729.826897,167.393475 L714.960337,167.393475 C714.090455,167.410312 713.355264,166.742467 713.282306,165.872585 C713.209349,165.002703 713.826684,164.228228 714.690954,164.104761 L714.960337,164.082312 Z M738.099193,127.143202 L744.491421,133.53543 C745.787826,134.826223 745.787826,136.919551 744.491421,138.210343 L735.520633,147.187898 L738.037459,149.70962 C738.666019,150.310119 738.722141,151.297856 738.160926,151.9657 C737.599712,152.633545 736.617588,152.7514 735.91607,152.240695 L735.691585,152.04427 L733.182633,149.527898 L724.955559,157.763042 C723.659155,159.059446 721.565826,159.059446 720.275034,157.763042 L713.882806,151.365201 C712.592013,150.074409 712.592013,147.98108 713.882806,146.690288 L733.42428,127.143202 C734.715072,125.846797 736.808401,125.846797 738.099193,127.143202 Z M735.764542,129.483465 L716.217456,149.024939 L722.609684,155.417167 L742.156771,135.870081 L735.764542,129.483465 Z" id="非诉执行"></path>
        </g>
    </g>
</svg>