<?xml version="1.0" encoding="UTF-8"?>
<svg width="52px" height="52px" viewBox="0 0 52 52" version="1.1" xmlns="http://www.w3.org/2000/svg" xmlns:xlink="http://www.w3.org/1999/xlink">
    <title>简案快办</title>
    <g id="页面-1" stroke="none" stroke-width="1" fill="none" fill-rule="evenodd">
        <g id="Apple-TV" transform="translate(-624.000000, -125.000000)" fill="#FFFFFF" fill-rule="nonzero" stroke="#FFFFFF">
            <path d="M670.3125,126 C672.901335,126 675,128.098665 675,130.6875 L675,171.3125 C675,173.901335 672.901335,176 670.3125,176 L629.6875,176 C627.098665,176 625,173.901335 625,171.3125 L625,130.6875 C625,128.098665 627.098665,126 629.6875,126 L670.3125,126 Z M671.875,129.125 L628.125,129.125 L628.125,172.875 L671.875,172.875 L671.875,129.125 Z M640.4375,149.4375 L640.4375,165.9375 L637.59375,165.9375 L637.59375,149.4375 L640.4375,149.4375 Z M662.46875,145.84375 L662.46875,162.6875 C662.46875,164.28125 662.0625,165.0625 660.90625,165.4375 C659.867188,165.820312 658.301563,165.86875 656.042187,165.875 L655.03125,165.875 C654.875,165.15625 654.46875,164.03125 654.09375,163.34375 C656.0625,163.4375 658.25,163.4375 658.8125,163.375 C659.4375,163.375 659.625,163.21875 659.625,162.6875 L659.625,148.4375 L645.4375,148.4375 L645.4375,145.84375 L662.46875,145.84375 Z M656.25,150.875 L656.25,161.6875 L646.5,161.6875 L646.5,163.1875 L643.875,163.1875 L643.875,150.875 L656.25,150.875 L656.25,150.875 Z M653.5,157.25 L646.5,157.25 L646.5,159.46875 L653.5,159.46875 L653.5,157.25 Z M653.5,153.09375 L646.5,153.09375 L646.5,155.1875 L653.5,155.1875 L653.5,153.09375 Z M641.4375,144.9375 C642.65625,146.0625 644.03125,147.625 644.625,148.71875 L642.34375,150.21875 C641.78125,149.125 640.46875,147.5 639.28125,146.34375 L641.4375,144.9375 Z M640.6875,137.1875 L643.40625,137.875 C643.15625,138.5 642.90625,139.09375 642.625,139.6875 L649.8125,139.6875 L649.8125,142.0625 L645.75,142.0625 C646.25,143 646.71875,143.9375 646.96875,144.65625 L644.46875,145.6875 C644.1875,144.75 643.46875,143.25 642.8125,142.0625 L641.28125,142.0625 C640.3125,143.53125 639.28125,144.84375 638.25,145.84375 C637.6875,145.375 636.53125,144.625 635.84375,144.25 C637.90625,142.5625 639.6875,139.90625 640.6875,137.1875 Z M652.96875,137.25 L655.71875,137.875 C655.5625,138.5 655.3125,139.0625 655.0625,139.65625 L663.5625,139.65625 L663.5625,142.0625 L658.90625,142.0625 C659.5,142.9375 660.03125,143.8125 660.3125,144.5 L657.8125,145.65625 C657.4375,144.71875 656.625,143.28125 655.8125,142.0625 L653.875,142.0625 C653.125,143.34375 652.3125,144.5 651.4375,145.375 C650.90625,144.90625 649.71875,144.125 649.0625,143.75 C650.8125,142.15625 652.21875,139.71875 652.96875,137.25 L652.96875,137.25 Z" id="简案快办"></path>
        </g>
    </g>
</svg>