<?xml version="1.0" encoding="UTF-8"?>
<svg width="50px" height="52px" viewBox="0 0 50 52" version="1.1" xmlns="http://www.w3.org/2000/svg" xmlns:xlink="http://www.w3.org/1999/xlink">
    <title>轻微免罚</title>
    <g id="页面-1" stroke="none" stroke-width="1" fill="none" fill-rule="evenodd">
        <g id="Apple-TV" transform="translate(-549.000000, -124.000000)" fill="#FFFFFF" fill-rule="nonzero" stroke="#FFFFFF">
            <path d="M575.824261,125.601641 C577.060439,126.315877 581.263443,129.859586 584.917034,130.601293 C587.746507,131.205646 590.713333,131.288058 592.251688,131.288058 C593.185689,131.288058 593.762571,131.260587 593.817513,131.260587 L594.064748,131.260587 C594.998749,131.260587 595.877809,131.562764 596.564574,132.112176 C597.306281,132.689059 597.71834,133.513178 597.71834,134.392237 L597.71834,142.221362 C597.71834,171.175388 575.357261,174.883921 574.42326,175.048745 C573.98373,175.103686 573.571671,175.103686 573.132141,175.048745 C572.19814,174.911391 550.001885,171.175388 550.001885,142.221362 L550.001885,134.392237 C550.001885,133.513178 550.413944,132.71653 551.155651,132.112176 C551.897357,131.507823 552.91377,131.205646 553.902712,131.288058 C553.957653,131.288058 554.562007,131.315529 555.468537,131.315529 C557.006891,131.315529 560.028659,131.233117 562.858132,130.628763 C567.171018,129.722233 571.566316,125.711524 571.73114,125.629112 C573.022259,124.914876 574.560613,124.914876 575.824261,125.601641 L575.824261,125.601641 Z M573.956259,128.431114 C573.956259,128.431114 571.016904,131.919882 564.890957,133.59559 C558.76501,135.271297 553.545594,134.364767 553.545594,134.364767 L553.545594,143.292716 C553.545594,169.637034 573.489259,171.69733 573.873848,171.752271 C573.873848,171.752271 594.366925,169.91174 594.366925,143.292716 L594.366925,134.364767 C594.366925,134.364767 590.218862,134.831767 584.230269,133.59559 C578.269146,132.386883 573.956259,128.431114 573.956259,128.431114 Z M569.286255,151.259194 L569.286255,158.950965 C570.467492,158.2642 571.621257,157.577435 572.775023,156.835728 L573.461788,159.582789 C571.401492,160.846438 569.231314,161.972733 567.006194,162.906734 L565.989782,160.51679 C566.429311,160.187143 566.704018,159.747613 566.704018,159.253142 L566.704018,153.813961 L562.226308,153.813961 L562.226308,151.286664 L569.286255,151.286664 L569.286255,151.259194 Z M584.642328,146.341954 L584.642328,159.390495 C584.642328,161.670556 583.543503,162.824322 581.400796,162.824322 L578.186734,162.824322 L577.609851,160.214614 C578.543852,160.324496 579.505323,160.379437 580.466795,160.379437 C581.428266,160.379437 581.895267,159.802554 581.895267,158.7312 L581.895267,146.341954 L584.642328,146.341954 L584.642328,146.341954 Z M578.02191,147.770426 L578.02191,157.38514 L575.467143,157.38514 L575.467143,147.770426 L578.02191,147.770426 L578.02191,147.770426 Z M566.539194,145.7376 C568.187431,146.589189 569.698314,147.578132 571.099316,148.759368 L569.451079,150.599899 C567.995136,149.363721 566.37437,148.319838 564.698663,147.413308 L566.539194,145.7376 Z M584.971975,137.853535 L584.971975,145.2706 L563.077897,145.2706 L563.077897,137.853535 L584.971975,137.853535 Z M582.362267,140.051184 L578.488911,140.051184 L578.488911,143.072951 L582.362267,143.072951 L582.362267,140.051184 Z M576.016555,140.051184 L572.005846,140.051184 L572.005846,143.072951 L576.016555,143.072951 L576.016555,140.051184 Z M569.533491,140.051184 L565.687605,140.051184 L565.687605,143.072951 L569.560961,143.072951 L569.560961,140.051184 L569.533491,140.051184 Z" id="轻微免罚"></path>
        </g>
    </g>
</svg>