<?xml version="1.0" encoding="UTF-8"?>
<svg width="52px" height="52px" viewBox="0 0 52 52" version="1.1" xmlns="http://www.w3.org/2000/svg" xmlns:xlink="http://www.w3.org/1999/xlink">
    <title>行刑衔接</title>
    <g id="页面-1" stroke="none" stroke-width="1" fill="none" fill-rule="evenodd">
        <g id="Apple-TV" transform="translate(-793.000000, -126.000000)" fill="#FFFFFF" fill-rule="nonzero" stroke="#FFFFFF">
            <path d="M809.614099,127.155127 L815.487814,133.645582 L839.217623,133.645582 L839.217623,149.798299 L844.401177,150.752778 L844.401177,160.415039 C844.518651,171.677888 832.169165,176.714598 831.655215,176.920178 L831.655215,176.920178 L831.067844,177.155127 L830.509841,176.905494 C827.818609,175.74075 825.357048,174.104683 823.241118,172.074363 L823.241118,172.074363 L794.004701,172.074363 L794.004701,127.155127 L809.614099,127.155127 Z M831.082528,151.296096 L820.656683,153.249106 L820.656683,160.150722 C820.656683,160.154941 820.656699,160.160234 820.656745,160.166581 L820.65752,160.217187 C820.677025,161.098967 821.133163,169.175989 831.185318,173.953952 C833.343908,172.896684 841.552425,168.462029 841.464319,160.429723 L841.464319,160.429723 L841.434951,153.205054 L831.082528,151.296096 Z M836.324819,136.597124 L796.941559,136.597124 L796.941559,169.137506 L820.803526,169.137506 C818.892998,166.508421 817.786111,163.381591 817.617036,160.136037 L817.617036,160.136037 L817.617036,150.79683 L831.082528,148.315186 L836.324819,149.269664 L836.324819,136.597124 Z M831.038475,154.644114 L832.477535,158.814452 L836.882821,158.917242 L833.358592,161.575098 L834.621441,165.789488 L831.009106,163.263791 L827.382087,165.774804 L828.674305,161.560413 L825.16476,158.887873 L829.570046,158.799767 L831.038475,154.644114 Z M808.263145,130.106669 L796.941559,130.106669 L796.941559,133.660267 L811.508372,133.660267 L808.263145,130.106669 Z" id="行刑衔接"></path>
        </g>
    </g>
</svg>