<?xml version="1.0" encoding="UTF-8"?>
<svg width="50px" height="50px" viewBox="0 0 50 50" version="1.1" xmlns="http://www.w3.org/2000/svg" xmlns:xlink="http://www.w3.org/1999/xlink">
    <title>协同处置</title>
    <g id="页面-1" stroke="none" stroke-width="1" fill="none" fill-rule="evenodd">
        <g id="Apple-TV" transform="translate(-390.000000, -37.000000)" fill="#FFFFFF" fill-rule="nonzero">
            <path d="M430.633532,65.1309071 C425.454775,65.1309071 421.256563,69.3291191 421.256563,74.5078761 C421.256563,79.6866331 425.454775,83.8848451 430.633532,83.8848451 C435.812289,83.8848451 440.010501,79.6866331 440.010501,74.5078761 C440.010501,69.3291191 435.812289,65.1309071 430.633532,65.1309071 Z M430.633532,79.7173034 C427.756445,79.7173034 425.424105,77.3849633 425.424105,74.5078761 C425.424105,71.6307889 427.756445,69.2984489 430.633532,69.2984489 C433.51062,69.2984489 435.84296,71.6307889 435.84296,74.5078761 C435.84296,77.3849633 433.51062,79.7173034 430.633532,79.7173034 L430.633532,79.7173034 Z M399.376969,65.1309071 C394.198212,65.1309071 390,69.3291191 390,74.5078761 C390,79.6866331 394.198212,83.8848451 399.376969,83.8848451 C404.555726,83.8848451 408.753938,79.6866331 408.753938,74.5078761 C408.753938,69.3291191 404.555726,65.1309071 399.376969,65.1309071 Z M399.376969,79.7173034 C396.499882,79.7173034 394.167542,77.3849633 394.167542,74.5078761 C394.167542,71.6307889 396.499882,69.2984489 399.376969,69.2984489 C402.254056,69.2984489 404.586396,71.6307889 404.586396,74.5078761 C404.586396,77.3849633 402.254056,79.7173034 399.376969,79.7173034 L399.376969,79.7173034 Z M415.005251,55.7539381 C420.184008,55.7539381 424.38222,51.555726 424.38222,46.376969 C424.38222,41.198212 420.184008,37 415.005251,37 C409.826494,37 405.628282,41.198212 405.628282,46.376969 C405.628282,51.555726 409.826494,55.7539381 415.005251,55.7539381 Z M415.005251,41.1675418 C417.882338,41.1675418 420.214678,43.4998818 420.214678,46.376969 C420.214678,49.2540563 417.882338,51.5863963 415.005251,51.5863963 C412.128164,51.5863963 409.795823,49.2540563 409.795823,46.376969 C409.795823,43.4998818 412.128164,41.1675418 415.005251,41.1675418 L415.005251,41.1675418 Z M431.154475,61.0675538 C432.737909,61.2663097 434.268986,61.7648822 435.665839,62.5366123 C434.94674,56.8707186 431.933568,51.7483262 427.330756,48.3669702 C427.10238,49.831892 426.611795,51.2436474 425.882535,52.534512 C428.474175,54.7701974 430.31483,57.7494389 431.154475,61.0675538 L431.154475,61.0675538 Z M404.127967,52.5240932 C403.398707,51.2332286 402.908122,49.8214731 402.679746,48.3565514 C398.076933,51.7379074 395.063761,56.8602997 394.344662,62.5261935 C395.74226,61.7580965 397.273299,61.2630721 398.856026,61.0675538 C399.693712,57.7456719 401.534521,54.7625423 404.127967,52.5240932 L404.127967,52.5240932 Z M419.714573,82.1553153 C416.654924,83.0637586 413.397253,83.0637586 410.337604,82.1553153 C409.357063,83.4120836 408.148161,84.4725239 406.774356,85.2809717 C412.051262,87.5730094 418.042591,87.5730094 423.319497,85.2809717 C421.930742,84.4768014 420.707411,83.4161098 419.714573,82.1553153 L419.714573,82.1553153 Z" id="协同处置"></path>
        </g>
    </g>
</svg>