<?xml version="1.0" encoding="UTF-8"?>
<svg width="50px" height="50px" viewBox="0 0 50 50" version="1.1" xmlns="http://www.w3.org/2000/svg" xmlns:xlink="http://www.w3.org/1999/xlink">
    <title>指挥调度</title>
    <g id="页面-1" stroke="none" stroke-width="1" fill="none" fill-rule="evenodd">
        <g id="Apple-TV" transform="translate(-469.000000, -37.000000)" fill="#FFFFFF" fill-rule="nonzero">
            <path d="M498.99442,87 L505.662946,87 L505.662946,73.6685268 L498.99442,73.6685268 L498.99442,87 Z M498.99442,60.3314732 L505.662946,60.3314732 L505.662946,47 L508.99442,47 L502.325893,37 L495.662946,47 L498.99442,47 L498.99442,60.3314732 Z M518.99442,66.9720982 L512.325893,60.3314732 L512.325893,63.6629464 L478.99442,63.6629464 C476.611607,63.6573661 475.902902,61.0513393 475.897321,58.5904018 C475.897321,56.1294643 477.828125,54.1428571 480.210938,54.1372768 C482.59375,54.1372768 485.662946,55.6830357 485.662946,60.3258929 L492.331473,60.3258929 C492.331473,52.1004464 486.410714,47.0111607 480.216518,47.0055804 C474.022321,47.0055804 469,52.1897321 469,58.5848214 C469,64.9799107 472.805804,70.3203125 479,70.3258929 L512.331473,70.3258929 L512.331473,73.6573661 L518.99442,66.9720982 Z M485.662946,87 L492.331473,87 L492.331473,73.6685268 L485.662946,73.6685268 L485.662946,87 Z" id="指挥调度"></path>
        </g>
    </g>
</svg>