<?xml version="1.0" encoding="UTF-8"?>
<svg width="44px" height="52px" viewBox="0 0 44 52" version="1.1" xmlns="http://www.w3.org/2000/svg" xmlns:xlink="http://www.w3.org/1999/xlink">
    <title>日常抽查</title>
    <g id="页面-1" stroke="none" stroke-width="1" fill="none" fill-rule="evenodd">
        <g id="Apple-TV" transform="translate(-303.000000, -129.000000)" fill="#FFFFFF" fill-rule="nonzero" stroke="#FFFFFF">
            <path d="M324.924809,130.094866 C325.509532,130.106698 326.052562,130.400136 326.382878,130.882767 C326.500611,131.082006 330.195593,136.026762 340.990739,136.832776 C343.685905,137.049842 345.762715,139.300047 345.763425,142.00394 L345.763425,161.266755 C345.763425,162.266973 344.952377,163.077722 343.952159,163.077722 C342.951942,163.077722 342.141059,162.266973 342.140893,161.266755 L342.140893,142.00394 C342.148361,141.192344 341.527959,140.512667 340.719049,140.446252 C331.934409,139.78514 327.062103,136.542973 324.870471,134.532468 C322.633558,136.524861 317.71597,139.78514 309.049062,140.437195 C308.250924,140.51689 307.645727,141.192824 307.654387,141.994884 L307.654387,161.266755 C307.654387,164.09233 313.76741,169.870269 323.222219,175.974236 C324.235046,176.645412 325.551178,176.645412 326.564005,175.974236 C327.768497,175.195391 328.972989,174.389378 330.123143,173.583364 C330.651262,173.185476 331.354237,173.106996 331.9571,173.378621 C332.559964,173.650246 332.966903,174.228808 333.018745,174.888002 C333.070586,175.547197 332.75909,176.182259 332.206099,176.544785 C331.010663,177.387023 329.779002,178.211149 328.529229,179.017163 C327.447747,179.718638 326.186696,180.092865 324.89764,180.094866 C323.611743,180.090613 322.354218,179.716499 321.275108,179.017163 C309.846019,171.636253 304.06808,165.659075 304.06808,161.266755 L304.06808,141.994884 C304.06808,139.302387 306.130597,137.05872 308.813597,136.832776 C319.554405,136.00865 323.430515,130.891823 323.46674,130.837485 C323.818497,130.38586 324.352673,130.113795 324.924809,130.094866 Z M328.629036,149.254364 L328.918651,149.258061 L329.507312,149.258061 C335.50932,149.413113 340.249214,154.404396 340.094162,160.406404 C340.026676,163.018772 339.043006,165.392042 337.458582,167.226674 L345.081311,175.698742 C345.529567,176.196931 345.504601,176.670153 345.006412,177.11841 L343.808066,178.196648 C343.309878,178.644904 342.836655,178.619938 342.388399,178.121749 L334.665693,169.540162 C332.986961,170.512161 331.027161,171.047022 328.94582,170.993254 L328.94582,170.993254 L328.357158,170.993254 C322.355151,170.838202 317.615257,165.846919 317.770308,159.844911 C317.92536,153.842904 322.916643,149.103009 328.918651,149.258061 Z M328.918651,152.880593 C324.917312,152.775558 321.588439,155.934136 321.483404,159.935475 C321.378368,163.936813 324.536946,167.265687 328.538285,167.370722 L328.538285,167.370722 L328.936764,167.370722 C332.938102,167.473256 336.264948,164.312651 336.367482,160.311312 C336.470017,156.309974 333.309412,152.983128 329.308073,152.880593 L329.308073,152.880593 Z" id="日常抽查"></path>
        </g>
    </g>
</svg>