<?xml version="1.0" encoding="UTF-8"?>
<svg width="59px" height="51px" viewBox="0 0 59 51" version="1.1" xmlns="http://www.w3.org/2000/svg" xmlns:xlink="http://www.w3.org/1999/xlink">
    <title>双随机抽查</title>
    <g id="页面-1" stroke="none" stroke-width="1" fill="none" fill-rule="evenodd">
        <g id="Apple-TV" transform="translate(-835.000000, -35.000000)" fill="#FFFFFF" fill-rule="nonzero">
            <path d="M880.626286,68.902563 L884.639038,72.9153148 L873.924873,72.9153148 C872.125122,72.9153148 870.230915,71.2353229 868.72803,68.3054575 L864.511183,60.0876658 L868.72803,51.869874 C870.232601,48.9400086 872.125122,47.2600167 873.924873,47.2600167 L884.865061,47.2600167 L880.671828,51.2255398 L883.949162,54.6884147 L894.034173,45.146533 L883.994704,35.10875 L880.626286,38.4788542 L884.637351,42.491606 L873.924873,42.491606 C870.220794,42.491606 866.869244,45.0487021 864.485882,49.6939809 L861.830955,54.867209 L859.176028,49.6939809 C856.792666,45.0487021 853.441116,42.491606 849.738724,42.491606 L835,42.491606 L835,47.25833 L849.740411,47.25833 C851.538475,47.25833 853.432682,48.9383219 854.937253,51.8681873 L859.1541,60.085979 L854.937253,68.3037707 C853.432682,71.2336361 851.540161,72.913628 849.740411,72.913628 L835,72.913628 L835,77.6803521 L849.740411,77.6803521 C853.442803,77.6803521 856.794353,75.123256 859.177715,70.4779771 L861.832642,65.3047491 L864.487569,70.4779771 C866.870931,75.123256 870.222481,77.6803521 873.926559,77.6803521 L884.865061,77.6803521 L880.673515,81.6458751 L883.950848,85.10875 L894.03586,75.568555 L883.99639,65.5290853 L880.626286,68.902563 Z" id="双随机抽查"></path>
        </g>
    </g>
</svg>