<?xml version="1.0" encoding="UTF-8"?>
<svg width="51px" height="51px" viewBox="0 0 51 51" version="1.1" xmlns="http://www.w3.org/2000/svg" xmlns:xlink="http://www.w3.org/1999/xlink">
    <title>重点专项检查</title>
    <g id="页面-1" stroke="none" stroke-width="1" fill="none" fill-rule="evenodd">
        <g id="Apple-TV" transform="translate(-394.000000, -125.000000)" fill="#FFFFFF" fill-rule="nonzero">
            <path d="M415.819645,125.367012 C416.436028,125.072373 417.152612,125.072373 417.768995,125.367012 L417.768995,125.367012 L438.225777,135.108065 C439.01726,135.484653 439.520982,136.283508 439.519647,137.160013 C439.514652,137.324464 439.491717,137.487879 439.451246,137.647351 L439.451246,137.647351 L439.519647,137.647351 L439.519647,156.958462 L434.97686,156.958462 L434.97686,140.773722 L419.068563,148.34883 L419.068563,172.869609 C419.072261,173.650802 418.673257,174.378797 418.012759,174.795954 C417.352261,175.213111 416.52345,175.260578 415.819645,174.921557 L415.819645,174.921557 L395.362863,165.180503 C394.571231,164.803653 394.066722,164.005309 394.066146,163.128555 L394.066146,163.128555 L394.066146,137.157163 C394.066722,136.280409 394.571231,135.482065 395.362863,135.105215 L395.362863,135.105215 Z M441.323649,158.762466 L444.538367,161.977185 L432.038584,174.476968 C431.613751,174.904931 431.035672,175.145624 430.43265,175.145624 C429.829628,175.145624 429.251548,174.904931 428.826715,174.476968 L428.826715,174.476968 L422.006838,167.659941 L425.221557,164.442372 L430.434075,169.65774 L441.320799,158.762466 L441.323649,158.762466 Z M398.614631,140.776572 L398.614631,161.695042 L414.522928,169.27015 L414.522928,148.35168 L398.614631,140.776572 Z M416.79147,129.935446 L401.604205,137.165713 L416.794146,144.397032 L431.981585,137.165713 L416.79147,129.935446 Z" id="重点专项检查"></path>
        </g>
    </g>
</svg>