<?xml version="1.0" encoding="UTF-8"?>
<svg width="53px" height="51px" viewBox="0 0 53 51" version="1.1" xmlns="http://www.w3.org/2000/svg" xmlns:xlink="http://www.w3.org/1999/xlink">
    <title>综合查一次</title>
    <g id="页面-1" stroke="none" stroke-width="1" fill="none" fill-rule="evenodd">
        <g id="Apple-TV" transform="translate(-474.000000, -127.000000)" fill="#FFFFFF" fill-rule="nonzero">
            <path d="M512.405408,151.818005 C518.55434,151.823149 523.537269,156.80747 523.540697,162.956403 C523.539054,165.051733 522.941768,167.10342 521.818489,168.87222 L521.818489,168.87222 L526.52503,173.578761 L523.027765,177.072917 L518.321225,172.366376 C516.552781,173.490444 514.50086,174.087797 512.405408,174.088584 C506.259107,174.080023 501.278679,169.099596 501.270118,162.953295 C501.27526,156.805575 506.257688,151.823147 512.405408,151.818005 Z M516.114062,127.072917 C517.480696,127.072917 518.588571,128.180792 518.588571,129.547425 L518.588571,148.106242 L513.639553,148.106242 L513.639553,132.021934 L478.999539,132.021934 L478.999539,169.133349 L498.795609,169.139567 L498.795609,174.088584 L476.52503,174.085476 C475.158396,174.085476 474.050521,172.9776 474.050521,171.610967 L474.050521,129.547425 C474.050521,128.180792 475.158396,127.072917 476.52503,127.072917 L516.114062,127.072917 Z M512.405408,156.767023 C508.995186,156.767023 506.219136,159.539965 506.219136,162.953295 C506.222563,166.368458 508.990245,169.13614 512.405408,169.139567 C515.815629,169.139567 518.59168,166.363516 518.59168,162.953295 C518.59168,159.539965 515.815629,156.767023 512.405408,156.767023 Z M501.270118,146.865879 L501.270118,151.818005 L483.948556,151.818005 L483.948556,146.865879 L501.270118,146.865879 Z M508.693644,136.970952 L508.693644,141.91997 L483.948556,141.91997 L483.948556,136.970952 L508.693644,136.970952 Z" id="综合查一次"></path>
        </g>
    </g>
</svg>