<?xml version="1.0" encoding="UTF-8"?>
<svg width="49px" height="51px" viewBox="0 0 49 51" version="1.1" xmlns="http://www.w3.org/2000/svg" xmlns:xlink="http://www.w3.org/1999/xlink">
    <title>公权力监督备份</title>
    <g id="页面-1" stroke="none" stroke-width="1" fill="none" fill-rule="evenodd">
        <g id="Apple-TV" transform="translate(-1276.000000, -112.000000)" fill="#FFFFFF" fill-rule="nonzero">
            <path d="M1311.194,137.168179 C1311.70008,136.96575 1312.20615,136.96575 1312.71222,137.168179 C1312.95831,137.229701 1316.60744,138.674879 1319.43166,139.79889 L1319.96685,140.011973 C1321.5347,140.636442 1322.73246,141.115547 1322.73246,141.115547 C1323.54218,141.419191 1324.04825,142.127693 1324.04825,142.93741 C1324.14947,143.848341 1324.3519,151.743078 1322.53003,155.386802 C1320.60696,159.030527 1314.02801,161.560891 1312.71222,161.96575 C1312.40858,162.066964 1312.30736,162.066964 1312.00372,162.066964 L1311.85986,162.066496 C1311.6326,162.064153 1311.46391,162.050095 1311.29522,161.96575 C1309.97943,161.560891 1303.40048,159.030527 1301.4774,155.386802 C1300.01991,152.552794 1299.85797,146.933361 1299.85149,144.332551 L1299.85154,143.965795 C1299.85279,143.508908 1299.85797,143.184373 1299.85797,143.038624 C1299.95918,142.228908 1300.46526,141.520406 1301.17376,141.216762 L1301.17376,141.216762 Z M1318.58267,112.066964 C1319.69603,112.066964 1320.60696,112.977895 1320.60696,114.091256 L1320.60696,114.091256 L1320.60696,136.560891 L1316.55837,136.560891 L1316.55837,116.115547 L1280.12113,116.115547 L1280.12113,156.601377 L1298.33975,156.601377 L1298.33975,160.64996 L1278.09684,160.64996 C1276.98348,160.64996 1276.07254,159.739029 1276.07254,158.625669 L1276.07254,158.625669 L1276.07254,114.091256 C1276.07254,112.977895 1276.98348,112.066964 1278.09684,112.066964 L1278.09684,112.066964 Z M1312.00372,141.216762 L1303.90655,144.455628 C1303.90655,147.492065 1304.2102,151.743078 1305.12113,153.463725 C1305.93084,154.981944 1309.47335,156.803806 1312.00372,157.815952 C1314.6353,156.905021 1318.07659,154.981944 1318.88631,153.463725 C1319.79724,151.743078 1320.10088,147.492065 1319.99967,144.455628 L1319.99967,144.455628 L1316.25473,142.93741 C1315.74866,142.73498 1315.3438,142.633766 1314.93894,142.431337 L1314.93894,142.431337 L1317.16566,148.301782 L1318.07659,148.301782 L1318.07659,151.338219 L1315.14137,151.338219 L1314.73651,150.326074 L1312.00372,156.398948 L1309.87821,151.844292 L1309.37214,153.160082 L1305.93084,153.160082 L1305.93084,150.123644 L1307.34785,150.123644 L1309.67578,144.151984 L1311.9025,149.010284 L1314.83773,142.431337 C1313.62315,141.925264 1312.71222,141.520406 1312.00372,141.216762 L1312.00372,141.216762 Z M1296.21425,143.544697 L1296.21425,147.59328 L1288.31951,147.59328 L1288.31951,143.544697 L1296.21425,143.544697 Z M1302.28712,134.334171 L1302.28712,138.382754 L1288.31951,138.382754 L1288.31951,134.334171 L1302.28712,134.334171 Z M1308.35999,125.224859 L1308.35999,129.273442 L1288.31951,129.273442 L1288.31951,125.224859 L1308.35999,125.224859 Z" id="公权力监督备份"></path>
        </g>
    </g>
</svg>