<?xml version="1.0" encoding="UTF-8"?>
<svg width="59px" height="52px" viewBox="0 0 59 52" version="1.1" xmlns="http://www.w3.org/2000/svg" xmlns:xlink="http://www.w3.org/1999/xlink">
    <title>社会监督</title>
    <g id="页面-1" stroke="none" stroke-width="1" fill="none" fill-rule="evenodd">
        <g id="Apple-TV" transform="translate(-390.000000, -204.000000)" fill="#FFFFFF" fill-rule="nonzero" stroke="#FFFFFF">
            <path d="M444.571429,205 C446.541295,205 448.142857,206.601562 448.142857,208.571429 L448.142857,208.571429 L448.142857,244.285714 C448.142857,246.25558 446.541295,247.857143 444.571429,247.857143 L444.571429,247.857143 L426.714286,247.857143 L426.714286,251.428571 L432.071429,251.428571 C433.059152,251.428571 433.857143,252.226562 433.857143,253.214286 C433.857143,254.202009 433.059152,255 432.071429,255 L432.071429,255 L407.071429,255 C406.083705,255 405.285714,254.202009 405.285714,253.214286 C405.285714,252.226562 406.083705,251.428571 407.071429,251.428571 L407.071429,251.428571 L412.428571,251.428571 L412.428571,247.857143 L394.571429,247.857143 C392.601562,247.857143 391,246.25558 391,244.285714 L391,244.285714 L391,208.571429 C391,206.601562 392.601562,205 394.571429,205 L394.571429,205 Z M423.142857,247.857143 L416,247.857143 L416,251.428571 L423.142857,251.428571 L423.142857,247.857143 Z M444.571429,208.571429 L394.571429,208.571429 L394.571429,244.285714 L444.571429,244.285714 L444.571429,208.571429 Z M419.571429,213.922991 C421.920759,213.922991 424.415179,214.542411 426.982143,215.770089 C428.96317,216.71875 431.00558,218.035714 433.042411,219.676339 C436.46875,222.438616 438.717634,225.178571 438.8125,225.295759 C439.353795,225.959821 439.348214,226.908482 438.801339,227.566964 C438.416295,228.030134 429.236607,238.922991 419.571429,238.922991 C417.238839,238.922991 414.75558,238.303571 412.194196,237.075893 C410.21317,236.127232 408.176339,234.815848 406.133929,233.175223 C403.534843,231.086672 401.605699,229.014073 400.778263,228.074227 L400.631988,227.906766 C400.455605,227.703144 400.354448,227.579758 400.335938,227.555804 C399.794643,226.891741 399.794643,225.94308 400.335938,225.284598 C400.430804,225.172991 402.696429,222.433036 406.133929,219.670759 C408.176339,218.030134 410.21317,216.71875 412.194196,215.770089 C414.75558,214.542411 417.238839,213.922991 419.571429,213.922991 Z M419.571429,217.5 C415.419643,217.5 411.189732,220.200893 408.371652,222.460938 C406.513393,223.956473 405.023438,225.446429 404.108259,226.434152 C405.034598,227.427455 406.552455,228.939732 408.421875,230.440848 C411.228795,232.684152 415.436384,235.362723 419.571429,235.362723 C423.672991,235.362723 427.908482,232.66183 430.737723,230.396205 C432.601562,228.90067 434.108259,227.405134 435.034598,226.422991 C434.113839,225.429688 432.612723,223.917411 430.748884,222.421875 C424.955864,217.768466 424.639882,217.514644 420.354566,217.500799 L419.841954,217.50003 L419.841954,217.50003 Z M419.571429,221.071429 C422.523438,221.071429 424.928571,223.476562 424.928571,226.428571 C424.928571,229.38058 422.523438,231.785714 419.571429,231.785714 C416.61942,231.785714 414.214286,229.38058 414.214286,226.428571 C414.214286,223.476562 416.61942,221.071429 419.571429,221.071429 Z M419.571429,224.642857 C418.589286,224.642857 417.785714,225.446429 417.785714,226.428571 C417.785714,227.410714 418.589286,228.214286 419.571429,228.214286 C420.553571,228.214286 421.357143,227.410714 421.357143,226.428571 C421.357143,225.446429 420.553571,224.642857 419.571429,224.642857 Z" id="社会监督"></path>
        </g>
    </g>
</svg>