<?xml version="1.0" encoding="UTF-8"?>
<svg width="51px" height="51px" viewBox="0 0 51 51" version="1.1" xmlns="http://www.w3.org/2000/svg" xmlns:xlink="http://www.w3.org/1999/xlink">
    <title>政府监督</title>
    <g id="页面-1" stroke="none" stroke-width="1" fill="none" fill-rule="evenodd">
        <g id="Apple-TV" transform="translate(-865.000000, -128.000000)" fill-rule="nonzero" stroke="#FFFFFF">
            <g id="政府监督" transform="translate(865.016912, 128.069912)">
                <path d="M25.422043,12.1226882 C34.9860215,12.1226882 41.7203226,23.853871 35.5053763,31.9851613 L37.4933333,33.9731183 L37.4933333,34.3490323 C36.4724731,35.4234409 35.4694624,36.4982796 34.4488172,37.5729032 L34.0725806,37.5729032 C33.7144086,36.9103226 32.604086,35.6744086 31.7980645,35.4774194 C30.3115054,36.8922581 27.3563441,37.6445161 24.4727957,37.6445161 C22.7354839,37.6445161 21.016129,37.3756989 19.6370968,36.8206452 C18.4729032,36.2116129 17.2907527,35.6206452 16.1266667,35.0116129 L16.0370968,35.1012903 C16.0729032,36.6952688 15.5535484,36.8563441 14.8012903,37.5729032 C14.5863441,37.6088172 14.3715054,37.6445161 14.1565591,37.6445161 C12.2760215,37.6445161 11.1119355,35.8892473 12.6162366,33.9729032 C13.2431183,33.8116129 13.8878495,33.6505376 14.5147312,33.4892473 L14.2280645,33.2027957 C13.798172,32.3967742 13.0102151,32.0565591 12.7952688,31.0178495 C13.6012903,30.4625806 14.0310753,29.388172 14.9803226,29.0298925 C15.7863441,30.7133333 20.9444086,33.2566667 24.9024731,33.2566667 C26.4427957,33.2566667 27.803871,32.8626882 28.6456989,31.8955914 C25.8877419,29.1732258 23.1294624,26.4507527 20.3891398,23.7286022 C19.8876344,24.1762366 19.3682796,24.624086 18.8667742,25.0539785 C18.6697849,25.412043 18.3295699,25.6808602 18.0070968,25.9135484 L17.7204301,25.9135484 C16.5563441,24.7135484 15.3741935,23.5136559 14.2101075,22.2955914 C16.4130108,20.0747312 18.5980645,17.853871 20.7830108,15.6509677 C21.3025806,15.7226882 21.7502151,15.7584946 22.18,15.7584946 C23.1293548,15.7584946 23.8816129,15.5613978 24.9739785,15.1675269 C25.5830108,15.8301075 26.174086,16.4927957 26.7831183,17.1554839 L23.6307527,20.3076344 L31.9949462,28.6716129 C32.1739785,28.5462366 32.0484946,28.6716129 32.1919355,28.4746237 C32.8724731,27.8296774 32.944086,26.8806452 33.1411828,25.7167742 C34.0723656,20.4330108 31.0993548,16.4211828 28.4843011,14.218172 C27.338172,13.5196774 26.2097849,12.8211828 25.0635484,12.1226882 L25.422043,12.1226882 M25.422043,10.2958065 L25.0101075,10.2958065 C24.0070968,10.3316129 23.2011828,11.1734409 23.2369892,12.1763441 C23.2549462,12.7315054 23.5236559,13.2331183 23.9534409,13.5733333 C23.1833333,13.842043 22.7176344,13.9316129 22.1803226,13.9316129 C21.8041935,13.9316129 21.428172,13.8958065 21.052043,13.842043 C20.4788172,13.7524731 19.8878495,13.9494624 19.493871,14.3613978 L19.3863441,14.4689247 C17.2730108,16.6180645 15.087957,18.8210753 12.9387097,21.0060215 C12.2402129,21.7168345 12.2402129,22.8562838 12.9387097,23.5670968 C13.6372043,24.2835484 14.3356989,25.0001075 15.0162366,25.7164516 L16.4491398,27.1848387 C16.7894624,27.5431183 17.2730108,27.7401075 17.7565591,27.7401075 L18.0431183,27.7401075 C18.4193548,27.7401075 18.7953763,27.6147312 19.1178495,27.3996774 C19.511828,27.1132258 19.9417204,26.7551613 20.2998925,26.2715054 L20.3535484,26.2358065 L25.5833333,31.411828 C25.3683871,31.4296774 25.1355914,31.4477419 24.9384946,31.4477419 C23.416129,31.4477419 21.4997849,30.9819355 19.6730108,30.176129 C18.8491398,29.8178495 18.1147312,29.423871 17.5417204,29.012043 C16.8790323,28.5462366 16.6819355,28.2776344 16.664086,28.2419355 C16.2521505,27.3821505 15.2491398,26.988172 14.3537634,27.3283871 C13.3506452,27.7045161 12.7417204,28.4387097 12.294086,28.976129 C12.1149462,29.2090323 11.9178495,29.4417204 11.7747312,29.5313978 C11.1836559,29.9432258 10.8791398,30.6776344 11.0224731,31.376129 C11.094086,31.787957 11.2552688,32.1997849 11.4523656,32.575914 L11.1836559,32.8445161 C10.6283871,33.5430108 10.288172,34.2774194 10.1448387,35.0294624 C10.0015054,35.8176344 10.1090323,36.6055914 10.4493548,37.304086 C11.094086,38.6473118 12.5090323,39.4711828 14.1388172,39.4711828 C14.4792473,39.4711828 14.8194624,39.4354839 15.1597849,39.3636559 C15.4952356,39.2931669 15.8049717,39.1321443 16.0553763,38.8980645 C16.1449462,38.8086022 16.2345161,38.7369892 16.3239785,38.6473118 C16.6106452,38.3967742 16.9688172,38.092043 17.2553763,37.6443011 L17.9001075,37.9845161 L18.7956989,38.4503226 C18.8494624,38.4683871 18.8852688,38.504086 18.9390323,38.5219355 C20.4792473,39.1488172 22.3955914,39.4890323 24.4552688,39.4890323 C26.0851613,39.4890323 27.7148387,39.2739785 29.1478495,38.8621505 C29.864086,38.6651613 30.5805376,38.3967742 31.2433333,38.056129 C31.4580645,37.9488172 31.6551613,37.8415054 31.8522581,37.715914 L31.887957,37.751828 C32.1745161,38.056129 32.3893548,38.3427957 32.4432258,38.4503226 C32.7654839,39.0412903 33.3744086,39.3995699 34.0549462,39.3995699 L34.4311828,39.3995699 C34.9324731,39.3995699 35.416129,39.1847312 35.7564516,38.8264516 C36.7592473,37.7698925 37.7802151,36.6772043 38.8010753,35.6025806 C39.1225255,35.2643295 39.3019846,34.8156626 39.3024731,34.3490323 L39.3024731,33.9729032 C39.3024731,33.4894624 39.1055914,33.0236559 38.7653763,32.6834409 L37.833871,31.7522581 C38.2637634,31.0537634 38.6039785,30.3015054 38.8906452,29.5313978 C39.341,28.3244445 39.6066431,27.0564412 39.6786022,25.7702151 C39.821828,23.3343011 39.3024731,20.8448387 38.1741935,18.5703226 C37.6011828,17.3882796 36.8667742,16.2956989 36.0070968,15.3106452 C35.1507949,14.3102835 34.1627974,13.4306568 33.0701075,12.6958065 C30.7950538,11.1197849 28.1445161,10.2958065 25.422043,10.2958065 L25.422043,10.2958065 Z M26.2280645,20.3075269 L26.4967742,20.0388172 L28.0729032,18.4626882 C28.4847312,18.0508602 28.6817204,17.441828 28.5922581,16.8507527 C30.168172,18.5880645 32.0308602,21.5433333 31.3502151,25.393871 L30.6160215,24.6596774 L26.2280645,20.3075269 L26.2280645,20.3075269 Z" id="形状" fill="#FFFFFF"></path>
                <path d="M47.1501075,2 L47.7849462,47.1502151 L2.63483871,47.7850538 L2,2.63483871 L47.1501075,2 Z" id="形状" stroke-width="4"></path>
            </g>
        </g>
    </g>
</svg>