<?xml version="1.0" encoding="UTF-8"?>
<svg width="63px" height="51px" viewBox="0 0 63 51" version="1.1" xmlns="http://www.w3.org/2000/svg" xmlns:xlink="http://www.w3.org/1999/xlink">
    <title>跑0次事项</title>
    <g id="页面-1" stroke="none" stroke-width="1" fill="none" fill-rule="evenodd">
        <g id="Apple-TV" transform="translate(-642.000000, -35.000000)" fill="#FFFFFF" fill-rule="nonzero">
            <path d="M701.532068,48.3874246 C703.010956,48.3874246 704.209848,49.5863167 704.209848,51.0652041 L704.209848,82.4358924 C704.209848,83.9147798 703.010956,85.1136719 701.532068,85.1136719 L656.706794,85.1136719 C655.227906,85.1136719 654.029014,83.9147798 654.029014,82.4358924 C654.029014,80.957005 655.227906,79.758113 656.706794,79.758113 L698.854289,79.758113 L698.854289,51.0652041 C698.854289,49.5863167 700.053181,48.3874246 701.532068,48.3874246 Z M657.868615,35.1136719 C658.534713,35.1136719 659.176961,35.3619522 659.66984,35.8099782 L663.648602,39.4268214 L691.726793,39.4268214 C693.205681,39.4268214 694.404573,40.6257135 694.404573,42.1046009 L694.404573,72.009456 C694.404573,73.4883434 693.205681,74.6872355 691.726793,74.6872355 L644.712936,74.6872355 C643.234048,74.6872355 642.035156,73.4883434 642.035156,72.009456 L642.035156,37.7914513 C642.035156,36.3125639 643.234048,35.1136719 644.712936,35.1136719 L657.868615,35.1136719 Z M656.833402,40.4692308 L647.390715,40.4692308 L647.390715,69.3316766 L689.049014,69.3316766 L689.049014,44.7823803 L662.613389,44.7823803 C661.947277,44.7823742 661.305077,44.5341166 660.812164,44.086074 L656.833402,40.4692308 Z" id="跑0次事项"></path>
        </g>
    </g>
</svg>