<?xml version="1.0" encoding="UTF-8"?>
<svg width="50px" height="50px" viewBox="0 0 50 50" version="1.1" xmlns="http://www.w3.org/2000/svg" xmlns:xlink="http://www.w3.org/1999/xlink">
    <title>许可事项</title>
    <g id="页面-1" stroke="none" stroke-width="1" fill="none" fill-rule="evenodd">
        <g id="Apple-TV" transform="translate(-550.000000, -37.000000)" fill="#FFFFFF" fill-rule="nonzero">
            <path d="M550,87 L550,37 L578.125,37 L578.125,43.25 L556.25,43.25 L556.25,80.75 L593.75,80.75 L593.75,62 L600,62 L600,87 L550,87 Z M577.167857,68.4035714 C577.167857,68.4035714 577.167857,68.4035714 577.167857,68.4035714 L576.371429,69.2 C575.760714,69.8107143 574.771429,69.8107143 574.160714,69.2 C574.160714,69.2 574.160714,69.2 574.160714,69.2 L571.953571,66.9892857 C571.953571,66.9892857 571.953571,66.9892857 571.953571,66.9892857 L563.114286,58.15 C562.503571,57.5392857 562.503571,56.55 563.114286,55.9392857 L565.325,53.7285714 C565.935714,53.1178571 566.925,53.1178571 567.535714,53.7285714 L575.267857,61.4642857 L591.757143,44.975 C592.807143,43.925 594.153571,43.5678571 594.764286,44.1785714 L596.975,46.3892857 C597.585714,47 597.228571,48.3464286 596.178571,49.3964286 L577.167857,68.4035714 Z" id="许可事项"></path>
        </g>
    </g>
</svg>