<?xml version="1.0" encoding="UTF-8"?>
<svg width="50px" height="51px" viewBox="0 0 50 51" version="1.1" xmlns="http://www.w3.org/2000/svg" xmlns:xlink="http://www.w3.org/1999/xlink">
    <title>许可办件量</title>
    <g id="页面-1" stroke="none" stroke-width="1" fill="none" fill-rule="evenodd">
        <g id="Apple-TV" transform="translate(-751.000000, -34.000000)" fill="#FFFFFF" fill-rule="nonzero">
            <path d="M787.972314,34.1302084 C789.419682,34.1302084 790.603893,35.3144189 790.603893,36.7617873 L790.603893,36.7617873 L790.603893,47.4196821 C790.603893,48.3407347 789.945998,48.9986294 789.024945,49.2617873 C787.840735,49.6565242 786.656524,48.7354715 786.656524,47.4196821 L786.656524,47.4196821 L786.656524,38.0775768 L780.077577,38.0775768 L780.077577,48.0775768 C780.077577,49.2617873 779.419682,50.1828399 778.367051,50.5775768 L778.367051,50.5775768 L774.419682,52.1565242 C774.156524,52.2881032 773.761787,52.2881032 773.498629,52.2881032 L773.357304,52.287494 C773.107548,52.2844481 772.796875,52.2661733 772.577577,52.1565242 L772.577577,52.1565242 L768.630208,50.5775768 C767.577577,50.1828399 766.919682,49.1302084 766.919682,48.0775768 L766.919682,48.0775768 L766.919682,38.0775768 L755.077577,38.0775768 L755.077577,80.18284 L774.156524,80.18284 C775.209156,80.18284 776.130208,80.9723137 776.130208,82.1565242 C776.130208,83.2091558 775.209156,84.1302084 774.156524,84.1302084 L774.156524,84.1302084 L753.761787,84.1302084 C752.314419,84.1302084 751.130208,82.9459979 751.130208,81.4986295 L751.130208,81.4986295 L751.130208,36.7617873 C751.130208,35.3144189 752.314419,34.1302084 753.761787,34.1302084 L753.761787,34.1302084 Z M789.288103,53.8670505 C795.867051,53.8670505 801.130208,59.1302084 800.998629,65.7091558 C800.998629,69.2617874 799.419682,72.4196821 797.051261,74.5249453 L797.051261,74.5249453 L797.051261,82.8144189 C797.051261,83.6038926 796.393366,84.1302084 795.735472,84.1302084 C795.472314,84.1302084 795.209156,83.9986295 794.945998,83.8670505 L794.945998,83.8670505 L790.86705,81.1038926 L789.814419,80.4459979 C789.68284,80.18284 789.419682,80.18284 789.156524,80.18284 C788.893366,80.18284 788.761787,80.314419 788.498629,80.4459979 L788.498629,80.4459979 L787.445998,81.1038926 L783.36705,83.8670505 C783.103893,83.9986295 782.840735,84.1302084 782.577577,84.1302084 C781.919682,84.1302084 781.261787,83.6038926 781.261787,82.8144189 L781.261787,82.8144189 L781.261787,74.3933663 C778.893366,72.2881032 777.445998,69.1302084 777.445998,65.7091558 C777.445998,59.1302084 782.709156,53.8670505 789.288103,53.8670505 Z M789.288103,57.8144189 C784.945998,57.8144189 781.393366,61.3670505 781.393366,65.7091558 C781.393366,67.9459979 782.314419,70.0512611 784.024945,71.3670505 L784.024945,71.3670505 L785.340735,72.551261 L785.340735,77.68284 L786.393366,77.0249452 C787.314419,76.4986295 788.235472,76.2354715 789.288103,76.2354715 C790.340735,76.2354716 791.261787,76.6302085 792.18284,77.1565242 L792.18284,77.1565242 L793.235472,77.8144189 L793.235472,72.68284 L794.551261,71.4986294 C796.261787,70.0512611 797.18284,67.9459979 797.18284,65.7091558 C797.18284,61.3670505 793.630208,57.8144189 789.288103,57.8144189 Z M776.130208,38.0775768 L770.867051,38.0775768 L770.867051,47.2881031 L773.498629,48.3407347 L776.130208,47.2881031 L776.130208,38.0775768 Z" id="许可办件量"></path>
        </g>
    </g>
</svg>