<?xml version="1.0" encoding="UTF-8"?>
<svg width="57px" height="52px" viewBox="0 0 57 52" version="1.1" xmlns="http://www.w3.org/2000/svg" xmlns:xlink="http://www.w3.org/1999/xlink">
    <title>检测预警</title>
    <g id="页面-1" stroke="none" stroke-width="1" fill="none" fill-rule="evenodd">
        <g id="Apple-TV" transform="translate(-292.000000, -36.000000)" fill="#FFFFFF" fill-rule="nonzero" stroke="#FFFFFF">
            <path d="M331.831361,83.2278107 C333.005401,83.2278107 333.620374,83.7868771 333.67628,84.9050101 L333.680473,85.0769231 C333.680473,86.3096647 333.064103,86.9260355 331.831361,86.9260355 L309.642012,86.9260355 C308.467972,86.9260355 307.852999,86.366969 307.797092,85.248836 L307.792899,85.0769231 C307.792899,83.8441815 308.40927,83.2278107 309.642012,83.2278107 L331.831361,83.2278107 Z M341.076923,37 C344.014345,37 346.442686,39.2895312 346.615015,42.2218935 L346.62426,42.5473373 L346.62426,51.7928994 C346.623175,52.7712526 345.860188,53.5794467 344.883516,53.6367827 C343.906843,53.6941187 343.054532,52.9807515 342.938979,52.0092456 L342.926036,51.7928994 L342.926036,42.5473373 C342.925912,41.6098838 342.224284,40.8208507 341.293269,40.7111686 L341.076923,40.6982249 L298.547337,40.6982249 C297.609884,40.6983485 296.820851,41.3999762 296.711169,42.3309911 L296.698225,42.5473373 L296.698225,73.9822485 C296.698349,74.919702 297.399976,75.7087351 298.330991,75.8184172 L298.547337,75.8313609 L324.434911,75.8313609 C325.413264,75.8324461 326.221459,76.5954335 326.278795,77.5721058 C326.336131,78.548778 325.622763,79.4010895 324.651257,79.516642 L324.434911,79.5295858 L298.547337,79.5295858 C295.609916,79.5295858 293.181574,77.2400546 293.009246,74.3076923 L293,73.9822485 L293,42.5473373 C293,39.6099157 295.289531,37.1815743 298.221893,37.0092456 L298.547337,37 L341.076923,37 Z M326.775512,49.3746221 C327.281321,49.356145 327.757026,49.6146942 328.016642,50.0491864 L328.109098,50.2340976 L331.076364,57.4537199 C332.866307,56.2160788 335.037842,55.4911243 337.378698,55.4911243 C343.506118,55.4911243 348.473373,60.4583793 348.473373,66.5857988 C348.473373,72.7132184 343.506118,77.6804734 337.378698,77.6804734 C331.251279,77.6804734 326.284024,72.7132184 326.284024,66.5857988 C326.284024,63.8610779 327.266236,61.3657649 328.895905,59.4346143 L328.872781,59.3872041 L326.698225,54.0968935 L320.568417,66.2843935 C320.352705,66.7132437 319.930553,67.0000408 319.452396,67.0425855 C318.974239,67.0851302 318.508084,66.8773713 318.220044,66.4933432 L318.109098,66.3195266 L312.998151,56.8372781 L311.149038,61.1845414 C310.960654,61.6274232 310.556122,61.9409705 310.080251,62.0129438 L309.875,62.0295858 L304.094675,62.0295858 C303.360011,62.0370571 302.747002,61.4702819 302.696958,60.7372868 C302.646914,60.0042916 303.177203,59.35946 303.906065,59.2670118 L304.094675,59.2559172 L308.955991,59.254068 L311.574334,53.0983728 C311.767769,52.6424165 312.189684,52.3242292 312.681249,52.263594 C313.172814,52.2029587 313.659404,52.4090805 313.95784,52.8043639 L314.072485,52.9837278 L319.286982,62.658284 L325.586908,50.1379438 C325.814131,49.6856675 326.269703,49.3930991 326.775512,49.3746221 Z M337.378698,58.2647929 C332.783134,58.2647929 329.057692,61.9902341 329.057692,66.5857988 C329.057692,71.1813635 332.783134,74.9068047 337.378698,74.9068047 C341.974263,74.9068047 345.699704,71.1813635 345.699704,66.5857988 C345.699704,61.9902341 341.974263,58.2647929 337.378698,58.2647929 Z M338.863536,61.0384615 C339.407175,61.0384615 339.738166,61.6893491 339.453402,62.1923077 L337.611686,65.4375 L339.457101,65.4375 C339.989645,65.4375 340.318787,66.0625 340.065459,66.5599112 L340.046967,66.5968935 L337.075444,71.7725592 C336.626109,72.5528846 335.529586,71.9463757 335.843935,71.0883876 L337.127219,67.5972633 L335.298447,67.5972633 C334.817678,67.5972633 334.488536,67.0813609 334.643861,66.5950444 L334.658654,66.5543639 L336.559541,61.506287 C336.654339,61.2321532 336.909362,61.0456767 337.199334,61.0384615 L338.863536,61.0384615 Z" id="检测预警"></path>
        </g>
    </g>
</svg>