<?xml version="1.0" encoding="UTF-8"?>
<svg width="51px" height="50px" viewBox="0 0 51 50" version="1.1" xmlns="http://www.w3.org/2000/svg" xmlns:xlink="http://www.w3.org/1999/xlink">
    <title>覆盖领域</title>
    <g id="页面-1" stroke="none" stroke-width="1" fill="none" fill-rule="evenodd">
        <g id="Apple-TV" transform="translate(-1371.000000, -193.000000)" fill="#FFFFFF" fill-rule="nonzero">
            <path d="M1394.12575,196.846154 C1395.18784,196.846154 1396.04883,197.707145 1396.04883,198.769231 L1396.04883,198.769231 L1396.04883,218 L1415.2796,218 C1416.34168,218 1417.20267,218.860991 1417.20267,219.923077 C1417.20267,229.256821 1411.58016,237.671505 1402.95691,241.243374 C1394.33365,244.815243 1384.40786,242.84088 1377.8079,236.240926 C1371.20795,229.640972 1369.23359,219.715176 1372.80545,211.091921 C1376.37732,202.468666 1384.79201,196.846154 1394.12575,196.846154 Z M1392.20267,200.692308 C1381.58181,201.223351 1373.4024,210.263755 1373.93344,220.884615 C1374.46449,231.505476 1383.50489,239.684889 1394.12575,239.153846 C1404.03879,239.203524 1412.36533,231.70964 1413.35652,221.846154 L1413.35652,221.846154 L1394.12575,221.846154 C1393.61572,221.846154 1393.12658,221.643545 1392.76593,221.282898 C1392.40528,220.922251 1392.20267,220.433109 1392.20267,219.923077 L1392.20267,219.923077 Z M1399.89498,193 C1405.50533,193 1410.88589,195.228702 1414.85301,199.195818 C1418.82013,203.162934 1421.04883,208.543497 1421.04883,214.153846 C1421.04883,214.663878 1420.84622,215.15302 1420.48557,215.513667 C1420.12493,215.874314 1419.63578,216.076923 1419.12575,216.076923 L1419.12575,216.076923 L1399.89498,216.076923 C1399.38495,216.076923 1398.89581,215.874314 1398.53516,215.513667 C1398.17451,215.15302 1397.97191,214.663878 1397.97191,214.153846 L1397.97191,214.153846 L1397.97191,194.923077 C1397.97191,194.413045 1398.17451,193.923903 1398.53516,193.563256 C1398.89581,193.202609 1399.38495,193 1399.89498,193 Z M1401.81806,196.961538 L1401.81806,212.230769 L1417.08729,212.230769 C1416.186,204.200666 1409.84816,197.862824 1401.81806,196.961538 L1401.81806,196.961538 Z" id="覆盖领域"></path>
        </g>
    </g>
</svg>