<?xml version="1.0" encoding="UTF-8"?>
<svg width="30px" height="30px" viewBox="0 0 30 30" version="1.1" xmlns="http://www.w3.org/2000/svg" xmlns:xlink="http://www.w3.org/1999/xlink">
    <title>乡镇执法</title>
    <g id="页面-1" stroke="none" stroke-width="1" fill="none" fill-rule="evenodd">
        <g id="Apple-TV" transform="translate(-238.000000, -146.000000)" fill-rule="nonzero" stroke="#FFFFFF" stroke-width="2">
            <path d="M264.102273,173.721591 L266.176136,173.721591 L266.176136,174.427557 L239.74929,174.427557 L239.74929,173.721591 L264.102273,173.721591 Z M266.411009,157.506392 L265.208128,157.506392 L266.411963,160.72017 L265.208686,160.72017 L266.412521,163.9375 L264.102,163.937 L262.434922,163.9375 L263.64586,160.72017 L262.435,160.72 L263.646422,157.506392 L262.434,157.506 L264.423521,152.210539 L266.411009,157.506392 Z M249.193785,147.295788 L258.755398,156.775105 L257.433534,157.439534 L257.433534,170.879972 L241.184244,170.879972 L241.184244,157.056108 L240.779,157.056 L249.193785,147.295788 Z M254.522312,163.846591 L248.857539,163.846591 L248.857539,169.511364 L254.522312,169.511364 L254.522312,163.846591 Z M248.467624,163.846591 L242.802852,163.846591 L242.802852,169.511364 L248.467624,169.511364 L248.467624,163.846591 Z M254.522312,157.056108 L248.857539,157.056108 L248.857539,162.720881 L254.522312,162.720881 L254.522312,157.056108 Z M248.467624,157.056108 L242.802852,157.056108 L242.802852,162.720881 L248.467624,162.720881 L248.467624,157.056108 Z" id="乡镇执法"></path>
        </g>
    </g>
</svg>