<?xml version="1.0" encoding="UTF-8"?>
<svg width="58px" height="52px" viewBox="0 0 58 52" version="1.1" xmlns="http://www.w3.org/2000/svg" xmlns:xlink="http://www.w3.org/1999/xlink">
    <title>基层法治审核</title>
    <g id="页面-1" stroke="none" stroke-width="1" fill="none" fill-rule="evenodd">
        <g id="Apple-TV" transform="translate(-1590.000000, -38.000000)" fill="#FFFFFF" fill-rule="nonzero" stroke="#FFFFFF">
            <path d="M1645.61343,44.8786795 L1641.22337,44.8786795 L1641.22337,43.3486203 L1639.735,42.6315353 C1639.43483,42.4856169 1632.34319,39.0961396 1626.13957,39.0961396 C1623.23371,39.0961396 1620.91152,39.8340701 1619.19385,41.2932546 C1617.48035,39.8340701 1615.15817,39.0961396 1612.2523,39.0961396 C1606.04869,39.0961396 1598.95288,42.4856168 1598.66104,42.6273662 L1597.16851,43.3486203 L1597.16851,44.8786795 L1592.89101,44.8786795 C1591.91544,44.8786795 1591.12748,45.8459103 1591.12748,47.0466108 L1591.12748,86.9282084 C1591.12748,88.1247396 1591.91961,89.0961396 1592.89101,89.0961396 L1645.6176,89.0961396 C1646.589,89.0961396 1647.37696,88.1247396 1647.37696,86.9282084 L1647.37696,47.0424417 C1647.37696,45.8459104 1646.58483,44.8786795 1645.61343,44.8786795 L1645.61343,44.8786795 Z M1638.88034,45.3164348 L1638.88034,76.9724008 C1635.24071,75.4381725 1625.58091,71.9694824 1620.37371,75.7091639 L1620.37371,43.8280666 C1621.84123,42.4772787 1623.91327,41.985325 1626.14374,41.985325 C1631.97214,41.985325 1638.88034,45.3164348 1638.88034,45.3164348 L1638.88034,45.3164348 Z M1636.22045,78.9402153 L1620.74059,78.9402153 C1623.76319,75.4214961 1631.23838,77.1141501 1636.22045,78.9402153 Z M1612.25647,41.985325 C1614.48694,41.985325 1616.55481,42.4856168 1618.02234,43.8280666 L1618.02234,75.7091639 C1612.81513,71.9694824 1603.15533,75.4381725 1599.51988,76.9724008 L1599.51988,45.3164348 C1599.51988,45.3164348 1606.4239,41.9811559 1612.25647,41.9811559 L1612.25647,41.985325 Z M1617.65963,78.9402153 L1602.17559,78.9402153 C1607.1535,77.1141501 1614.63703,75.417327 1617.65963,78.9402153 L1617.65963,78.9402153 Z M1593.98748,85.8817646 L1593.98748,49.2062039 L1597.17267,49.2062039 L1597.17267,81.8335698 L1641.22337,81.8335698 L1641.22337,49.2062039 L1644.56699,49.2062039 L1644.56699,85.8775955 L1593.98748,85.8775955 L1593.98748,85.8817646 Z" id="基层法治审核"></path>
        </g>
    </g>
</svg>