<?xml version="1.0" encoding="UTF-8"?>
<svg width="43px" height="50px" viewBox="0 0 43 50" version="1.1" xmlns="http://www.w3.org/2000/svg" xmlns:xlink="http://www.w3.org/1999/xlink">
    <title>监管一件事</title>
    <g id="页面-1" stroke="none" stroke-width="1" fill="none" fill-rule="evenodd">
        <g id="Apple-TV" transform="translate(-1699.000000, -116.000000)" fill="#FFFFFF" fill-rule="nonzero">
            <path d="M1720.19671,116.010598 L1741.39341,126.023922 L1741.39341,143.210211 C1741.39341,152.410792 1733.84012,162.072856 1721.8234,165.493399 L1721.32074,165.632691 L1720.19671,165.923389 L1719.05935,165.629058 C1707.13953,162.441073 1699.45785,153.075763 1699.01817,143.930899 L1699.00363,143.539668 L1699,126.025133 L1720.19671,116.009387 L1720.19671,116.010598 Z M1720.19549,120.029494 L1702.63251,128.325279 L1702.63735,143.49243 C1702.82389,150.850715 1709.04118,158.784339 1719.00848,161.835453 L1719.49297,161.979591 L1719.98474,162.11525 L1720.19428,162.169755 L1720.39535,162.118883 C1730.79142,159.337876 1737.34787,151.380027 1737.74031,143.918786 L1737.75484,143.563893 L1737.75969,143.210211 L1737.75969,128.325279 L1720.19549,120.029494 Z M1718.21391,131.01181 C1721.11276,131.011474 1723.7782,132.601286 1725.15542,135.152103 C1726.53263,137.70292 1726.39965,140.803626 1724.80911,143.227168 L1729.53537,147.953428 L1726.96512,150.522468 L1722.1686,145.725957 C1719.29819,147.387372 1715.69508,147.075707 1713.15258,144.946081 C1710.61009,142.816455 1709.67138,139.323839 1710.80367,136.206546 C1711.93596,133.089253 1714.89734,131.01326 1718.21391,131.01181 L1718.21391,131.01181 Z M1718.21391,134.64553 C1716.69402,134.645355 1715.28952,135.456101 1714.52953,136.772327 C1713.76954,138.088553 1713.76954,139.71026 1714.52953,141.026486 C1715.28952,142.342712 1716.69402,143.153458 1718.21391,143.153282 C1720.56306,143.153011 1722.46729,141.248565 1722.46729,138.899406 C1722.46729,136.550248 1720.56306,134.645802 1718.21391,134.64553 L1718.21391,134.64553 Z" id="监管一件事"></path>
        </g>
    </g>
</svg>