<?xml version="1.0" encoding="UTF-8"?>
<svg width="42px" height="42px" viewBox="0 0 42 42" version="1.1" xmlns="http://www.w3.org/2000/svg" xmlns:xlink="http://www.w3.org/1999/xlink">
    <title>进度</title>
    <defs>
        <linearGradient x1="50%" y1="17.0823815%" x2="82.5846354%" y2="152.551042%" id="linearGradient-1">
            <stop stop-color="#47E0DF" offset="0%"></stop>
            <stop stop-color="#068BF6" offset="100%"></stop>
        </linearGradient>
    </defs>
    <g id="页面-1" stroke="none" stroke-width="1" fill="none" fill-rule="evenodd">
        <g id="Apple-TV" transform="translate(-1590.000000, -196.000000)" fill="url(#linearGradient-1)" fill-rule="nonzero">
            <path d="M1625.23242,237.958984 L1596.76758,237.958984 C1593.03516,237.958984 1590,234.923828 1590,231.191406 C1590,227.458984 1593.03516,224.423828 1596.76758,224.423828 L1625.23242,224.423828 C1628.96484,224.423828 1632,227.458984 1632,231.191406 C1632,234.923828 1628.96484,237.958984 1625.23242,237.958984 Z M1596.76758,228.115234 C1595.06953,228.115234 1593.69141,229.493359 1593.69141,231.191406 C1593.69141,232.889453 1595.06953,234.267578 1596.76758,234.267578 L1625.23242,234.267578 C1626.93047,234.267578 1628.30859,232.889453 1628.30859,231.191406 C1628.30859,229.493359 1626.93047,228.115234 1625.23242,228.115234 L1596.76758,228.115234 Z M1600.35234,220.999023 C1599.88066,220.999023 1599.40898,220.818555 1599.04805,220.457617 C1598.32617,219.735742 1598.32617,218.566797 1599.04805,217.849023 L1620.33926,196.557813 C1621.06113,195.835938 1622.23008,195.835938 1622.94785,196.557813 C1623.66973,197.279688 1623.66973,198.448633 1622.94785,199.166406 L1601.66074,220.457617 C1601.2998,220.818555 1600.82812,220.999023 1600.35234,220.999023 L1600.35234,220.999023 Z M1603.6582,207.484375 C1600.51641,207.484375 1597.95703,204.925 1597.95703,201.783203 C1597.95703,198.641406 1600.51641,196.082031 1603.6582,196.082031 C1606.8,196.082031 1609.35938,198.641406 1609.35938,201.783203 C1609.35938,204.925 1606.8,207.484375 1603.6582,207.484375 Z M1603.6582,199.773438 C1602.55078,199.773438 1601.64844,200.675781 1601.64844,201.783203 C1601.64844,202.890625 1602.55078,203.792969 1603.6582,203.792969 C1604.76562,203.792969 1605.66797,202.890625 1605.66797,201.783203 C1605.66797,200.675781 1604.76562,199.773438 1603.6582,199.773438 Z M1617.43945,221.716797 C1614.29766,221.716797 1611.73828,219.157422 1611.73828,216.015625 C1611.73828,212.873828 1614.29766,210.314453 1617.43945,210.314453 C1620.58125,210.314453 1623.14062,212.873828 1623.14062,216.015625 C1623.14062,219.157422 1620.58125,221.716797 1617.43945,221.716797 Z M1617.43945,214.005859 C1616.33203,214.005859 1615.42969,214.908203 1615.42969,216.015625 C1615.42969,217.123047 1616.33203,218.025391 1617.43945,218.025391 C1618.54688,218.025391 1619.44922,217.123047 1619.44922,216.015625 C1619.44922,214.908203 1618.54688,214.005859 1617.43945,214.005859 Z" id="进度"></path>
        </g>
    </g>
</svg>