<?xml version="1.0" encoding="UTF-8"?>
<svg width="50px" height="50px" viewBox="0 0 50 50" version="1.1" xmlns="http://www.w3.org/2000/svg" xmlns:xlink="http://www.w3.org/1999/xlink">
    <title>精简队伍数</title>
    <g id="页面-1" stroke="none" stroke-width="1" fill="none" fill-rule="evenodd">
        <g id="Apple-TV" transform="translate(-1429.000000, -36.000000)" fill="#FFFFFF" fill-rule="nonzero">
            <path d="M1467.37281,44.5276923 L1475.14512,49.1938461 C1477.16732,50.4085948 1478.40435,52.5948355 1478.40435,54.9538461 L1478.40435,79.2830769 C1478.40435,82.9930769 1475.39896,86 1471.69127,86 L1435.88743,86 C1432.17973,86 1429.17435,82.9930769 1429.17435,79.2830769 L1429.17435,54.9538461 C1429.17362,52.5942469 1430.41079,50.4072284 1432.43358,49.1923077 L1440.20589,44.5276923 L1442.5082,48.3669231 L1434.73589,53.0330769 C1434.06126,53.4381547 1433.64887,54.1677149 1433.64973,54.9546154 L1433.64973,79.2830769 C1433.64953,79.8767538 1433.88517,80.4461964 1434.30482,80.8661336 C1434.72447,81.2860708 1435.29375,81.5221037 1435.88743,81.5223077 L1471.69127,81.5223077 C1472.28495,81.5221037 1472.85423,81.2860708 1473.27388,80.8661336 C1473.69353,80.4461964 1473.92917,79.8767538 1473.92896,79.2830769 L1473.92896,54.9538461 C1473.92956,54.1672198 1473.5172,53.4380137 1472.84281,53.0330769 L1465.0705,48.3669231 L1467.37281,44.5276923 Z M1453.78973,36 L1462.7405,41.3730769 L1458.92896,49.4330769 L1458.79896,49.4330769 L1461.24896,69.9353846 L1453.78973,76.2984615 L1446.3305,69.9353846 L1448.7782,49.4330769 L1448.67358,49.4330769 L1444.8382,41.3730769 L1453.78973,36 Z M1454.86512,49.4330769 L1452.71204,49.4330769 L1450.45666,68.3207692 L1453.78973,71.1623077 L1457.12204,68.3207692 L1454.86358,49.4330769 L1454.86512,49.4330769 L1454.86512,49.4330769 Z M1453.78973,41.2223077 L1450.62666,43.1207692 L1451.49896,44.9553846 L1456.09435,44.9553846 L1456.95973,43.1253846 L1453.78973,41.2238461 L1453.78973,41.2223077 Z" id="精简队伍数"></path>
        </g>
    </g>
</svg>