<?xml version="1.0" encoding="UTF-8"?>
<svg width="56px" height="50px" viewBox="0 0 56 50" version="1.1" xmlns="http://www.w3.org/2000/svg" xmlns:xlink="http://www.w3.org/1999/xlink">
    <title>减少企业干扰</title>
    <g id="页面-1" stroke="none" stroke-width="1" fill="none" fill-rule="evenodd">
        <g id="Apple-TV" transform="translate(-1686.000000, -45.000000)" fill="#FFFFFF" fill-rule="nonzero">
            <path d="M1709.63281,45 L1715.18837,50.5555555 L1738.79948,50.5555555 C1740.46615,50.5555555 1741.57726,51.6666667 1741.57726,53.3333333 L1741.57726,53.3333333 L1741.57726,92.2222222 C1741.57726,93.8888889 1740.46615,95 1738.79948,95 L1738.79948,95 L1688.79948,95 C1687.13281,95 1686.0217,93.8888889 1686.0217,92.2222222 L1686.0217,92.2222222 L1686.0217,47.7777778 C1686.0217,46.1111111 1687.13281,45 1688.79948,45 L1688.79948,45 L1709.63281,45 Z M1707.41059,50.5555555 L1691.57726,50.5555555 L1691.57726,89.4444445 L1736.0217,89.4444445 L1736.0217,56.1111111 L1712.96615,56.1111111 L1707.41059,50.5555555 Z M1724.91059,70 L1724.91059,75.5555555 L1702.68837,75.5555555 L1702.68837,70 L1724.91059,70 Z" id="减少企业干扰"></path>
        </g>
    </g>
</svg>