<?xml version="1.0" encoding="UTF-8"?>
<svg width="42px" height="42px" viewBox="0 0 42 42" version="1.1" xmlns="http://www.w3.org/2000/svg" xmlns:xlink="http://www.w3.org/1999/xlink">
    <title>目标</title>
    <defs>
        <linearGradient x1="50%" y1="17.0000402%" x2="82.5846354%" y2="152.807567%" id="linearGradient-1">
            <stop stop-color="#47E0DF" offset="0%"></stop>
            <stop stop-color="#068BF6" offset="100%"></stop>
        </linearGradient>
    </defs>
    <g id="页面-1" stroke="none" stroke-width="1" fill="none" fill-rule="evenodd">
        <g id="Apple-TV" transform="translate(-1520.000000, -196.000000)" fill="url(#linearGradient-1)" fill-rule="nonzero">
            <path d="M1553.80136,215.424586 C1555.19923,221.746576 1552.31314,228.24142 1546.68424,231.440961 C1541.05534,234.640501 1533.99831,233.797457 1529.28149,229.362002 C1524.56468,224.926547 1523.28975,217.934621 1526.13749,212.119817 C1528.98523,206.305013 1535.29053,203.02543 1541.68645,204.03232 L1545.42125,200.182597 C1536.86544,197.38678 1527.51075,200.848652 1522.83613,208.540625 C1518.16152,216.232599 1519.39713,226.130483 1525.81929,232.437176 C1532.24145,238.743869 1542.16012,239.799726 1549.76602,234.98634 C1557.37193,230.172955 1560.66353,220.757 1557.71297,212.253315 L1553.80136,215.424586 Z M1554.93507,198.686464 C1555.04335,199.888674 1555.15606,201.088674 1555.24667,202.293094 C1555.23177,202.438086 1555.28424,202.581896 1555.38901,202.683222 C1555.49379,202.784547 1555.63927,202.832177 1555.78368,202.812431 C1557.6975,202.967127 1559.6091,203.146133 1561.52954,203.320718 C1561.68375,203.298009 1561.84116,203.325925 1561.97816,203.400276 C1561.92969,203.534498 1561.83795,203.648784 1561.71739,203.725138 L1554.68534,210.774862 C1554.51093,210.977659 1554.2452,211.077617 1553.98037,211.040055 C1552.74943,210.914088 1551.51407,210.819061 1550.28313,210.690884 C1550.02073,210.646125 1549.75388,210.74065 1549.57816,210.940608 C1546.40689,214.127348 1546.46877,214.05663 1543.29529,217.23895 C1542.84002,217.795592 1542.09296,218.021021 1541.40578,217.809116 C1540.85421,217.646648 1540.41956,217.220482 1540.24626,216.672212 C1540.07296,216.123942 1540.1837,215.525386 1540.5417,215.075414 C1540.66365,214.929223 1540.79427,214.790484 1540.93286,214.659945 C1544.05551,211.537293 1543.92954,211.65884 1547.05882,208.542818 C1547.29792,208.340666 1547.41225,208.027115 1547.35937,207.718508 C1547.21352,206.474309 1547.13838,205.221271 1547.01462,203.961602 C1546.98464,203.774997 1547.0502,203.585788 1547.18921,203.457735 C1549.64372,201.015009 1552.09308,198.567864 1554.53728,196.116298 C1554.58454,196.085414 1554.63403,196.058083 1554.68534,196.03453 C1554.76932,196.951657 1554.85109,197.815746 1554.92844,198.686464 L1554.93507,198.686464 Z M1547.4986,218.631215 C1547.4937,222.085694 1545.29892,225.157087 1542.03231,226.280782 C1538.76569,227.404476 1535.14588,226.333267 1533.01686,223.612845 C1530.88783,220.892424 1530.71796,217.12126 1532.59378,214.220442 C1534.4696,211.319624 1537.97845,209.927309 1541.33286,210.752762 L1540.12623,211.946133 L1538.16379,213.908564 C1535.83538,214.517707 1534.30306,216.738754 1534.56028,219.131745 C1534.8175,221.524735 1536.78683,223.369398 1539.19151,223.469792 C1541.59619,223.570187 1543.71243,221.896096 1544.16821,219.532873 L1545.9207,217.778177 L1547.21352,216.483149 C1547.40326,217.180373 1547.49914,217.899795 1547.4986,218.622376 L1547.4986,218.631215 Z" id="目标"></path>
        </g>
    </g>
</svg>