<?xml version="1.0" encoding="UTF-8"?>
<svg width="44px" height="50px" viewBox="0 0 44 50" version="1.1" xmlns="http://www.w3.org/2000/svg" xmlns:xlink="http://www.w3.org/1999/xlink">
    <title>实施事项数</title>
    <g id="页面-1" stroke="none" stroke-width="1" fill="none" fill-rule="evenodd">
        <g id="Apple-TV" transform="translate(-1437.000000, -193.000000)" fill="#FFFFFF" fill-rule="nonzero">
            <path d="M1458.87488,193 L1480.74975,205.500497 L1480.74975,230.499503 L1458.87488,243 L1437,230.499503 L1437,205.500497 L1458.87488,193 Z M1458.87488,197.796564 L1441.15623,207.922642 L1441.15623,228.077358 L1458.87488,238.203436 L1476.59353,228.077358 L1476.59353,207.922642 L1458.87488,197.796564 Z M1469.81231,207.584576 L1472.96826,209.406157 L1472.96826,213.053295 L1469.81231,214.874876 L1468.30891,214.005847 L1460.69248,217.818041 L1460.69248,226.862308 L1462.03082,227.633894 L1462.03082,231.281032 L1458.87488,233.102613 L1455.71893,231.281032 L1455.71893,227.633894 L1457.05528,226.862308 L1457.05528,217.822018 L1449.43885,214.005847 L1447.93744,214.874876 L1444.78149,213.053295 L1444.78149,209.406157 L1447.93744,207.584576 L1451.09339,209.406157 L1451.09339,210.758422 L1458.87488,214.656127 L1466.65637,210.756433 L1466.65637,209.406157 L1469.81231,207.584576 Z" id="实施事项数"></path>
        </g>
    </g>
</svg>