<?xml version="1.0" encoding="UTF-8"?>
<svg width="50px" height="50px" viewBox="0 0 50 50" version="1.1" xmlns="http://www.w3.org/2000/svg" xmlns:xlink="http://www.w3.org/1999/xlink">
    <title>问题检出率</title>
    <g id="页面-1" stroke="none" stroke-width="1" fill="none" fill-rule="evenodd">
        <g id="Apple-TV" transform="translate(-1534.000000, -115.000000)" fill="#FFFFFF" fill-rule="nonzero">
            <path d="M1576.23627,115.043804 C1580.36922,115.043804 1583.75072,118.425307 1583.75072,122.558255 L1583.75072,157.240336 C1583.75072,161.373284 1580.39812,164.754787 1576.23627,164.754787 L1541.55419,164.754787 C1537.42124,164.754787 1534.03974,161.373284 1534.03974,157.240336 L1534.03974,122.558255 C1534.03974,118.425307 1537.42124,115.043804 1541.55419,115.043804 L1576.23627,115.043804 Z M1576.23627,118.512012 L1541.55419,118.512012 C1539.32876,118.512012 1537.50795,120.332822 1537.50795,122.558255 L1537.50795,157.240336 C1537.50795,159.46577 1539.32876,161.286579 1541.55419,161.286579 L1576.23627,161.286579 C1578.46171,161.286579 1580.28251,159.46577 1580.28251,157.240336 L1580.28251,122.558255 C1580.28251,120.332822 1578.46171,118.512012 1576.23627,118.512012 Z M1556.43858,122.413746 C1564.73338,122.413746 1571.46749,129.14785 1571.46749,137.442648 C1571.46749,140.986885 1570.23803,144.246183 1568.18269,146.816964 L1575.97616,154.610278 C1576.6409,155.275018 1576.6409,156.373284 1575.97616,157.066926 C1575.62934,157.413746 1575.16691,157.587157 1574.73338,157.587157 C1574.29986,157.587157 1573.83743,157.413746 1573.51951,157.066926 L1565.7158,149.263738 C1563.16027,151.272754 1559.93835,152.47155 1556.43858,152.47155 C1548.14379,152.47155 1541.40968,145.737446 1541.40968,137.442648 C1541.40968,129.14785 1548.14379,122.413746 1556.43858,122.413746 Z M1556.43858,125.881954 C1550.0513,125.881954 1544.87789,131.055365 1544.87789,137.442648 C1544.87789,143.829931 1550.0513,149.003342 1556.43858,149.003342 C1559.54736,149.003342 1562.36858,147.777813 1564.44572,145.783281 C1564.48132,145.736897 1564.51941,145.693066 1564.55997,145.650741 C1564.6105,145.600208 1564.66354,145.553517 1564.71872,145.510668 C1566.74897,143.429365 1567.99928,140.58269 1567.99928,137.442648 C1567.99928,131.055365 1562.82587,125.881954 1556.43858,125.881954 Z M1556.43858,142.413746 C1557.39234,142.413746 1558.17269,143.194093 1558.17269,144.14785 L1558.17269,144.379064 C1558.17269,145.361723 1557.42124,146.113168 1556.43858,146.113168 C1555.48483,146.113168 1554.70448,145.332822 1554.70448,144.379064 L1554.70448,144.14785 C1554.70448,143.194093 1555.48483,142.413746 1556.43858,142.413746 Z M1556.43858,128.714324 C1559.27095,128.714324 1561.61199,131.026463 1561.61199,133.887735 C1561.61199,136.113168 1560.16691,138.049585 1558.17269,138.743226 L1558.17269,139.263457 C1558.17269,140.246116 1557.42124,141.026463 1556.43858,141.026463 C1555.48483,141.026463 1554.70448,140.246116 1554.70448,139.292359 L1554.70448,137.327041 C1554.70448,136.373284 1555.48483,135.592937 1556.43858,135.592937 C1557.36344,135.592937 1558.14379,134.841492 1558.14379,133.887735 C1558.14379,132.933978 1557.39234,132.182533 1556.43858,132.182533 C1555.48483,132.182533 1554.73338,132.933978 1554.73338,133.887735 C1554.73338,134.841492 1553.95303,135.621839 1552.99928,135.621839 C1552.04552,135.621839 1551.26517,134.841492 1551.26517,133.887735 C1551.26517,131.055365 1553.57731,128.714324 1556.43858,128.714324 Z" id="问题检出率"></path>
        </g>
    </g>
</svg>