<?xml version="1.0" encoding="UTF-8"?>
<svg width="51px" height="51px" viewBox="0 0 51 51" version="1.1" xmlns="http://www.w3.org/2000/svg" xmlns:xlink="http://www.w3.org/1999/xlink">
    <title>信用监管率</title>
    <g id="页面-1" stroke="none" stroke-width="1" fill="none" fill-rule="evenodd">
        <g id="Apple-TV" transform="translate(-1615.000000, -115.000000)" fill="#FFFFFF" fill-rule="nonzero">
            <path d="M1640.07812,115.078125 C1653.88524,115.078125 1665.07812,126.271006 1665.07812,140.078125 C1665.07812,153.885244 1653.88524,165.078125 1640.07812,165.078125 C1626.27101,165.078125 1615.07812,153.885244 1615.07812,140.078125 C1615.07812,126.271006 1626.27101,115.078125 1640.07812,115.078125 Z M1640.07812,118.828125 C1628.34207,118.828125 1618.82812,128.342074 1618.82812,140.078125 C1618.82812,151.814176 1628.34207,161.328125 1640.07812,161.328125 C1651.81418,161.328125 1661.32812,151.814176 1661.32812,140.078125 C1661.32812,128.342074 1651.81418,118.828125 1640.07812,118.828125 Z M1640.07812,124.453125 L1645.4375,133.50625 L1655.70312,135.80625 L1648.75,143.7 L1649.73438,154.175 L1640.07812,150 L1630.42188,154.175 L1631.40625,143.7 L1624.45312,135.80625 L1634.71875,133.50625 L1640.07812,124.453125 Z M1640.07812,132.190625 L1637.24375,136.984375 L1631.8125,138.196875 L1635.49062,142.375 L1634.96875,147.9125 L1640.07812,145.70625 L1645.18438,147.909375 L1644.66563,142.371875 L1648.34063,138.19375 L1642.9125,136.98125 L1640.07812,132.190625 Z" id="信用监管率"></path>
        </g>
    </g>
</svg>