<?xml version="1.0" encoding="UTF-8"?>
<svg width="51px" height="50px" viewBox="0 0 51 50" version="1.1" xmlns="http://www.w3.org/2000/svg" xmlns:xlink="http://www.w3.org/1999/xlink">
    <title>重点领域</title>
    <g id="页面-1" stroke="none" stroke-width="1" fill="none" fill-rule="evenodd">
        <g id="Apple-TV" transform="translate(-1190.000000, -186.000000)" fill="#FFFFFF" fill-rule="nonzero">
            <path d="M1229.41298,186 L1229.41298,202.242592 L1225.26603,202.242592 L1225.26603,190.146956 L1194.1518,190.146956 L1194.1518,231.635776 L1210.38955,231.635776 L1210.38955,235.782732 L1190,235.782732 L1190,186 L1229.41298,186 Z M1227.28354,209.29674 L1232.2764,216.579472 L1240.74529,219.073411 L1235.3587,226.069235 L1235.6017,234.89305 L1227.28354,231.937231 L1218.97023,234.89305 L1219.21323,226.069235 L1213.82664,219.073411 L1222.29566,216.579472 L1227.28354,209.29674 Z M1227.28354,216.637796 L1224.88187,220.142915 L1220.80792,221.34375 L1223.39426,224.707974 L1223.27761,228.957031 L1227.28354,227.532597 L1231.28947,228.957031 L1231.17295,224.707974 L1233.75916,221.34375 L1229.68521,220.142915 L1227.28354,216.637796 Z M1210.74448,219.190059 L1210.74448,223.337015 L1200.37446,223.337015 L1200.37446,219.190059 L1210.74448,219.190059 Z M1219.0431,208.125135 L1219.0431,212.272091 L1200.3746,212.272091 L1200.3746,208.125135 L1219.0431,208.125135 Z M1219.0431,197.755388 L1219.0431,201.902209 L1200.3746,201.902209 L1200.3746,197.755388 L1219.0431,197.755388 Z" id="重点领域"></path>
        </g>
    </g>
</svg>