<?xml version="1.0" encoding="UTF-8"?>
<svg width="52px" height="52px" viewBox="0 0 52 52" version="1.1" xmlns="http://www.w3.org/2000/svg" xmlns:xlink="http://www.w3.org/1999/xlink">
    <title>执法队伍总数</title>
    <g id="页面-1" stroke="none" stroke-width="1" fill="none" fill-rule="evenodd">
        <g id="Apple-TV" transform="translate(-1353.000000, -35.000000)" fill="#FFFFFF" fill-rule="nonzero" stroke="#FFFFFF">
            <path d="M1398.69316,73.7157954 C1402.01827,75.0241723 1404.00167,76.6725606 1404.00167,78.4659537 C1404.00167,82.7210955 1392.80796,86.1712105 1378.99917,86.1712105 C1365.19371,86.1712105 1354,82.7210955 1354,78.4659537 C1354,76.6725606 1355.98007,75.0241723 1359.30351,73.7157954 C1358.50848,74.2708139 1358.07014,74.8658337 1358.07014,75.4875211 C1358.07014,78.3826176 1367.44045,80.7226956 1378.9975,80.7226956 C1390.55789,80.7226956 1399.92653,78.3809509 1399.92653,75.4875211 C1399.92653,74.864167 1399.49152,74.2691472 1398.69316,73.7157954 Z M1401.22491,76.9392361 C1398.94316,81.1993782 1386.59275,82.3894179 1378.99917,82.3894178 C1371.40558,82.3894178 1359.05684,81.2010448 1356.77509,76.9392361 C1355.9884,77.5475898 1355.66672,78.0876078 1355.66672,78.4659537 C1355.66672,80.516022 1363.902,84.5044883 1378.99917,84.5044883 C1394.09967,84.5044883 1402.33494,80.5160221 1402.33494,78.4659537 C1402.33494,78.0876077 1402.01327,77.5475897 1401.22491,76.9392361 Z M1379.07584,36.1712105 C1382.26094,36.1712105 1384.85436,38.7629636 1384.85436,41.9497365 C1384.85189,44.0956557 1383.68121,45.9678249 1381.94405,46.9645138 L1381.83093,46.9615703 C1384.88245,46.9652455 1387.35502,49.4385645 1387.35778,52.4900879 L1387.35778,59.8770008 C1387.35929,61.7664064 1386.39236,63.5247577 1384.79603,64.5354894 L1384.79603,78.4776207 C1384.79647,78.6989305 1384.70886,78.9113276 1384.55253,79.0679738 C1384.3962,79.22462 1384.18398,79.3126486 1383.96267,79.3126486 L1380.47755,79.3126486 C1380.06633,79.3126486 1379.71669,79.0124013 1379.65419,78.6059584 L1379.08417,74.8691672 L1378.51248,78.6059584 C1378.44998,79.0124013 1378.10034,79.3126486 1377.68912,79.3126486 L1373.89566,79.3126486 C1373.43541,79.3126486 1373.0623,78.9395401 1373.0623,78.4792875 L1373.0623,64.5238223 C1371.47846,63.5095117 1370.52092,61.7577967 1370.52222,59.8770008 L1370.52222,52.4900879 C1370.52497,49.4379145 1372.99856,46.964327 1376.05074,46.9615703 L1376.20351,46.9621472 C1374.46861,45.9648632 1373.29978,44.0939584 1373.29731,41.9497365 C1373.29731,38.7629636 1375.89073,36.1712105 1379.07584,36.1712105 Z M1381.82926,48.6282925 L1376.04907,48.6282925 C1373.9174,48.6310472 1372.19003,50.3584192 1372.18727,52.4900879 L1372.18727,59.8770008 C1372.18727,61.3203822 1372.98897,62.635426 1374.28068,63.3054484 C1374.55597,63.4488588 1374.72875,63.7333939 1374.72902,64.0438063 L1374.72902,77.6442597 L1376.9741,77.6442597 L1378.26081,69.2156454 C1378.21003,68.8908569 1378.35494,68.5665676 1378.63076,68.387711 C1378.90657,68.2088544 1379.26176,68.2088544 1379.53758,68.387711 C1379.8134,68.5665676 1379.9583,68.8908569 1379.90753,69.2156454 L1381.19257,77.6459264 L1383.12764,77.6459264 L1383.12764,64.0554734 C1383.12731,63.7431338 1383.30166,63.4568334 1383.57932,63.313782 C1384.87331,62.657326 1385.68886,61.3296486 1385.68939,59.8786675 L1385.68939,52.4900879 C1385.68664,50.3590688 1383.96028,48.6319649 1381.82926,48.6282925 Z M1391.20457,37.8529333 C1394.17352,37.8556864 1396.58016,40.2608326 1396.58475,43.2297792 C1396.58239,45.1408937 1395.58468,46.8186496 1394.0822,47.7726162 L1393.98967,47.7699305 C1396.83158,47.7736034 1399.1345,50.0765174 1399.13817,52.9184355 L1399.13817,59.7053283 C1399.13817,61.4553867 1398.25648,63.0621069 1396.80476,64.0104719 L1396.80476,76.8008982 C1396.80201,77.261038 1396.42821,77.6325926 1395.96807,77.6325926 L1392.48128,77.6325926 C1392.07006,77.6325926 1391.72043,77.3323452 1391.65792,76.9259024 L1391.20124,73.9274691 L1390.74456,76.9259024 C1390.68205,77.3323452 1390.33242,77.6325926 1389.9212,77.6325926 L1386.71776,77.6325926 C1386.49674,77.6325926 1386.28477,77.5447923 1386.12848,77.3885068 C1385.9722,77.2322213 1385.8844,77.0202526 1385.8844,76.7992315 L1385.8844,64.8188321 C1385.8844,64.5949629 1385.97453,64.3805208 1386.1344,64.2238123 C1387.30401,63.0791415 1387.96616,61.5135246 1387.9728,59.8770008 L1387.9728,52.4900879 C1387.9728,51.3100485 1387.63112,50.1633436 1386.98443,49.1749773 C1386.83595,48.9480273 1386.8072,48.6630203 1386.90735,48.4109841 C1387.0075,48.1589478 1387.22403,47.9714103 1387.48778,47.9082685 C1387.76716,47.8420371 1388.05437,47.7992968 1388.34437,47.7806761 C1386.83346,46.8297412 1385.82951,45.1470769 1385.82773,43.2297792 C1385.8314,40.2617521 1388.23655,37.8566066 1391.20457,37.8529333 Z M1366.72542,37.8529333 C1369.69219,37.8529333 1372.10394,40.2646803 1372.10394,43.2297792 C1372.10097,45.1461261 1371.09754,46.827766 1369.58797,47.7803633 C1369.87899,47.7972362 1370.16701,47.8400648 1370.44888,47.9066018 C1370.71405,47.9676667 1370.93231,48.1550637 1371.03279,48.4079356 C1371.13328,48.6608074 1371.10316,48.9469023 1370.95223,49.1733106 C1370.30626,50.1581895 1369.96268,51.3106008 1369.96387,52.4884211 L1369.96387,59.875334 C1369.97007,61.5116157 1370.6316,63.0771978 1371.80059,64.2221456 C1371.96227,64.3788175 1372.0506,64.5938247 1372.0506,64.8171654 L1372.0506,76.7975647 C1372.0506,77.2587379 1371.67675,77.6325926 1371.21557,77.6325926 L1368.0138,77.6325926 C1367.60258,77.6325926 1367.25295,77.3323452 1367.19044,76.9259024 L1366.73376,73.9274691 L1366.27708,76.9259024 C1366.21382,77.3326041 1365.86364,77.6325926 1365.45205,77.6325926 L1361.96527,77.6325926 C1361.74424,77.6325926 1361.53228,77.5447923 1361.37599,77.3885068 C1361.2197,77.2322213 1361.1319,77.0202526 1361.1319,76.7992315 L1361.1319,64.0088051 C1359.67474,63.0619597 1358.79641,61.4414291 1358.79849,59.7036616 L1358.79849,52.9167687 C1358.80212,50.1080954 1361.05152,47.8258893 1363.84749,47.7693338 C1362.34596,46.8169465 1361.34927,45.139892 1361.34691,43.2297792 C1361.34691,40.2646804 1363.75866,37.8529333 1366.72542,37.8529333 Z M1393.988,49.4366527 L1389.0095,49.4366527 C1389.42451,50.3966847 1389.63952,51.433386 1389.63952,52.4917546 L1389.63952,59.8786675 C1389.63295,61.8388772 1388.88717,63.7244647 1387.55112,65.1588435 L1387.55112,75.9658704 L1389.20451,75.9658704 L1390.37621,68.2772807 C1390.43962,67.8716503 1390.78902,67.5726354 1391.19957,67.5726354 C1391.61013,67.5726354 1391.95952,67.8716503 1392.02293,68.2772807 L1393.19797,75.9658704 L1395.1347,75.9658704 L1395.1347,63.5337893 C1395.1347,63.2204456 1395.30804,62.9387695 1395.58305,62.7954313 C1396.7407,62.1996622 1397.46873,61.0072871 1397.46978,59.7053283 L1397.46978,52.9184355 C1397.46703,50.9966419 1395.90979,49.4394067 1393.988,49.4366527 Z M1368.92383,49.434986 L1363.947,49.434986 C1362.0252,49.43774 1360.46797,50.9949751 1360.46522,52.9167687 L1360.46522,59.7036616 C1360.46522,61.003705 1361.18857,62.1887445 1362.35195,62.7937646 C1362.62724,62.9371751 1362.80002,63.2217102 1362.80029,63.5321226 L1362.80029,75.9642036 L1364.73702,75.9642036 L1365.91206,68.275614 C1365.86129,67.9508256 1366.00619,67.6265363 1366.28201,67.4476797 C1366.55783,67.2688231 1366.91302,67.2688231 1367.18884,67.4476797 C1367.46466,67.6265363 1367.60956,67.9508256 1367.55879,68.275614 L1368.73049,75.9658704 L1370.38221,75.9658704 L1370.38221,65.1588435 C1369.04762,63.7236753 1368.30258,61.8384624 1368.29548,59.8786675 L1368.29548,52.4900879 C1368.29548,51.4300525 1368.51048,50.3950181 1368.92383,49.434986 Z M1366.72542,39.5196555 C1364.67725,39.5224076 1363.01731,41.1816069 1363.01363,43.2297792 C1363.01363,45.2765141 1364.67869,46.9415696 1366.72542,46.9415696 C1368.77216,46.9415696 1370.43721,45.2765141 1370.43721,43.2297792 C1370.43354,41.1816069 1368.7736,39.5224076 1366.72542,39.5196555 Z M1391.20457,39.5196555 C1389.15629,39.5214934 1387.49629,41.1814962 1387.49445,43.2297792 C1387.49445,45.2765141 1389.15784,46.9415696 1391.20457,46.9415696 C1393.25405,46.9397333 1394.91527,45.2792522 1394.91803,43.2297792 C1394.91527,41.1805764 1393.25378,39.520573 1391.20457,39.5196555 Z M1379.07584,37.8379328 C1376.80909,37.8379328 1374.96403,39.6813276 1374.96403,41.9497365 C1374.96403,44.2181454 1376.80743,46.0615402 1379.07584,46.0615402 C1381.34424,46.0615402 1383.18764,44.2164787 1383.18764,41.9497365 C1383.18764,39.6829943 1381.34258,37.8379328 1379.07584,37.8379328 Z" id="执法队伍总数"></path>
        </g>
    </g>
</svg>