<?xml version="1.0" encoding="UTF-8"?>
<svg width="55px" height="52px" viewBox="0 0 55 52" version="1.1" xmlns="http://www.w3.org/2000/svg" xmlns:xlink="http://www.w3.org/1999/xlink">
    <title>执法评议</title>
    <g id="页面-1" stroke="none" stroke-width="1" fill="none" fill-rule="evenodd">
        <g id="Apple-TV" transform="translate(-1186.000000, -111.000000)" fill="#FFFFFF" fill-rule="nonzero" stroke="#FFFFFF">
            <path d="M1213.36443,113.869485 C1215.83502,111.398897 1219.95267,111.398897 1222.42325,113.869485 L1222.42325,113.869485 L1232.5409,123.987132 C1235.01149,126.457721 1235.01149,130.575368 1232.5409,133.045956 L1232.5409,133.045956 L1230.65855,134.928309 L1233.59972,134.928309 C1237.12914,134.928309 1239.95267,137.987132 1239.95267,141.751838 L1239.95267,141.751838 L1239.95267,155.28125 C1239.95267,158.928309 1237.12914,161.987132 1233.59972,161.987132 L1233.59972,161.987132 L1193.36443,161.987132 C1189.83502,161.987132 1187.01149,159.045956 1187.01149,155.28125 L1187.01149,155.28125 L1187.01149,141.634191 C1187.01149,137.987132 1189.83502,134.928309 1193.36443,134.928309 L1193.36443,134.928309 L1197.48208,134.928309 C1196.77619,132.693015 1197.24678,130.104779 1199.01149,128.340074 L1199.01149,128.340074 Z M1199.36443,137.869485 L1193.36443,137.869485 C1191.48208,137.869485 1189.95267,139.634191 1189.95267,141.751838 L1189.95267,141.751838 L1189.95267,155.398897 C1189.95267,157.516544 1191.48208,159.28125 1193.36443,159.28125 L1193.36443,159.28125 L1233.59972,159.28125 C1235.48208,159.28125 1237.01149,157.516544 1237.01149,155.398897 L1237.01149,155.398897 L1237.01149,141.751838 C1237.01149,139.634191 1235.48208,137.869485 1233.59972,137.869485 L1233.59972,137.869485 L1227.71737,137.869485 L1218.5409,147.045956 L1228.42325,147.045956 C1229.24678,147.045956 1229.95267,147.751838 1229.95267,148.575368 C1229.95267,149.398897 1229.24678,150.104779 1228.42325,150.104779 L1228.42325,150.104779 L1198.42325,150.104779 C1197.59972,150.104779 1196.89384,149.398897 1196.89384,148.575368 C1196.89384,147.751838 1197.59972,147.045956 1198.42325,147.045956 L1198.42325,147.045956 L1208.5409,147.045956 L1199.36443,137.869485 Z M1218.07031,114.928309 C1217.12914,114.928309 1216.30561,115.28125 1215.59972,115.987132 L1215.59972,115.987132 L1201.01149,130.457721 C1200.42325,131.163603 1200.07031,131.987132 1200.07031,132.810662 C1200.07031,133.751838 1200.42325,134.575368 1201.12914,135.28125 L1201.12914,135.28125 L1211.24678,145.398897 C1212.5409,146.693015 1214.77619,146.693015 1216.07031,145.398897 L1216.07031,145.398897 L1230.65855,131.045956 C1231.36443,130.340074 1231.71737,129.516544 1231.71737,128.575368 C1231.71737,127.634191 1231.36443,126.810662 1230.65855,126.104779 L1230.65855,126.104779 L1220.5409,115.987132 C1219.83502,115.28125 1219.01149,114.928309 1218.07031,114.928309 Z M1215.01149,124.810662 C1215.83502,124.810662 1216.5409,125.516544 1216.5409,126.340074 L1216.5409,126.340074 L1216.5409,130.340074 L1219.95267,132.340074 C1220.65855,132.693015 1220.89384,133.634191 1220.5409,134.340074 C1220.30561,134.810662 1219.71737,135.045956 1219.24678,135.045956 C1219.01149,135.045956 1218.77619,134.928309 1218.5409,134.810662 L1218.5409,134.810662 L1215.12914,132.810662 L1211.71737,134.810662 C1211.48208,134.928309 1211.24678,135.045956 1211.01149,135.045956 C1210.42325,135.045956 1209.95267,134.810662 1209.71737,134.340074 C1209.36443,133.634191 1209.59972,132.693015 1210.30561,132.340074 L1210.30561,132.340074 L1213.48208,130.340074 L1213.48208,126.340074 C1213.48208,125.516544 1214.18796,124.810662 1215.01149,124.810662 Z" id="执法评议"></path>
        </g>
    </g>
</svg>