<?xml version="1.0" encoding="UTF-8"?>
<svg width="50px" height="50px" viewBox="0 0 50 50" version="1.1" xmlns="http://www.w3.org/2000/svg" xmlns:xlink="http://www.w3.org/1999/xlink">
    <title>执法人员</title>
    <g id="页面-1" stroke="none" stroke-width="1" fill="none" fill-rule="evenodd">
        <g id="Apple-TV" transform="translate(-1507.000000, -37.000000)" fill="#FFFFFF" fill-rule="nonzero">
            <path d="M1530.53437,57.1923077 C1541.31514,57.1923077 1547.19206,58.8666667 1548.5536,59.2974359 C1548.44334,59.4384615 1548.65104,61.3346154 1548.65104,61.6179487 L1548.65104,61.7525641 L1548.74975,61.8448718 C1549.01257,62.1166667 1549.20873,62.3064103 1549.20873,62.7320513 L1549.20873,63.248718 L1549.43565,63.3230769 C1551.93052,64.1538461 1553.37668,66.6525641 1553.12539,69.698718 L1553.12539,69.724359 C1553.12539,71.0461539 1552.37796,72.5064103 1551.02924,73.8230769 C1549.79078,75.0230769 1548.16129,75.9833333 1546.66514,76.3948718 L1546.49975,76.4384615 L1546.44463,76.5923077 C1544.94975,80.6423077 1541.4677,83.1589744 1538.81386,84.5564103 C1535.62796,86.2307692 1532.29463,87 1530.55232,87 C1528.79975,87 1525.47155,86.2307692 1522.29078,84.5564103 C1519.63693,83.1589744 1516.15616,80.6423077 1514.6536,76.5858974 L1514.59847,76.4320513 L1514.43309,76.3897436 C1512.80128,75.9226055 1511.30377,75.0745425 1510.06386,73.9153846 C1509.10745,73.0102564 1507.96129,71.5448718 1507.96129,69.7179487 C1507.96129,66.8064103 1509.5177,64.4051282 1511.92668,63.6 L1512.14719,63.525641 L1512.14719,63.0089744 C1512.14719,62.5833333 1512.33693,62.3935897 1512.60745,62.1217949 C1512.60745,62.1217949 1512.60825,62.0333015 1512.60891,61.8876081 L1512.60966,61.6300796 C1512.61072,60.8497987 1512.60173,59.404662 1512.52155,59.2974359 C1513.87539,58.8602564 1519.75232,57.1923077 1530.53437,57.1923077 Z M1516.48052,62.2025641 C1516.4677,62.35 1516.32668,63.5076923 1515.8677,64.0358974 C1515.71386,65.3653846 1514.68437,66.7076923 1513.06001,67.1935897 C1512.33693,67.2858975 1511.63309,69.0089744 1511.7177,69.8038461 C1511.84591,70.9358974 1514.36642,72.4935897 1515.1318,72.6410256 C1515.87411,72.8871795 1517.25232,73.0166667 1518.09847,75.1153846 C1519.56386,79.8115385 1526.86257,83.1897436 1530.44206,83.2091041 C1534.02796,83.2333333 1541.24719,79.824359 1542.6818,75.8294872 C1543.19719,74.4064103 1543.99975,73.2384615 1545.64206,72.7205128 C1548.48565,71.823077 1549.30745,69.9333333 1549.34975,69.6128205 C1549.39334,69.2923077 1549.49719,67.3358974 1548.32027,66.9589744 C1547.23565,66.6217949 1545.80104,65.8525641 1545.48822,63.7897436 C1545.15232,63.4512821 1545.19463,63.1871795 1545.12155,63.1192308 C1544.82213,62.8334191 1544.56021,62.5107545 1544.34206,62.1589744 C1541.01514,61.5179487 1527.21257,59.8448718 1516.48052,62.2025641 Z M1532.03437,37 C1534.00873,37 1535.69975,38.2474359 1537.83309,39.825641 C1541.51642,42.5435897 1546.55873,46.2628205 1556.69847,46.2628205 C1556.86514,46.2628205 1556.95616,46.2807692 1556.99975,46.298718 C1556.9818,46.3769231 1556.89463,46.598718 1556.42796,47.1269231 C1556.02155,47.5884616 1555.4318,48.1589744 1554.81129,48.7653846 C1552.97155,50.5474359 1550.07027,56.174359 1549.84847,57.9564103 C1549.22027,57.7820513 1544.5536,52.5628205 1532.31001,52.7179487 C1519.86145,52.618109 1514.76486,56.8548477 1513.68522,57.9155924 L1513.60916,57.9916882 C1513.5071,58.0957947 1513.45873,58.1538461 1513.45873,58.1538461 C1513.24463,56.5576923 1509.96001,50.9961539 1508.70616,49.2628205 C1508.17539,48.5307692 1507.67796,47.8461539 1507.35873,47.2948718 C1506.93437,46.5692308 1506.99591,46.3717949 1507.01257,46.3410256 C1507.02539,46.3166667 1507.11257,46.2692308 1507.35873,46.2692308 C1518.77668,46.2692308 1523.44975,42.4589744 1526.86257,39.6692308 C1528.6895,38.1820513 1530.13437,37 1532.03437,37 Z M1528.02924,43.2564103 C1525.87155,45.2538461 1520.98309,47.3474359 1513.38309,49.5435897 L1513.38437,49.5448718 L1515.1536,52.6025641 C1526.0318,48.2307692 1536.95873,48.1576923 1547.92283,52.375641 C1548.48839,51.3659265 1549.08091,50.3715524 1549.69975,49.3935897 C1543.11386,47.3115385 1538.61257,45.2782051 1536.1895,43.274359 C1533.77283,41.2705128 1532.31642,40.3641026 1531.82411,40.5384615 C1531.45488,40.3525641 1530.18822,41.2576923 1528.02924,43.2564103 Z" id="执法人员"></path>
        </g>
    </g>
</svg>