<?xml version="1.0" encoding="UTF-8"?>
<svg width="33px" height="33px" viewBox="0 0 33 33" version="1.1" xmlns="http://www.w3.org/2000/svg" xmlns:xlink="http://www.w3.org/1999/xlink">
    <title>行政强制</title>
    <g id="页面-1" stroke="none" stroke-width="1" fill="none" fill-rule="evenodd">
        <g id="Apple-TV" transform="translate(-324.000000, -92.000000)" fill-rule="nonzero" stroke="#FFFFFF" stroke-width="2">
            <path d="M346.209441,104.968085 L351.74867,110.511303 L348.517287,113.744681 L354.920213,120.147606 L352.147606,122.920213 L345.744681,116.517287 L342.511303,119.750665 L336.968085,114.207447 L346.209441,104.968085 Z M350.930851,93 L350.930851,103.65359 C346.204905,101.98025 340.936859,103.429841 337.732281,107.285397 C334.527703,111.140953 334.065842,116.585245 336.575133,120.925532 L336.575133,120.925532 L325,120.925532 L325,93 L350.930851,93 Z M334.973404,104.968085 L328.989362,104.968085 L328.989362,108.957447 L334.973404,108.957447 L334.973404,104.968085 Z M346.941489,96.9893617 L328.989362,96.9893617 L328.989362,100.978723 L346.941489,100.978723 L346.941489,96.9893617 Z" id="行政强制"></path>
        </g>
    </g>
</svg>