<?xml version="1.0" encoding="UTF-8"?>
<svg width="52px" height="52px" viewBox="0 0 52 52" version="1.1" xmlns="http://www.w3.org/2000/svg" xmlns:xlink="http://www.w3.org/1999/xlink">
    <title>主动履行</title>
    <g id="页面-1" stroke="none" stroke-width="1" fill="none" fill-rule="evenodd">
        <g id="Apple-TV" transform="translate(-1185.000000, -339.000000)" fill="#FFFFFF" fill-rule="nonzero" stroke="#FFFFFF">
            <path d="M1231.96443,340.000315 C1234.06148,340.000315 1235.78213,341.720967 1235.78213,343.818012 L1235.78213,343.818012 L1235.78213,349.356361 C1235.78213,349.388134 1235.77856,349.420024 1235.77163,349.451963 L1235.76153,349.482315 L1235.78213,351.943954 L1235.77162,351.847878 L1235.77162,351.847878 L1235.75453,351.794315 L1235.75524,385.893334 C1235.75524,387.924846 1234.14045,389.603122 1232.133,389.70603 L1231.93755,389.71103 L1189.86223,389.71103 C1187.76518,389.71103 1186.04453,387.990378 1186.04453,385.893334 L1186.04453,385.893334 L1186.04453,343.818012 C1186.04453,341.720967 1187.76518,340.000315 1189.86223,340.000315 L1189.86223,340.000315 Z M1231.96443,343.791127 L1189.88911,343.791127 L1189.88911,385.866448 L1231.96443,385.866448 L1231.88919,350.593699 L1231.88919,350.593699 L1231.89253,350.557315 L1231.89024,350.530964 L1231.96443,343.791127 Z M1223.3074,376.806139 C1224.35592,376.806139 1225.21625,377.666465 1225.21625,378.714988 C1225.21625,379.76351 1224.35592,380.623836 1223.3074,380.623836 L1223.3074,380.623836 L1198.49237,380.623836 C1197.44385,380.623836 1196.58352,379.76351 1196.58352,378.714988 C1196.58352,377.666466 1197.44385,376.806139 1198.49237,376.806139 L1198.49237,376.806139 Z M1220.75331,350.055376 C1221.39855,349.19505 1222.5815,348.953083 1223.44183,349.598328 C1224.30215,350.243572 1224.46346,351.426521 1223.84511,352.286847 L1223.84511,352.286847 L1210.61759,370.273038 C1210.2412,370.783857 1209.67661,371.052709 1209.08514,371.052709 C1208.81628,371.052709 1208.54743,370.998939 1208.30547,370.891398 C1208.09038,370.810742 1207.90219,370.703201 1207.71399,370.568775 L1207.71399,370.568775 L1199.59466,364.089445 C1198.76122,363.417315 1198.65368,362.234367 1199.29893,361.400926 C1199.97106,360.567485 1201.15401,360.459944 1201.98745,361.105189 L1201.98745,361.105189 L1208.68186,366.455341 Z M1235.75453,349.504315 L1235.74098,349.547868 C1235.57983,349.931568 1234.96643,350.313114 1234.27506,350.579545 L1234.18053,350.613315 L1234.27465,350.652752 C1234.96621,350.950387 1235.57978,351.359617 1235.74097,351.75059 L1235.75453,351.794315 L1235.75453,349.504315 Z M1231.8997,350.504911 L1231.89253,350.557315 L1231.90074,350.620225 C1232.01857,351.092075 1233.10664,350.992842 1234.10081,350.643689 L1234.18053,350.613315 L1234.10036,350.580743 C1233.10592,350.18672 1232.01756,350.038379 1231.8997,350.504911 Z" id="主动履行"></path>
        </g>
    </g>
</svg>