<?xml version="1.0" encoding="UTF-8"?>
<svg width="52px" height="52px" viewBox="0 0 52 52" version="1.1" xmlns="http://www.w3.org/2000/svg" xmlns:xlink="http://www.w3.org/1999/xlink">
    <title>事项覆盖率</title>
    <g id="页面-1" stroke="none" stroke-width="1" fill="none" fill-rule="evenodd">
        <g id="Apple-TV" transform="translate(-1187.000000, -414.000000)" fill="#FFFFFF" fill-rule="nonzero" stroke="#FFFFFF">
            <path d="M1234.00254,443.150381 L1231.40419,443.150381 L1231.40419,420.187183 C1231.40419,417.341371 1229.08503,415.019036 1226.23604,415.019036 L1208.13959,415.019036 C1208.12056,415.019036 1208.10787,415.019036 1208.08566,415.025381 L1208.04124,415.031726 C1208.02538,415.031726 1208.01269,415.031726 1208,415.041244 L1207.95558,415.047589 L1207.92386,415.053934 C1207.9073,415.054932 1207.89112,415.059248 1207.87627,415.066624 L1207.84454,415.07297 L1207.79695,415.08566 L1207.76523,415.092005 L1207.71764,415.104695 L1207.68591,415.117386 C1207.67005,415.126904 1207.65102,415.126904 1207.6415,415.133249 L1207.60025,415.145939 L1207.56853,415.158629 L1207.52728,415.177665 L1207.5019,415.190355 C1207.48921,415.199873 1207.47018,415.206218 1207.45431,415.212563 L1207.43211,415.222081 L1207.38452,415.250635 L1207.36548,415.263325 C1207.3493,415.271819 1207.33435,415.282494 1207.32107,415.295051 C1207.31472,415.304569 1207.3052,415.304569 1207.29886,415.310914 L1207.25444,415.34264 L1207.23541,415.364848 L1207.19416,415.396574 C1207.18147,415.402919 1207.17513,415.415609 1207.16878,415.421954 C1207.15292,415.428299 1207.14657,415.444162 1207.13706,415.450508 C1207.11485,415.463198 1207.10216,415.482234 1207.08312,415.494924 L1207.07678,415.501269 L1194.67195,427.921954 L1194.6085,427.982234 C1194.60216,427.988579 1194.59581,428.001269 1194.58312,428.007614 L1194.55774,428.03934 C1194.54188,428.055203 1194.53553,428.067893 1194.52919,428.080584 L1194.51015,428.105964 L1194.47843,428.147208 C1194.47208,428.153553 1194.46574,428.159898 1194.46574,428.172589 C1194.45622,428.185279 1194.44353,428.19797 1194.43718,428.220178 C1194.43084,428.226523 1194.42449,428.232868 1194.42449,428.245558 C1194.41815,428.258249 1194.40546,428.270939 1194.39911,428.293147 L1194.38642,428.318528 L1194.36421,428.356599 C1194.35787,428.372462 1194.35152,428.378807 1194.35152,428.388325 L1194.33249,428.429569 C1194.32665,428.439426 1194.32236,428.450128 1194.3198,428.461294 C1194.31345,428.477157 1194.31345,428.49302 1194.30711,428.496193 C1194.29759,428.508883 1194.29124,428.524746 1194.29124,428.537437 L1194.27855,428.569162 C1194.27118,428.584015 1194.26686,428.600198 1194.26586,428.616751 L1194.25952,428.642132 L1194.24683,428.696066 L1194.24048,428.721447 L1194.22462,428.775381 C1194.22462,428.781726 1194.22462,428.794416 1194.21827,428.800761 L1194.21193,428.854695 C1194.21193,428.867386 1194.21193,428.873731 1194.20558,428.886421 L1194.19924,428.93401 L1194.19924,443.156726 L1191.70241,443.156726 C1189.65926,443.156726 1188,444.81599 1188,446.859137 L1188,459.336929 C1188,462.436548 1190.51904,464.952411 1193.61548,464.952411 L1232.08629,464.952411 C1235.18591,464.952411 1237.70178,462.436548 1237.70178,459.336929 L1237.70178,446.852792 C1237.70178,444.809645 1236.04569,443.150381 1234.00254,443.150381 Z M1228.10152,420.187183 L1228.10152,443.21066 C1226.05967,443.541939 1224.55904,445.304546 1224.55774,447.373096 L1224.55774,451.484772 C1224.55774,451.992386 1224.1453,452.404822 1223.63769,452.404822 L1202.06409,452.404822 C1201.55647,452.404822 1201.14404,451.992386 1201.14404,451.484772 L1201.14404,447.379442 C1201.14404,445.244289 1199.55457,443.473985 1197.48604,443.194797 L1197.48604,430.742386 L1208.25063,430.742386 C1209.16434,430.742386 1209.90355,430.003173 1209.90355,429.09264 L1209.90355,418.324873 L1226.2297,418.324873 C1227.26713,418.324873 1228.10152,419.156091 1228.10152,420.187183 Z M1199.82424,427.439721 L1206.60723,420.656726 L1206.60723,427.439721 L1199.82424,427.439721 Z M1234.39911,459.330584 C1234.39911,460.60967 1233.36221,461.646574 1232.08312,461.646574 L1193.62183,461.646574 C1192.34274,461.646574 1191.30584,460.60967 1191.30584,459.330584 L1191.30584,446.852792 C1191.30584,446.630711 1191.48668,446.456218 1191.70558,446.456218 L1196.92449,446.456218 C1197.42893,446.456218 1197.84454,446.865482 1197.84454,447.376269 L1197.84454,451.484772 C1197.84454,453.810279 1199.74175,455.707487 1202.06726,455.707487 L1223.64721,455.707487 C1225.97589,455.707487 1227.8731,453.810279 1227.8731,451.484772 L1227.8731,447.379442 C1227.8731,446.871827 1228.28236,446.459391 1228.79315,446.459391 L1234.00254,446.459391 C1234.22145,446.459391 1234.39911,446.640228 1234.39911,446.859137 L1234.39911,459.327411 L1234.39911,459.330584 Z" id="事项覆盖率"></path>
        </g>
    </g>
</svg>