<?xml version="1.0" encoding="UTF-8"?>
<svg width="54px" height="50px" viewBox="0 0 54 50" version="1.1" xmlns="http://www.w3.org/2000/svg" xmlns:xlink="http://www.w3.org/1999/xlink">
    <title>复议纠错率</title>
    <g id="页面-1" stroke="none" stroke-width="1" fill="none" fill-rule="evenodd">
        <g id="Apple-TV" transform="translate(-1434.000000, -338.000000)" fill="#FFFFFF" fill-rule="nonzero">
            <path d="M1483.76123,338.010096 C1485.69964,338.010096 1487.31498,339.302366 1487.63804,341.240771 L1487.63804,341.240771 L1487.63819,351.970819 C1487.63995,352.223155 1487.66289,352.200216 1487.96111,351.901999 L1487.96111,351.901999 L1487.96111,384.53182 C1487.63804,386.147157 1486.34577,387.439427 1484.73044,387.762495 L1484.73044,387.762495 L1437.23951,387.762495 C1435.3011,387.439427 1434.00883,385.82409 1434.00883,383.885685 L1434.00883,383.885685 L1434.00883,341.886906 C1434.00883,339.948501 1435.3011,338.010096 1437.23951,338.333163 L1437.23951,338.333163 L1441.76245,338.333163 C1443.05472,338.333163 1444.02393,339.302366 1444.02393,340.594636 C1444.02393,341.886906 1443.05472,342.856109 1441.76245,342.856109 L1441.76245,342.856109 L1439.82405,342.856109 C1439.17791,342.856109 1438.53178,343.502244 1438.53178,344.148379 L1438.53178,344.148379 L1438.53178,349.640527 L1482.79203,349.640527 L1482.79203,343.825311 C1482.79203,343.179176 1482.1459,342.533041 1481.49976,342.533041 L1481.49976,342.533041 L1479.56136,342.533041 C1478.26908,342.533041 1477.29988,341.563839 1477.29988,340.271569 C1477.29988,338.979298 1478.26908,338.010096 1479.56136,338.010096 L1479.56136,338.010096 Z M1483.1151,354.48654 L1438.53178,354.48654 L1438.53178,381.624212 C1438.85485,382.270347 1439.17791,382.916482 1439.82405,382.916482 L1439.82405,382.916482 L1481.82283,382.916482 C1482.46896,382.916482 1483.1151,382.270347 1483.1151,381.624212 L1483.1151,381.624212 L1483.1151,354.48654 Z M1451.77755,359.978688 C1452.74675,359.009485 1454.03902,359.009485 1455.00822,359.978688 L1455.00822,359.978688 L1461.14651,366.116971 L1467.28479,359.978688 C1468.25399,359.009485 1469.54626,359.009485 1470.51546,359.978688 C1471.48467,360.94789 1471.48467,362.24016 1470.51546,363.209363 L1470.51546,363.209363 L1464.37718,369.347646 L1470.51546,375.485929 C1471.48467,376.455131 1471.48467,377.747402 1470.51546,378.716604 C1469.54626,379.685807 1468.25399,379.685807 1467.28479,378.716604 L1467.28479,378.716604 L1461.14651,372.578321 L1455.00822,378.716604 C1454.03902,379.685807 1452.74675,379.685807 1451.77755,378.716604 C1450.80835,377.747402 1450.80835,376.132064 1451.77755,375.485929 L1451.77755,375.485929 L1457.91583,369.347646 L1451.77755,363.209363 C1450.80835,362.24016 1450.80835,360.94789 1451.77755,359.978688 Z M1471.48467,338.010096 C1472.77694,338.010096 1473.74614,338.979298 1473.74614,340.271569 C1473.74614,341.563839 1472.77694,342.533041 1471.48467,342.533041 L1471.48467,342.533041 L1449.19301,342.533041 C1447.90074,342.533041 1446.93153,341.563839 1446.93153,340.271569 C1446.93153,338.979298 1447.90074,338.010096 1449.19301,338.010096 L1449.19301,338.010096 Z" id="复议纠错率"></path>
        </g>
    </g>
</svg>