<?xml version="1.0" encoding="UTF-8"?>
<svg width="52px" height="52px" viewBox="0 0 52 52" version="1.1" xmlns="http://www.w3.org/2000/svg" xmlns:xlink="http://www.w3.org/1999/xlink">
    <title>强制执行</title>
    <g id="页面-1" stroke="none" stroke-width="1" fill="none" fill-rule="evenodd">
        <g id="Apple-TV" transform="translate(-1275.000000, -337.000000)" fill="#FFFFFF" fill-rule="nonzero" stroke="#FFFFFF">
            <path d="M1300.87562,338.005525 C1310.87238,338.005525 1319.89906,343.986694 1323.79584,353.192689 C1327.0351,360.875151 1326.21243,369.669252 1321.60449,376.617625 C1316.99654,383.565998 1309.2155,387.745521 1300.87805,387.750661 L1300.87805,387.750661 L1300.87805,384.532086 C1310.19211,384.531304 1318.46315,378.577039 1321.41932,369.744555 C1324.3755,360.91207 1321.35504,351.178616 1313.91796,345.571337 C1306.48088,339.964058 1296.29205,339.738205 1288.6138,345.010427 C1280.93556,350.28265 1277.48676,359.872701 1280.04865,368.827503 L1280.04865,368.827503 L1276.95164,369.710442 C1275.39997,364.25038 1275.75399,358.424679 1277.95541,353.192689 C1281.85218,343.986694 1290.87886,338.005525 1300.87562,338.005525 Z M1297.70991,383.873805 L1297.70991,387.092331 L1277.84672,387.092331 L1277.84672,383.873805 L1297.70991,383.873805 Z M1290.6668,377.252128 L1290.6668,380.470655 L1277.84672,380.470655 L1277.84672,377.252128 L1290.6668,377.252128 Z M1303.50632,363.497512 L1314.98676,373.446984 L1312.49939,376.221587 L1301.01953,366.272116 L1303.50632,363.497512 Z M1289.25186,362.0625 L1298.14897,369.811888 L1295.6616,372.58586 L1286.76449,364.837104 L1289.25186,362.0625 Z M1297.76641,353.6439 L1305.22852,360.053648 L1297.86237,368.567572 L1290.40017,362.157824 L1297.76641,353.6439 Z M1299.96654,349.529656 L1308.86424,357.278996 L1306.37629,360.053599 L1297.47976,352.30426 L1299.96654,349.529656 Z" id="强制执行"></path>
        </g>
    </g>
</svg>