<?xml version="1.0" encoding="UTF-8"?>
<svg width="53px" height="50px" viewBox="0 0 53 50" version="1.1" xmlns="http://www.w3.org/2000/svg" xmlns:xlink="http://www.w3.org/1999/xlink">
    <title>案件数</title>
    <g id="页面-1" stroke="none" stroke-width="1" fill="none" fill-rule="evenodd">
        <g id="Apple-TV" transform="translate(-1271.000000, -415.000000)" fill="#FFFFFF" fill-rule="nonzero">
            <path d="M1297.20381,424.017401 C1297.65174,425.58515 1299.44345,426.704971 1300.78723,426.704971 L1316.46473,426.704971 C1316.46473,424.465329 1314.89698,422.89758 1312.65733,422.89758 L1296.75588,422.89758 L1297.20381,424.017401 L1297.20381,424.017401 Z M1295.41209,418.866225 L1312.65733,418.866225 C1316.91265,418.866225 1320.49608,422.449652 1320.49608,426.481007 L1320.49608,427.824792 C1322.51176,429.392541 1323.63158,431.632183 1323.63158,434.095788 L1323.63158,457.164098 C1323.63158,461.419417 1320.04815,464.778879 1315.79283,464.778879 L1278.83875,464.778879 C1274.58343,464.778879 1271,461.195452 1271,457.164098 L1271,422.673616 C1271,418.418297 1274.58343,415.058834 1278.83875,415.058834 L1288.91713,415.058834 C1291.6047,414.83487 1294.29227,416.626584 1295.41209,418.866225 Z M1288.91713,418.866225 L1278.83875,418.866225 C1276.5991,418.866225 1275.03136,420.433974 1275.03136,422.673616 L1275.03136,457.164098 C1275.03136,459.403739 1276.5991,460.971488 1278.83875,460.971488 L1315.79283,460.971488 C1318.03247,460.971488 1319.60022,459.403739 1319.60022,457.164098 L1319.60022,434.095788 C1319.60022,431.856147 1318.03247,430.288398 1315.79283,430.288398 L1301.23516,430.288398 C1297.8757,430.288398 1294.7402,428.048756 1293.84434,424.913258 L1292.72452,421.329831 C1292.05263,419.986046 1290.48488,418.866225 1288.91713,418.866225 Z M1282.64614,451.564993 L1298.09966,451.564993 C1298.99552,451.564993 1300.11534,452.46085 1300.11534,453.580671 C1300.11534,454.476527 1299.21948,455.596348 1298.09966,455.596348 L1282.64614,455.596348 C1281.75028,455.596348 1280.63046,454.700492 1280.63046,453.580671 C1280.85442,452.236886 1281.75028,451.564993 1282.64614,451.564993 Z" id="案件数"></path>
        </g>
    </g>
</svg>