<?xml version="1.0" encoding="UTF-8"?>
<svg width="72px" height="72px" viewBox="0 0 72 72" version="1.1" xmlns="http://www.w3.org/2000/svg" xmlns:xlink="http://www.w3.org/1999/xlink">
    <title>简案快办备份</title>
    <g id="页面-1" stroke="none" stroke-width="1" fill="none" fill-rule="evenodd">
        <g id="Apple-TV" transform="translate(-1613.000000, -326.000000)" fill="#FFFFFF" fill-rule="nonzero" stroke="#FFFFFF">
            <path d="M1677.4375,327 C1681.06187,327 1684,329.938131 1684,333.5625 L1684,390.4375 C1684,394.061869 1681.06187,397 1677.4375,397 L1620.5625,397 C1616.93813,397 1614,394.061869 1614,390.4375 L1614,333.5625 C1614,329.938131 1616.93813,327 1620.5625,327 L1677.4375,327 Z M1679.625,331.375 L1618.375,331.375 L1618.375,392.625 L1679.625,392.625 L1679.625,331.375 Z M1635.6125,359.8125 L1635.6125,382.9125 L1631.63125,382.9125 L1631.63125,359.8125 L1635.6125,359.8125 Z M1666.45625,354.78125 L1666.45625,378.3625 C1666.45625,380.59375 1665.8875,381.6875 1664.26875,382.2125 C1662.81406,382.748438 1660.62219,382.81625 1657.45906,382.825 L1656.04375,382.825 C1655.825,381.81875 1655.25625,380.24375 1654.73125,379.28125 C1657.4875,379.4125 1660.55,379.4125 1661.3375,379.325 C1662.2125,379.325 1662.475,379.10625 1662.475,378.3625 L1662.475,358.4125 L1642.6125,358.4125 L1642.6125,354.78125 L1666.45625,354.78125 Z M1657.75,361.825 L1657.75,376.9625 L1644.1,376.9625 L1644.1,379.0625 L1640.425,379.0625 L1640.425,361.825 L1657.75,361.825 L1657.75,361.825 Z M1653.9,370.75 L1644.1,370.75 L1644.1,373.85625 L1653.9,373.85625 L1653.9,370.75 Z M1653.9,364.93125 L1644.1,364.93125 L1644.1,367.8625 L1653.9,367.8625 L1653.9,364.93125 Z M1637.0125,353.5125 C1638.71875,355.0875 1640.64375,357.275 1641.475,358.80625 L1638.28125,360.90625 C1637.49375,359.375 1635.65625,357.1 1633.99375,355.48125 L1637.0125,353.5125 Z M1635.9625,342.6625 L1639.76875,343.625 C1639.41875,344.5 1639.06875,345.33125 1638.675,346.1625 L1648.7375,346.1625 L1648.7375,349.4875 L1643.05,349.4875 C1643.75,350.8 1644.40625,352.1125 1644.75625,353.11875 L1641.25625,354.5625 C1640.8625,353.25 1639.85625,351.15 1638.9375,349.4875 L1636.79375,349.4875 C1635.4375,351.54375 1633.99375,353.38125 1632.55,354.78125 C1631.7625,354.125 1630.14375,353.075 1629.18125,352.55 C1632.06875,350.1875 1634.5625,346.46875 1635.9625,342.6625 Z M1653.15625,342.75 L1657.00625,343.625 C1656.7875,344.5 1656.4375,345.2875 1656.0875,346.11875 L1667.9875,346.11875 L1667.9875,349.4875 L1661.46875,349.4875 C1662.3,350.7125 1663.04375,351.9375 1663.4375,352.9 L1659.9375,354.51875 C1659.4125,353.20625 1658.275,351.19375 1657.1375,349.4875 L1654.425,349.4875 C1653.375,351.28125 1652.2375,352.9 1651.0125,354.125 C1650.26875,353.46875 1648.60625,352.375 1647.6875,351.85 C1650.1375,349.61875 1652.10625,346.20625 1653.15625,342.75 L1653.15625,342.75 Z" id="简案快办备份"></path>
        </g>
    </g>
</svg>