<?xml version="1.0" encoding="UTF-8"?>
<svg width="70px" height="70px" viewBox="0 0 70 70" version="1.1" xmlns="http://www.w3.org/2000/svg" xmlns:xlink="http://www.w3.org/1999/xlink">
    <title>线上法制审核</title>
    <g id="页面-1" stroke="none" stroke-width="1" fill="none" fill-rule="evenodd">
        <g id="Apple-TV" transform="translate(-1969.000000, -326.000000)" fill="#FFFFFF" fill-rule="nonzero">
            <path d="M2021.24,389.775 C2023.025,389.775 2024.24,391.045 2024.24,392.89 C2024.24,394.565 2023.24,395.765 2021.715,395.97 L2021.24,396 L1985.18,396 C1983.39,396 1982.18,394.73 1982.18,392.89 C1982.18,391.215 1983.18,390.01 1984.705,389.805 L1985.18,389.775 L2021.24,389.775 L2021.24,389.775 Z M2035.99,326 C2037.64,326 2038.78,327.15 2038.97,328.855 L2039,329.385 L2039,378.05 C2039,379.725 2037.915,381.15 2036.445,381.4 L2035.995,381.44 L1972.01,381.44 C1970.36,381.44 1969.22,380.29 1969.03,378.58 L1969,378.05 L1969,329.385 C1969,327.57 1969.985,326.26 1971.525,326.035 L1972.005,326 L2036,326 L2035.99,326 Z M2032.78,332.375 L1974.685,332.375 L1974.685,375.05 L2032.785,375.05 L2032.785,332.375 L2032.78,332.375 Z M2017.96,341 L2022.055,345.015 L2001.185,365.46 L1989,353.525 L1993.095,349.51 L2001.185,357.435 L2017.96,341 Z" id="线上法制审核"></path>
        </g>
    </g>
</svg>