<?xml version="1.0" encoding="UTF-8"?>
<svg width="51px" height="52px" viewBox="0 0 51 52" version="1.1" xmlns="http://www.w3.org/2000/svg" xmlns:xlink="http://www.w3.org/1999/xlink">
    <title>行政诉讼</title>
    <g id="页面-1" stroke="none" stroke-width="1" fill="none" fill-rule="evenodd">
        <g id="Apple-TV" transform="translate(-1534.000000, -334.000000)" fill="#FFFFFF" fill-rule="nonzero" stroke="#FFFFFF">
            <path d="M1563.04419,366.51936 C1562.78499,367.09795 1562.90898,367.776421 1563.35606,368.225941 L1566.42741,371.294793 C1567.54517,372.410059 1569.50375,372.420039 1570.6265,371.294793 L1580.71628,361.217481 C1581.87305,360.053626 1581.8697,358.17313 1580.7088,357.013402 L1577.63745,353.942055 C1577.16495,353.457764 1576.42603,353.351326 1575.83606,353.682575 L1562.86953,340.716049 C1562.98829,340.492412 1563.05081,340.243217 1563.05167,339.990004 C1563.05474,339.58265 1562.89167,339.191638 1562.60007,338.907173 L1559.52623,335.840816 C1558.40598,334.71557 1556.45488,334.72555 1555.32964,335.840816 L1545.24983,345.918129 C1544.69035,346.474062 1544.37574,347.2302 1544.37574,348.01892 C1544.37574,348.80764 1544.69035,349.563779 1545.24983,350.119712 L1548.31868,353.188564 C1548.76778,353.64016 1549.48385,353.75992 1550.03025,353.507925 L1553.70789,357.183062 L1535.69148,375.201967 C1535.26896,375.620408 1535.03125,376.19039 1535.03125,376.785045 C1535.03125,377.379701 1535.26896,377.949682 1535.69148,378.368124 L1538.72291,381.402046 C1539.14257,381.821618 1539.71183,382.056648 1540.30525,382.056648 C1540.89868,382.056648 1541.46757,381.819784 1541.88657,381.399551 L1559.91046,363.378152 L1563.04419,366.51936 Z M1552.38055,351.299848 L1560.64399,343.041391 L1573.51571,355.913106 L1565.24977,364.169068 L1559.90298,358.817289 L1541.12559,377.599663 C1540.6631,378.036193 1539.94006,378.035098 1539.47889,377.597168 C1539.0282,377.143701 1539.0282,376.41142 1539.47889,375.957952 L1557.87704,357.557313 L1558.25877,357.180567 L1552.38055,351.299848 Z M1567.06113,367.18802 C1567.06216,367.069919 1567.10967,366.956976 1567.19337,366.87365 L1576.28766,357.776873 C1576.37311,357.693315 1576.48751,357.645948 1576.60702,357.644638 C1576.72179,357.644638 1576.84404,357.697033 1576.92139,357.776873 L1577.94434,358.804814 C1578.03051,358.88769 1578.07907,359.00212 1578.07907,359.121679 C1578.07671,359.242191 1578.02853,359.357279 1577.94434,359.443534 L1568.85005,368.530331 C1568.67169,368.69702 1568.39468,368.69702 1568.21632,368.530331 L1567.19337,367.50738 C1567.10798,367.423152 1567.06028,367.307963 1567.06113,367.18802 L1567.06113,367.18802 Z M1558.9424,339.990004 C1558.9424,340.109027 1558.89471,340.223088 1558.81017,340.306869 L1549.71838,349.401151 C1549.53919,349.568168 1549.26135,349.568168 1549.08215,349.401151 L1548.01429,348.335785 C1547.84728,348.156593 1547.84728,347.878752 1548.01429,347.69956 L1557.11107,338.605278 C1557.19534,338.520718 1557.3098,338.473188 1557.42918,338.473188 C1557.54856,338.473188 1557.66303,338.520718 1557.7473,338.605278 L1558.81266,339.673139 C1558.89749,339.760464 1558.93991,339.872739 1558.9424,339.990004 L1558.9424,339.990004 Z M1577.60252,376.955953 L1560.23481,376.955953 C1556.73888,376.961452 1553.90662,379.794826 1553.9025,383.290763 L1553.9025,384.900039 L1583.93983,384.900039 L1583.93983,383.290763 C1583.93296,379.794019 1581.09927,376.961444 1577.60252,376.955953 L1577.60252,376.955953 Z M1557.56516,381.683982 C1558.12854,380.748805 1559.14055,380.177 1560.23232,380.177 L1577.60252,380.177 C1578.71779,380.177 1579.71579,380.758336 1580.26718,381.683982 L1557.56516,381.683982 Z" id="行政诉讼"></path>
        </g>
    </g>
</svg>