<?xml version="1.0" encoding="UTF-8"?>
<svg width="50px" height="52px" viewBox="0 0 50 52" version="1.1" xmlns="http://www.w3.org/2000/svg" xmlns:xlink="http://www.w3.org/1999/xlink">
    <title>轻微免罚备份</title>
    <g id="页面-1" stroke="none" stroke-width="1" fill="none" fill-rule="evenodd">
        <g id="Apple-TV" transform="translate(-1349.000000, -337.000000)" fill="#FFFFFF" fill-rule="nonzero" stroke="#FFFFFF">
            <path d="M1375.82426,338.601641 C1377.06044,339.315877 1381.26344,342.859586 1384.91703,343.601293 C1387.74651,344.205646 1390.71333,344.288058 1392.25169,344.288058 C1393.18569,344.288058 1393.76257,344.260587 1393.81751,344.260587 L1394.06475,344.260587 C1394.99875,344.260587 1395.87781,344.562764 1396.56457,345.112176 C1397.30628,345.689059 1397.71834,346.513178 1397.71834,347.392237 L1397.71834,355.221362 C1397.71834,384.175388 1375.35726,387.883921 1374.42326,388.048745 C1373.98373,388.103686 1373.57167,388.103686 1373.13214,388.048745 C1372.19814,387.911391 1350.00188,384.175388 1350.00188,355.221362 L1350.00188,347.392237 C1350.00188,346.513178 1350.41394,345.71653 1351.15565,345.112176 C1351.89736,344.507823 1352.91377,344.205646 1353.90271,344.288058 C1353.95765,344.288058 1354.56201,344.315529 1355.46854,344.315529 C1357.00689,344.315529 1360.02866,344.233117 1362.85813,343.628763 C1367.17102,342.722233 1371.56632,338.711524 1371.73114,338.629112 C1373.02226,337.914876 1374.56061,337.914876 1375.82426,338.601641 L1375.82426,338.601641 Z M1373.95626,341.431114 C1373.95626,341.431114 1371.0169,344.919882 1364.89096,346.59559 C1358.76501,348.271297 1353.54559,347.364767 1353.54559,347.364767 L1353.54559,356.292716 C1353.54559,382.637034 1373.48926,384.69733 1373.87385,384.752271 C1373.87385,384.752271 1394.36692,382.91174 1394.36692,356.292716 L1394.36692,347.364767 C1394.36692,347.364767 1390.21886,347.831767 1384.23027,346.59559 C1378.26915,345.386883 1373.95626,341.431114 1373.95626,341.431114 Z M1369.28626,364.259194 L1369.28626,371.950965 C1370.46749,371.2642 1371.62126,370.577435 1372.77502,369.835728 L1373.46179,372.582789 C1371.40149,373.846438 1369.23131,374.972733 1367.00619,375.906734 L1365.98978,373.51679 C1366.42931,373.187143 1366.70402,372.747613 1366.70402,372.253142 L1366.70402,366.813961 L1362.22631,366.813961 L1362.22631,364.286664 L1369.28626,364.286664 L1369.28626,364.259194 Z M1384.64233,359.341954 L1384.64233,372.390495 C1384.64233,374.670556 1383.5435,375.824322 1381.4008,375.824322 L1378.18673,375.824322 L1377.60985,373.214614 C1378.54385,373.324496 1379.50532,373.379437 1380.46679,373.379437 C1381.42827,373.379437 1381.89527,372.802554 1381.89527,371.7312 L1381.89527,359.341954 L1384.64233,359.341954 L1384.64233,359.341954 Z M1378.02191,360.770426 L1378.02191,370.38514 L1375.46714,370.38514 L1375.46714,360.770426 L1378.02191,360.770426 L1378.02191,360.770426 Z M1366.53919,358.7376 C1368.18743,359.589189 1369.69831,360.578132 1371.09932,361.759368 L1369.45108,363.599899 C1367.99514,362.363721 1366.37437,361.319838 1364.69866,360.413308 L1366.53919,358.7376 Z M1384.97198,350.853535 L1384.97198,358.2706 L1363.0779,358.2706 L1363.0779,350.853535 L1384.97198,350.853535 Z M1382.36227,353.051184 L1378.48891,353.051184 L1378.48891,356.072951 L1382.36227,356.072951 L1382.36227,353.051184 Z M1376.01656,353.051184 L1372.00585,353.051184 L1372.00585,356.072951 L1376.01656,356.072951 L1376.01656,353.051184 Z M1369.53349,353.051184 L1365.6876,353.051184 L1365.6876,356.072951 L1369.56096,356.072951 L1369.56096,353.051184 L1369.53349,353.051184 Z" id="轻微免罚备份"></path>
        </g>
    </g>
</svg>