<?xml version="1.0" encoding="UTF-8"?>
<svg width="72px" height="72px" viewBox="0 0 72 72" version="1.1" xmlns="http://www.w3.org/2000/svg" xmlns:xlink="http://www.w3.org/1999/xlink">
    <title>非诉执行备份</title>
    <g id="页面-1" stroke="none" stroke-width="1" fill="none" fill-rule="evenodd">
        <g id="Apple-TV" transform="translate(-1848.000000, -322.000000)" fill="#FFFFFF" fill-rule="nonzero" stroke="#FFFFFF">
            <path d="M1910.30118,357.248659 C1911.29902,357.248659 1912.14757,357.955789 1912.32829,358.937913 L1912.35971,359.307192 L1912.35971,366.024925 L1909.1462,363.856393 C1906.85196,362.308565 1904.14915,361.48358 1901.39135,361.491437 C1893.7622,361.475723 1887.57089,367.643466 1887.54732,375.27261 C1887.56303,382.901754 1893.7622,389.069497 1901.39135,389.053783 C1909.02049,389.069497 1915.2118,382.901754 1915.23537,375.27261 C1915.23537,374.133346 1916.15464,373.214077 1917.29391,373.214077 C1918.43317,373.214077 1919.35244,374.133346 1919.35244,375.27261 C1919.35244,385.156712 1911.30688,393.170874 1901.3992,393.170874 C1896.64572,393.178706 1892.0808,391.300884 1888.71015,387.945946 C1885.33164,384.598866 1883.43811,380.041807 1883.43025,375.280467 C1883.43025,365.396365 1891.47582,357.382228 1901.39135,357.382228 C1903.57559,357.382228 1905.69698,357.775078 1907.6848,358.513635 L1908.32122,358.772916 L1908.36836,358.592205 C1908.61978,357.908647 1909.21691,357.413656 1909.9319,357.280087 L1910.30118,357.248659 Z M1882.67598,387.568811 C1883.87024,387.576668 1884.86022,388.488079 1884.97022,389.674486 C1885.08022,390.860892 1884.26309,391.937301 1883.0924,392.157297 L1882.71526,392.188725 L1851.33442,392.455863 C1850.1323,392.455863 1849.13446,391.536594 1849.02446,390.342331 C1848.91446,389.148067 1849.73945,388.071658 1850.918,387.851662 L1851.28728,387.820234 L1882.67598,387.568811 Z M1903.45774,367.847748 C1904.44772,367.847748 1905.30413,368.562735 1905.47698,369.537002 L1905.51627,369.906281 L1905.51627,376.333305 L1898.12284,382.15534 C1897.28214,382.80747 1896.09573,382.713186 1895.36503,381.943201 C1894.63433,381.173215 1894.61076,379.978951 1895.31003,379.177538 L1895.57717,378.926114 L1901.3992,374.337628 L1901.3992,369.914138 C1901.3992,368.9163 1902.10633,368.067744 1903.08846,367.887033 L1903.45774,367.847748 Z M1855.93862,376.246878 L1876.75966,376.254735 C1877.95392,376.270449 1878.93605,377.197574 1879.03033,378.383981 C1879.12462,379.570388 1878.30749,380.638939 1877.12894,380.851078 L1876.7518,380.882506 L1855.93862,380.882506 C1854.72078,380.906077 1853.69152,379.971094 1853.58938,378.75326 C1853.48723,377.535425 1854.3515,376.45116 1855.56148,376.278306 L1855.93862,376.246878 Z M1888.33302,324.532123 L1897.28214,333.481243 C1899.0971,335.288352 1899.0971,338.219012 1897.28214,340.026121 L1884.72263,352.595898 L1888.24659,356.125108 C1889.12657,356.965807 1889.20514,358.348639 1888.41944,359.283621 C1887.63374,360.218604 1886.25877,360.383601 1885.27664,359.668614 L1884.96237,359.393619 L1881.45063,355.869898 L1869.93193,367.399899 C1868.11696,369.214865 1865.1863,369.214865 1863.37919,367.399899 L1854.43007,358.442922 C1852.62297,356.635813 1852.62297,353.705153 1854.43007,351.898044 L1881.78814,324.532123 C1883.59525,322.717157 1886.52591,322.717157 1888.33302,324.532123 Z M1885.06451,327.808491 L1857.69859,355.166555 L1866.6477,364.115674 L1894.01363,336.749754 L1885.06451,327.808491 Z" id="非诉执行备份"></path>
        </g>
    </g>
</svg>