<?xml version="1.0" encoding="UTF-8"?>
<svg width="72px" height="72px" viewBox="0 0 72 72" version="1.1" xmlns="http://www.w3.org/2000/svg" xmlns:xlink="http://www.w3.org/1999/xlink">
    <title>首违免罚</title>
    <g id="页面-1" stroke="none" stroke-width="1" fill="none" fill-rule="evenodd">
        <g id="Apple-TV" transform="translate(-1739.000000, -324.000000)" fill="#FFFFFF" fill-rule="nonzero" stroke="#FFFFFF">
            <path d="M1774.84503,329.428213 C1791.59717,329.428213 1805.21979,343.05083 1805.21979,359.802967 C1805.21979,376.555103 1791.59717,390.17772 1774.84503,390.17772 C1758.0929,390.17772 1744.47028,376.555104 1744.47028,359.802967 C1744.47028,343.05083 1758.0929,329.428213 1774.84503,329.428213 M1774.84503,325.010067 C1755.69973,325.010067 1740.05213,340.657668 1740.05213,359.802967 C1740.05213,378.948266 1755.51565,394.595866 1774.84503,394.595866 C1793.99033,394.595866 1809.63793,379.132355 1809.63793,359.802967 C1809.63793,340.657668 1793.99033,325.010067 1774.84503,325.010067 Z M1795.46305,368.08699 C1794.35851,366.246096 1792.70171,366.246096 1791.59717,368.08699 L1791.41308,368.639259 C1791.59717,373.057405 1790.86081,374.161941 1790.49263,374.53012 C1790.30854,374.714209 1790.12446,374.714209 1789.3881,374.714209 L1781.47225,374.714209 C1781.10407,374.714209 1780.7359,374.714209 1780.55181,374.53012 C1780.36772,374.346031 1780.36772,374.161941 1780.36772,373.609673 L1780.36772,364.773381 L1784.60177,364.773381 C1786.62676,364.95747 1788.28356,364.405202 1789.20401,363.484755 C1790.12446,362.564308 1790.49263,361.091593 1790.49263,359.250699 L1790.49263,354.648463 C1790.67672,352.991658 1790.30854,351.703033 1789.3881,350.782585 C1788.46765,349.678049 1787.17902,349.125781 1785.33813,349.125781 L1782.57679,349.125781 L1784.41768,345.443992 C1784.96995,343.971277 1784.78586,342.866741 1784.23359,341.946294 C1783.49724,340.841757 1782.02452,340.289489 1779.63136,340.289489 L1770.05871,340.289489 C1770.2428,340.105399 1770.42689,339.737221 1770.42689,339.553131 L1770.61098,339.000863 C1770.61098,337.896326 1770.2428,337.159969 1769.69053,336.79179 C1768.95417,336.423611 1768.21782,336.423611 1767.29737,337.159969 L1766.7451,337.712237 C1763.61558,343.23492 1759.7497,347.653065 1754.96338,350.966675 L1754.5952,351.334854 C1754.04293,352.255301 1754.04293,352.991658 1754.41111,353.728016 C1754.77929,354.464374 1755.51565,354.648463 1756.62018,354.648463 L1757.17245,354.464374 C1757.90881,353.912105 1758.82926,353.359837 1759.56561,352.807569 C1759.38152,353.543927 1759.19743,354.280284 1759.19743,355.200731 L1759.19743,360.355235 C1759.19743,362.01204 1759.56561,363.300666 1760.48606,364.221113 C1761.40651,364.95747 1762.51104,365.325649 1763.98376,365.14156 L1771.34734,365.14156 C1769.32235,369.743795 1764.16785,373.241494 1755.69973,375.634656 L1755.33156,375.818746 C1754.41111,376.555104 1754.04293,377.291461 1754.22702,378.027819 C1754.41111,378.764176 1754.96338,379.316445 1756.06791,379.684624 L1756.62018,379.684624 C1766.92919,376.923282 1773.55641,372.136958 1776.13366,365.14156 L1776.31775,365.14156 L1776.31775,374.161941 C1776.31775,375.818746 1776.68593,376.923282 1777.60638,377.843729 C1778.52682,378.764177 1779.99954,379.132355 1781.65634,378.948266 L1789.57219,378.948266 C1791.0449,379.132355 1792.33353,378.764176 1793.25398,377.843729 C1794.91078,376.371014 1795.64714,373.241494 1795.46305,368.639259 L1795.46305,368.08699 L1795.46305,368.08699 Z M1778.895,344.707635 L1779.99954,344.707635 L1779.99954,344.891724 C1779.44727,346.18035 1778.71091,347.653065 1777.60638,349.30987 L1764.72012,349.30987 C1764.16785,349.30987 1763.61558,349.30987 1763.2474,349.49396 C1764.72012,348.021244 1766.00874,346.548529 1767.29737,344.707635 L1778.895,344.707635 Z M1786.25858,359.802967 C1786.25858,360.355235 1786.25858,360.723414 1786.07449,360.723414 C1786.07449,360.723414 1785.70631,361.091593 1784.60177,360.907503 L1776.68593,360.907503 C1777.05411,358.146162 1777.2382,355.56891 1777.2382,353.543927 L1784.96995,353.543927 C1785.52222,353.543927 1785.8904,353.728016 1786.07449,353.912106 C1786.25858,354.096195 1786.25858,354.464374 1786.25858,355.200731 L1786.25858,359.802967 L1786.25858,359.802967 Z M1763.43149,354.832553 C1763.43149,353.912105 1763.79967,353.543927 1764.72012,353.543927 L1773.18823,353.543927 C1773.18823,355.753 1773.00414,358.330251 1772.63596,360.907503 L1764.90421,360.907503 C1764.35194,360.907503 1763.98376,360.907503 1763.79967,360.723414 C1763.61558,360.539324 1763.43149,360.171146 1763.43149,359.618877 L1763.43149,354.832553 L1763.43149,354.832553 Z" id="首违免罚"></path>
        </g>
    </g>
</svg>